<?xml version="1.0" encoding="utf-8"?>
<!-- Generator: Adobe Illustrator 24.1.2, SVG Export Plug-In . SVG Version: 6.00 Build 0)  -->
<svg version="1.1" id="Capa_1" xmlns="http://www.w3.org/2000/svg" xmlns:xlink="http://www.w3.org/1999/xlink" x="0px" y="0px"
	 viewBox="0 0 1000 855" style="enable-background:new 0 0 1000 855;" xml:space="preserve">
<style type="text/css">
	.st0{opacity:0.2;fill:#82C8B8;}
	.st1{fill:#241833;}
	.st2{fill:#60858A;}
	.st3{fill:#EB7979;}
	.st4{fill:#FFFADD;}
	.st5{fill:#4F6E72;}
	.st6{fill:#F8B974;}
	.st7{fill:#ED797E;}
	.st8{fill:#EB703D;}
	.st9{fill:#EB5F74;}
</style>
<path class="st0" d="M962.45,467.01c0,0-42.95,168.19-253.55,161.73c-179.85-5.51-251.05-170.22-376.71-148.35
	S92.87,512.59,38.75,377C-24.66,218.12-0.12,80,209.77,25s295.67,37.08,462.91,0S1085.82,160.45,962.45,467.01z"/>
<g>
	<path class="st1" d="M862.6,664.83c0,0,17.8,124.97,2.64,126.65c-15.16,1.69-42.72-114.06-42.72-114.06L862.6,664.83z"/>
	<path class="st1" d="M622.43,674.58c0,0-17.87,124.96-33.02,123.21c-15.15-1.75-9.32-119.96-9.32-119.96L622.43,674.58z"/>
	<path class="st2" d="M700.52,303.86c0,0,109.6-3.58,159.25,33.26c49.65,36.84,43.57,327.06,21.53,359.48
		c-22.04,32.43-339.45,45.22-357.55,0c-18.1-45.22,39.81-137.09,64.16-166.19C612.24,501.32,637.81,291.83,700.52,303.86z"/>
	<path class="st3" d="M566.38,323.48c0,0-74.29,62.62-85.66,56.78c-11.38-5.83-74.96-162.19-78.85-160.12
		c-3.89,2.07-0.29,15.87-0.29,15.87s-11.24-24.26-12.9-18.94s4.08,21.66,4.08,21.66s-9.43-22.38-11.67-17.92
		c-2.24,4.45,2.14,19.67,2.14,19.67s-10.8-13.98-12.01-8.81s5.22,14.83,7.29,23.5c2.07,8.67,23.32,164.21,63.46,188.01
		c40.15,23.79,144.32-51.63,152.05-61.42C601.77,371.96,566.38,323.48,566.38,323.48z"/>
	<path class="st1" d="M398.65,255.44c-2.19-2.17-3.19-4.59-2.95-7.18c0.49-5.36,6.25-9.33,6.49-9.49l1.74,2.56
		c-0.05,0.03-4.8,3.32-5.15,7.22c-0.15,1.64,0.52,3.17,2.04,4.68L398.65,255.44z"/>
	<path class="st4" d="M385.99,280.27c0,0,37.87-16.44,40.92-16.44c3.06-0.01,10.1,14.13,8.42,20.38
		c-1.67,6.26-36.73,23.18-44.41,19.94C383.25,300.92,379.14,283.22,385.99,280.27z"/>
	<path class="st1" d="M686.93,183.96c0,0,14.31-1.78,19.49,12.51s2.1,53.01-20.75,46.52C662.82,236.51,680.85,182.44,686.93,183.96z
		"/>
	<path class="st5" d="M642.07,556.76c0,0,331.13,15.47,101.14,89.34c-56.57,18.17-200.68,10.9-222.89,0S381.13,585.13,642.07,556.76
		z"/>
	<path class="st6" d="M383.34,300.86c0,0,41.24-27.9,53.55-21.39c12.31,6.51,41.71,82.72,41.71,82.72
		c5.35-0.58,101.14-93.62,146.41-75.09c10.45,4.28-4.55,80.47-15.61,87.35c-11.06,6.88-117.77,118.01-159.72,95.22
		C434.68,461.53,374.79,305.78,383.34,300.86z"/>
	<path class="st3" d="M688.14,223.77c0,0-0.55,57.97,1.79,60.41c3.96,4.12,29.86,3.33,40.63,14.02
		c10.77,10.69-50.82,33.19-80.92,31.35c-20.04-1.22-40.42-42.68-26.24-42.74c14.18-0.06,23.46-3.62,23.14-14.02
		c-0.32-10.4-0.41-19.86-0.41-19.86S686.04,225.29,688.14,223.77z"/>
	<path class="st6" d="M635.08,285.64c0,0-11.38,27.1,9.36,29.02c24.39,2.25,55.04-25.63,59.76-25.87
		c41.75-2.14,55.54,12.21,69.03,28.84c13.5,16.63-14.59,270.78-28.78,272.98s-209.8-53.46-216.63-54.96
		c-6.84-1.49,39.18-231.99,43.59-232.53C575.84,302.56,604.3,278.1,635.08,285.64z"/>
	<path class="st7" d="M520.74,797.59c0,0,12.88,35.5-11.13,36.89c-24.01,1.39-59.01,7.34-69.6-0.44
		c-10.59-7.78,50.86-30.46,53.62-42.8S520.74,797.59,520.74,797.59z"/>
	<path class="st7" d="M405.93,718.94c0,0-6.35,39.38-28.51,30.02c-22.16-9.35-60.35-15.89-66.42-27.54
		c-6.07-11.65,63.24-8.45,71.16-18.31C390.08,693.25,405.93,718.94,405.93,718.94z"/>
	<path class="st1" d="M748.01,563.97c0,0-0.15-69.36-185.84-71.5c-87.76-1.01-104.48,277.67-104.48,277.67
		c18.4,2.03,91.59,21.12,97.12-1.08c5.54-22.2,42.24-146.65,42.24-146.65C621.16,617.98,743.22,656.57,748.01,563.97z"/>
	<path class="st6" d="M649.13,486.67c0,0,8.28-38.75,24.12-39.46c15.84-0.71,51.92,9.58,57.91,2.6
		c5.99-6.98-35.72-157.57-19.61-159.67c32.41-4.21,51.85,11.02,68.3,37.1c20.81,32.98,31.16,167.52,11.23,190.55
		C773.62,537.97,649.25,504.29,649.13,486.67z"/>
	<path class="st1" d="M706.39,453.12c-9.1,0-28.9-3.66-33.4-4.51l0.53-2.79c12.1,2.3,32.49,5.46,35.68,4.22
		c5.29-2.08,2.58-33.29,0.6-56.08c-1.69-19.45-3.28-37.83-1.46-45.45l2.76,0.66c-1.71,7.17-0.14,25.33,1.53,44.54
		c3.03,34.91,4.37,56.3-2.39,58.97C709.45,452.99,708.11,453.12,706.39,453.12z"/>
	<path class="st1" d="M565.98,361.33l-2.15-1.84c7.9-9.21,14.12-27.25,14.19-27.44l2.68,0.92
		C580.43,333.73,574.23,351.71,565.98,361.33z"/>
	
		<rect x="504.34" y="360.03" transform="matrix(0.0449 -0.999 0.999 0.0449 131.2667 981.6743)" class="st8" width="149.33" height="124.31"/>
	<path class="st1" d="M659.4,494.76c0,0-87.18-59.19-145.85-40.62c-71.88,22.76-143.53,220.81-143.53,220.81
		c38.93,31.01,56.52,55.22,71.64,38.56c63.73-70.16,138.4-193.3,146.23-183.1S661.95,530.17,659.4,494.76z"/>
	<path class="st3" d="M651.32,451.42c0,0-10.69-16.02-10.72-15.28c-0.03,0.74-3.34,14.64-3.34,14.64s-31.49-18.22-32.9-10.1
		c-1.4,8.13,2.14,24.35,14.47,31.6c12.33,7.25,25.78,18.28,30.91,14.04S664.81,464.68,651.32,451.42z"/>
	<path class="st7" d="M683.04,174.31c0,0-43.46-15.29-58.11,2.61c-14.65,17.9-13.96,79.48,18.72,83.14
		C690.8,265.33,706.74,196.24,683.04,174.31z"/>
	<circle class="st9" cx="666.26" cy="227.8" r="6.85"/>
	
		<ellipse transform="matrix(0.255 -0.967 0.967 0.255 261.7595 759.2761)" class="st1" cx="623.59" cy="209.78" rx="3.68" ry="2.92"/>
	
		<ellipse transform="matrix(0.2074 -0.9783 0.9783 0.2074 311.1823 808.0437)" class="st1" cx="654.23" cy="211.99" rx="3.68" ry="2.92"/>
	<path class="st1" d="M619.05,162.45c0,0-7.11,16.12,7.79,21.96c17.71,6.94,39.8-9.96,47.58-5.35c7.78,4.61-3.56,23.76,12.1,33.36
		c10.69,6.55,20.27-10.21,15.29-30.56c-5.43-22.15-24.94-21.25-29.48-24.92s6.62-3.88,2.91-9.54
		C671.53,141.74,637.16,129.85,619.05,162.45z"/>
	<path class="st7" d="M692.79,218.13c0,0,1.76-8.17,6.63-4.1c4.87,4.07,1.78,16.82-4.57,19.02S691.53,221.33,692.79,218.13z"/>
	<path class="st1" d="M626.84,243.72c3.9-1.91-1.86-11.51,13.11-14.25c26.56-4.85,14.83,13.11,28.41,15.82s23.63-45.26,12.83-54.17
		c-4.68-3.86,23.1-4.05,9.77,40.86c-0.87,2.94,9.05,42.74-46.51,44.73c-10.4,0.37-23.38-9.84-27.1-17.6
		c-6.51-13.61-2.18-36.58-0.84-39.38C616.51,219.74,620.62,246.77,626.84,243.72z"/>
	<path class="st1" d="M634.33,230.9c-1.18,0-2.26-0.19-3.05-0.69c-0.37-0.23-0.86-0.69-1.04-1.54c-0.77-3.6,5.9-13.96,7.97-17.05
		l2.39,1.6c-4.27,6.39-7.63,12.93-7.57,14.66c1.48,0.56,5.66-0.36,8.9-1.62l1.04,2.68C641.92,229.34,637.7,230.9,634.33,230.9z"/>
	<path class="st4" d="M641.56,240.95c-3,0-5.34-1.56-5.46-1.64l1.21-1.79c0.03,0.02,2.9,1.92,5.95,1.04
		c2.15-0.63,3.93-2.52,5.28-5.61l1.98,0.86c-1.63,3.71-3.87,6.01-6.68,6.82C643.05,240.85,642.28,240.95,641.56,240.95z"/>
	<path class="st1" d="M362.15,708.95c0,0-4.98,12.6,0,14.92s39.84,4.62,41.56,4.94c1.72,0.33-10.8,26.1-15.96,26.84
		c-5.16,0.74-75.12-8.02-81.02-26.84S354.17,709.69,362.15,708.95z"/>
	<path class="st1" d="M473.23,807.82c0,0,5.66,16.16,10.09,16.31c4.43,0.15,40.81-9.99,40.81-9.99s0.74,27.02-4.82,29.75
		c-5.56,2.73-77.72,13.57-92.71,4.66S473.23,807.82,473.23,807.82z"/>
	<path class="st4" d="M624.42,223.73c-7.7,0-13.96-6.26-13.96-13.96c0-7.69,6.26-13.96,13.96-13.96s13.96,6.26,13.96,13.96
		C638.38,217.47,632.12,223.73,624.42,223.73z M624.42,197.97c-6.51,0-11.8,5.29-11.8,11.8c0,6.51,5.29,11.8,11.8,11.8
		c6.51,0,11.8-5.29,11.8-11.8C636.22,203.27,630.93,197.97,624.42,197.97z"/>
	<path class="st4" d="M658.34,223.73c-7.7,0-13.96-6.26-13.96-13.96c0-7.69,6.26-13.96,13.96-13.96s13.96,6.26,13.96,13.96
		C672.3,217.47,666.04,223.73,658.34,223.73z M658.34,197.97c-6.51,0-11.8,5.29-11.8,11.8c0,6.51,5.29,11.8,11.8,11.8
		c6.51,0,11.8-5.29,11.8-11.8C670.14,203.27,664.85,197.97,658.34,197.97z"/>
	<path class="st4" d="M645.79,213.46c-4.1-1.05-8.54-0.79-8.58-0.79l-0.13-2.15c0.19-0.01,4.81-0.29,9.25,0.85L645.79,213.46z"/>
	
		<rect x="681.99" y="201.02" transform="matrix(0.0763 -0.9971 0.9971 0.0763 418.6754 877.7314)" class="st4" width="2.16" height="23.76"/>
	<path class="st4" d="M709.91,288.6c0,0-12.58-8.91-24.25-2.69c-20.57,10.96-39.93,28.44-39.93,28.44s-6.9-31.97-11.66-32.65
		s-23.6-3.61-23.22,3.79c0.38,7.4,0.5,44.48,11.3,44.14c10.8-0.34,23.58-9.79,23.58-9.79s3.95,14.61,15.31,17.04
		C679.57,340.83,713.83,296.38,709.91,288.6z"/>
	<path class="st4" d="M672.5,452.83c0,0-6.46,43.34-13.1,41.93c-6.64-1.41-14.96-4.68-14.96-4.68s9.57-42.29,12.41-42.29
		C662.18,447.79,672.5,452.83,672.5,452.83z"/>
	<path class="st4" d="M634.27,170.3c-0.82-6.52,0.51-11.85,3.97-15.83c6.08-7.02,16.47-7.27,16.91-7.28l0.04,2.15
		c-0.1,0-9.88,0.26-15.33,6.55c-3.03,3.5-4.19,8.26-3.45,14.14L634.27,170.3z"/>
	<path class="st4" d="M638.87,172.19c-0.19-9.85,12.63-16.65,13.18-16.93l1,1.91c-0.12,0.06-12.19,6.47-12.02,14.98L638.87,172.19z"
		/>
	<path class="st4" d="M468.48,683.41l-2.13-0.31c0.05-0.32,4.88-32.68,14.64-65.9c13.18-44.88,28.62-69.87,45.88-74.27
		c35.18-8.98,49.25,10.09,65.54,32.16c11.46,15.54,24.46,33.15,47.15,42.43l-0.81,1.99c-23.25-9.51-36.44-27.38-48.07-43.14
		c-15.83-21.45-29.48-39.97-63.27-31.35C487.88,555.1,468.67,682.13,468.48,683.41z"/>
	<path class="st2" d="M633.09,689.73c0,0-17.2-143.42,29.35-161.4c20.97-8.1,160.69-37.9,176.64-15.09
		c15.95,22.81,20.53,168.07,0,176.49S633.09,689.73,633.09,689.73z"/>
	<path class="st4" d="M367.34,654.55c0,0,85.85,43.73,83.24,57.47c-2.01,10.6-7.41,24.26-23.83,20.3
		c-20.17-4.87-59.19-36.71-67.52-49.69C350.9,669.65,367.34,654.55,367.34,654.55z"/>
	<path class="st4" d="M453.78,764.06c0,0,97.8-0.51,101.03,5c5.46,9.31,1.2,30.78-9.56,29.81c-18-1.63-71.06-0.54-87.56-2.25
		C442.34,795.03,453.78,764.06,453.78,764.06z"/>
	<path class="st1" d="M625.75,473.33l-2.63-1.15c1.04-2.38,8.08-14.93,8.38-15.46l2.5,1.41
		C631.49,462.59,626.53,471.53,625.75,473.33z"/>
	<path class="st1" d="M629.06,463.48c-5.17-4.34-22.78-19.1-22.78-19.1l1.85-2.2c0,0,17.61,14.76,22.78,19.1L629.06,463.48z"/>
	<path class="st1" d="M626.51,468.91c-0.47-0.22-11.75-5.47-21.67-16.14l2.1-1.96c9.52,10.23,20.65,15.43,20.76,15.49L626.51,468.91
		z"/>
</g>
</svg>
