<?xml version="1.0" encoding="utf-8"?>
<!-- Generator: Adobe Illustrator 24.1.2, SVG Export Plug-In . SVG Version: 6.00 Build 0)  -->
<svg version="1.1" id="Слой_2" xmlns="http://www.w3.org/2000/svg" xmlns:xlink="http://www.w3.org/1999/xlink" x="0px" y="0px"
	 viewBox="0 0 3600 2000" style="enable-background:new 0 0 3600 2000;" xml:space="preserve">
<style type="text/css">
	.st0{fill:#EBF2F9;}
	.st1{fill:#82B378;}
	.st2{fill:#A8D29F;}
	.st3{fill:#F1A34F;}
	.st4{fill:#D16E24;}
	.st5{fill:#E78B37;}
	.st6{opacity:0.4;fill:#C44F00;}
	.st7{fill:#DF812F;}
	.st8{fill:#B5453C;}
	.st9{fill:#FFB27D;}
	.st10{fill:#C65447;}
	.st11{fill:#AA413E;}
	.st12{fill:#699DEE;}
	.st13{fill:#4A75CB;}
	.st14{fill:#E2915A;}
	.st15{fill:#A1C7FF;}
	.st16{fill:#EF9A60;}
	.st17{fill:#233862;}
	.st18{fill:#365DA4;}
	.st19{fill:#466AA5;}
	.st20{fill:#2B478B;}
	.st21{fill:#163560;}
	.st22{fill:#B64C41;}
	.st23{fill:#D6716B;}
	.st24{fill:#B2CBFD;}
	.st25{fill:#D2E9FF;}
	.st26{fill:#AFCDFB;}
	.st27{fill:#283250;}
</style>
<g>
	<path class="st0" d="M3332.51,1580.05c-47.93,108.9-141.19,156.96-230.36,176.68H482.76c-247.27-92.38-378.84-764.15-12.17-927.57
		c200.93-89.56,339.33-105.1,378.4-246.23c164.28-593.52,753.33-223.37,971.34-285.67c775.33-221.61,659,864.21,1142.11,765.78
		C3184.15,1017.88,3473.23,1260.31,3332.51,1580.05z"/>
	<g>
		<g>
			<path class="st1" d="M2021.27,1253.94c0,0-86.13,64.05-102.92,60.16c-16.79-3.88,62.95-69.14,62.95-69.14
				c-30.01-14.43-123.28-5.38-123.28-5.38s-31.07,100.19-46.39,92.29c-15.32-7.9,32.04-87.31,32.04-87.31
				c-33.42-2.01-74.41,22.8-74.41,22.8c-56.12,44.32,3.69,114.08,3.69,114.08s-11.52,34.49-46.95,65.9c0,0-50.61,37.43-54.13,104.31
				l9.19,0.82c0,0,14.56-62.29,41.03-91.75c1.03-1.07,2.51-2.59,4.35-4.44c0,0,0,0,0,0c4.33-4,7.35-7.01,9.38-9.24
				c13.17-12.65,31.37-28.77,40.13-30.33c0,0-0.44-1.61-0.38-4.41c0.12,1.41,0.24,2.87,0.38,4.41c3,35.26,71.41,66.06,113.5,72.39
				c42.09,6.33,29.08-10.97,14.57-36.62s-60.39-37.13-70.86-48.94c-10.47-11.81,11.18-11.84,36.53-0.26
				c25.36,11.58,28.83,42.46,69.51,61.94c40.68,19.48,101.88-48.02,101.88-48.02c-32.42-1.65-78.71-36.85-77.04-47.62
				c1.67-10.77,78.58,18.59,91.73,19.99c13.15,1.41,43.06-14.94,47.69-67.9C2108.08,1268.72,2021.27,1253.94,2021.27,1253.94z"/>
			<g>
				<path class="st2" d="M1563.84,1293.71c0,0,95.13-53.27,50.74-125.57c0,0-35.52-44.39-73.57-55.81c0,0,20.29,107.81,0,110.35
					c-20.29,2.54-13.95-121.77-13.95-121.77s-100.2-48.2-139.52-44.39c0,0,62.15,105.28,41.86,102.74
					c-20.29-2.54-90.06-109.08-90.06-109.08s-102.74-19.03-119.23,41.86c-16.49,60.88,10.15,91.32,25.37,95.13
					c15.22,3.81,112.89,2.54,110.35,15.22c-2.54,12.68-68.49,32.98-105.28,21.56c0,0,40.59,100.2,93.86,95.13
					c53.27-5.07,69.76-38.05,102.74-40.59c32.98-2.54,57.08,6.34,40.59,15.22c-16.49,8.88-72.3,2.91-98.94,25.55
					c-26.64,22.65-48.2,36.6,1.27,46.74c49.47,10.15,138.26,3.81,156.01-34.25C1563.84,1293.71,1563.84,1293.71,1563.84,1293.71z"/>
				<path class="st1" d="M1589.21,1386.31c-26.64-49.47-25.37-92.59-25.37-92.59c-30.44-96.4-296.81-182.65-296.81-182.65
					c338.66,136.99,279.05,220.7,279.05,220.7c9.13,5.32,22.81,30.71,32.31,50.19c1.35,3.31,3.49,7.9,6.68,14.13v0
					c1.29,2.82,2.32,5.12,3.03,6.73c17.44,43.63,8.2,118.97,8.2,118.97l10.57,2.84C1630.29,1448.68,1589.21,1386.31,1589.21,1386.31
					z"/>
			</g>
			<g>
				<path class="st2" d="M1715.19,1220.24c0,0-125.4-70.22-66.88-165.53c0,0,46.82-58.52,96.98-73.57c0,0-26.75,142.12,0,145.46
					c26.75,3.34,18.39-160.51,18.39-160.51s132.09-63.54,183.92-58.52c0,0-81.93,138.78-55.18,135.43
					c26.75-3.34,118.71-143.79,118.71-143.79s135.43-25.08,157.17,55.18c21.74,80.26-13.38,120.38-33.44,125.4
					c-20.06,5.02-148.81,3.34-145.46,20.06c3.34,16.72,90.29,43.47,138.78,28.42c0,0-53.5,132.09-123.73,125.4
					c-70.22-6.69-91.96-50.16-135.43-53.5c-43.47-3.34-75.24,8.36-53.5,20.06c21.74,11.7,95.3,3.84,130.42,33.69
					c35.11,29.85,63.54,48.24-1.67,61.62c-65.21,13.38-182.25,5.02-205.66-45.14C1715.19,1220.24,1715.19,1220.24,1715.19,1220.24z"
					/>
				<path class="st1" d="M2106.43,979.48c0,0-351.12,113.7-391.25,240.77c0,0,1.67,56.85-33.44,122.06c0,0-54.15,82.23-23.28,182.32
					l13.93-3.74c0,0-12.18-99.31,10.81-156.82c0.94-2.12,2.3-5.16,4-8.87c4.19-8.21,7.02-14.25,8.8-18.62
					c12.52-25.68,30.56-59.14,42.59-66.16C1738.59,1270.4,1660.01,1160.05,2106.43,979.48z"/>
			</g>
		</g>
		<path class="st3" d="M1506.14,1208.42c0,0,207.54-59.28,259.67-2.88c45.67,49.41,169.51,244.98,176.03,360.74
			c6.34,112.48-112.72,186.43-235.19,186.43h-217.52L1506.14,1208.42z"/>
		<path class="st4" d="M1362.5,1266.06c0,0,293.43-133.3,349.01-46.22c29.51,46.23,110.72,230.69,116.72,346.44
			c5.83,112.48-103.66,186.43-216.29,186.43h-200.03L1362.5,1266.06z"/>
		<path class="st5" d="M783.94,855.99c0,0,364.99-9.88,504.31-9.57c71.68,0.16,69.9,54.41,104.34,117.28
			c68.97,125.9,183.49,342.46,174.38,376.3c-12.97,48.18-501.56,81.53-536.15,70.41C996.24,1399.28,783.94,855.99,783.94,855.99z"/>
		<path class="st6" d="M1069.73,953.56c0,0,4.94-71.64-12.35-65.46c-17.29,6.18-127.22,106.22-109.93,342.14l50.64,43.23
			l386.6-64.23L1069.73,953.56z"/>
		<path class="st3" d="M1561.18,1243.91l-130.21,64.33c0,0-111.58-410.25-118.99-441.54c-3.3-13.94-13.48-18.98-23.73-20.28
			c18.05-1.64,31.18-1.77,31.18-1.77c35.52,0,67.09,22.63,78.49,56.26c24.86,73.36,70.65,208.63,117.03,346.41
			c12.13-4.85,26.57-10.43,42.5-16.16L1561.18,1243.91z"/>
		<path class="st7" d="M1300.56,1266.13c0,0,420.8-37.26,472.68,12.42c24.09,23.07,37.61,127.53,45.19,232.83
			c9.45,131.35-97,243.75-227.94,241.87l-456.18,0.21L1300.56,1266.13z"/>
		<g>
			<path class="st8" d="M1143.06,758.42c-12.05-2.7-24.55,0.42-33,3.56c1.52-2.96,5.62-5.13,5.62-5.13
				c-5.58,0.84-15.88,9.77-15.88,9.77c-82.98-5.94-61.27,106.94-51.95,131.87c9.3,24.92,18.42,54.1-11.69,88.19
				c-59.24,67.09,26.18,126.54,26.18,126.54c0.68,0.16,51.31,46.55,51.31,46.55c-8.14-19.95,53.48-157.17,92.98-204.7
				c6.62-21.38,1.34-53.96,0.91-56.52c5.5,25.43,5.5,40.64,4.1,49.63C1241.73,896.89,1175,765.57,1143.06,758.42z"/>
			<path class="st9" d="M1461.27,955.42c1.24-1.85,11.73-33.97,22.85-33.35c11.12,0.62,28.41,2.47,32.73,1.24
				c4.32-1.24,18.82-12.18,21.31-9.57c6.18,6.48-7.72,26.56-17.6,29.64c-9.88,3.09-25.94-1.54-29.64,2.16
				c-3.71,3.71-3.09,16.98-3.09,16.98L1461.27,955.42z"/>
			<g>
				<path class="st9" d="M1755.2,1666.21c-1.21,13.1,17.03,16.29,38.16,17.34c21.13,1.05,14.74,5.38,43.7,10.62
					c28.95,5.24,40.56-2.68,42.65-6.59c1.87-3.47-11.6-8.9-25.94-15.03c-1.8-0.77-3.61-1.56-5.42-2.35
					c-16.15-7.1-25.21-21.58-37.79-35.01c-11.92-12.72-23.24-53.43-23.24-53.43l-39.35-8.4c0,0,11.05,36.65,14.88,52.29
					c2.26,9.2-1.07,19.49-4.03,27.32C1757.23,1657.23,1755.62,1661.59,1755.2,1666.21z"/>
				<path class="st10" d="M1793.37,1683.55c21.13,1.05,14.74,5.38,43.7,10.62c28.95,5.24,40.56-2.68,42.65-6.59
					c1.87-3.47-11.6-8.9-25.94-15.03l-0.22,0.24c0,0-20.36,6.91-43.86,0.52c-19.15-5.2-37.67-16.65-50.87-20.34
					c-1.59,4.26-3.2,8.62-3.62,13.24C1754,1679.31,1772.24,1682.5,1793.37,1683.55z"/>
			</g>
			<path class="st11" d="M1363.39,1199.62c0,0,261.46-19.68,310.68,11.39c49.22,31.07,128.17,392.92,128.17,392.92
				s-4.87,3.91-15.75,5.08c-10.12,1.1-32.41-4.86-32.41-4.86s-113.45-161.9-121.45-202.69c-7.99-40.79-6.04-77.18-24.24-78.16
				c-18.2-0.97-245.04,27.58-279.35-32.87c-34.31-60.45-5.95-120.29-5.95-120.29L1363.39,1199.62z"/>
			<path class="st12" d="M1487.37,994.22c-17.77,45.01-60.71,118.36-71.8,121.14c-9.35,2.33-55.06-8.1-92.2-20.78
				c-21.74-7.42-40.52-15.61-47.37-22.45c-18.53-18.53-79.51-127.37-79.51-127.37s57.28-7.26,84.45,8.8
				c27.17,16.06,92.64,90.17,102.52,87.7c9.88-2.47,56.82-85.23,75.34-92.64c0,0,28.41-6.18,35.82,13.59
				C1496.49,967.17,1493.35,979.09,1487.37,994.22z"/>
			<g>
				<path class="st9" d="M1655.16,1708.21c-1.21,13.1,17.03,16.29,38.16,17.34c21.13,1.05,14.74,5.38,43.7,10.62
					c28.95,5.24,40.56-2.68,42.65-6.59c1.87-3.47-11.6-8.9-25.94-15.03c-1.81-0.77-3.61-1.56-5.42-2.35
					c-16.15-7.1-25.21-21.58-37.79-35.01c-11.92-12.72-23.24-53.43-23.24-53.43l-39.35-8.4c0,0,11.05,36.65,14.88,52.29
					c2.26,9.2-1.07,19.49-4.03,27.32C1657.18,1699.23,1655.58,1703.59,1655.16,1708.21z"/>
				<path class="st10" d="M1693.32,1725.55c21.13,1.05,14.74,5.38,43.7,10.62c28.95,5.24,40.56-2.68,42.65-6.59
					c1.87-3.47-11.6-8.9-25.94-15.03l-0.22,0.24c0,0-20.36,6.91-43.86,0.52c-19.15-5.2-37.67-16.65-50.87-20.35
					c-1.59,4.26-3.2,8.62-3.62,13.24C1653.95,1721.31,1672.19,1724.5,1693.32,1725.55z"/>
			</g>
			<path class="st13" d="M1487.37,994.22c-17.77,45.01-60.71,118.36-71.8,121.14c-9.35,2.33-55.06-8.1-92.2-20.78
				c-15.38-13.12-24.81-24.46-26.36-26.76c1.22,0.46,87.81,33.29,104.98,25.93C1417.55,1087.08,1461.59,1011.92,1487.37,994.22z"/>
			<path class="st9" d="M1204.21,957.57c0.28,0.04-20,19.91-39.64,20.49c-18.47,0.56-36.37-18.15-36.15-18.27
				c6.78-3.64,5.83-14.2-7.34-56.8l3.46-0.35l58.21-5.89c0,0,4.03,17.66,8.96,33.94C1195.85,944.36,1200.63,957.06,1204.21,957.57z"
				/>
			<path class="st14" d="M1182.75,896.74c0,0,4.03,17.66,8.96,33.94c-30.98,8.51-55.78-14.55-67.17-28.05L1182.75,896.74z"/>
			<path class="st10" d="M1312.18,1215.83c0,0,232.27,10.99,280.24,43.95c47.98,32.96,112.78,397.61,112.78,397.61
				s-5.02,3.71-15.94,4.47c-10.15,0.7-32.2-6.11-32.2-6.11s-107.07-166.2-113.46-207.27c-6.4-41.07-3.03-77.36-21.18-79.04
				c-18.15-1.68-245.93,18.02-277.86-43.72C1212.62,1263.97,1312.18,1215.83,1312.18,1215.83z"/>
			<path class="st8" d="M1117.04,898.39c0,0-23.86-20.52-34.37-41.09c-7.5-14.68-17.17-74.65,43.2-84.03c0,0,17.3-3.47,36.35,2.37
				c15.15,4.65,38.86,17.42,33.94,73.83l-0.08,18.57L1117.04,898.39z"/>
			<path class="st12" d="M1313.46,1235.58c-2.04,0.01-4.9-0.12-8.26-0.38c-13.57-1.04-35.21-3.94-42.79-6.2
				c-63.91-19.09-125.31-42.65-151.45-125.39c-3.16-10.01-5.8-20.87-7.88-32.71l9.97-37.99l19.44-80.2c0,0,23.91,12.78,46.13,7.86
				c11.38-2.53,17.86-15.8,17.86-15.8s120.28,47.08,161.04,144.66c40.76,97.58,54.75,82.75,67.11,103.75
				C1436.98,1214.18,1382.23,1235.18,1313.46,1235.58z"/>
			<path class="st9" d="M1197.71,909.01c0,0-72.31,23.39-86.18-21.86c-13.87-45.26-32.55-72.71,13.03-89.56
				c45.58-16.85,59.89-2.34,68.19,11.64C1201.06,823.2,1216.17,901.76,1197.71,909.01z"/>
			<path class="st8" d="M1157.32,786.37c0,0-3.68,59.19-31.82,76.37c-28.14,17.18-43.89,13.04-43.89,13.04s17.74-25.76,12.68-59.73
				C1094.3,816.05,1134.59,765.68,1157.32,786.37z"/>
			<path class="st8" d="M1153.71,792.19c0,0,18.48,7.32,25.63,17.74c7.14,10.42,16.02,33.66,22.69,30.74c0,0,3.97-40.68-19.12-55.95
				C1158.43,768.51,1153.71,792.19,1153.71,792.19z"/>
			<path class="st13" d="M1305.2,1235.2c-13.57-1.04-35.21-3.94-42.79-6.2c-63.91-19.09-125.31-42.65-151.45-125.39
				c-0.1-0.61-0.21-1.21-0.32-1.83l8.87-6.98c18.13-14.27,42.59-17.53,63.84-8.56C1233.83,1107.56,1303.18,1146.21,1305.2,1235.2z"
				/>
			<path class="st12" d="M1132.49,952.71c0,0-74.7,11.22-87.05,58.1c-12.35,46.88-23.33,200.03-12.21,212.13
				c11.12,12.1,44.33-1.93,51.74-7.98c7.41-6.05,45.7-161.8,45.7-161.8S1149.39,982.76,1132.49,952.71z"/>
			<path class="st9" d="M1246.22,1167.96c0,0,42.97-8.32,47.82-6.24c4.85,2.08,31.88,26.33,29.11,31.19
				c-2.77,4.85-13.86,8.32-26.34,4.16c-12.47-4.16-39.5-6.24-44.35-12.47C1247.61,1178.35,1246.22,1167.96,1246.22,1167.96z"/>
			<path class="st12" d="M1257.77,1161.95c0,0-167.72-2.77-207.91,23.56c0,0-23.56,24.26-16.63,37.42
				c6.93,13.17,28.41,11.09,38.12,10.4c9.7-0.69,179.5-39.5,179.5-39.5S1270.25,1179.28,1257.77,1161.95z"/>
		</g>
		<path class="st3" d="M1115.02,1208.42c0,0,190.86-59.28,238.8-2.88c42,49.41,155.88,244.98,161.88,360.74
			c5.83,112.48-103.66,186.43-216.29,186.43h-200.03L1115.02,1208.42z"/>
		<path class="st3" d="M1402.06,1566.27c-6-115.76-87.2-300.21-116.72-346.44c-43.05-67.45-228.83-2.67-310.38,29.96
			c-46.38-137.78-92.17-273.05-117.03-346.41c-11.4-33.64-42.97-56.27-78.49-56.27c0,0-132.62-19.59-153.14,157.09
			c-65.69,565.55-12.91,747.92,222.74,749.32c29.55,0.18,87.32-0.35,136.68-0.91l0.01,0.08h200.03
			C1298.4,1752.7,1407.88,1678.75,1402.06,1566.27z"/>
		<path class="st4" d="M1402.06,1565.9c-6-116.1-87.2-301.08-116.72-347.45c-36.65-57.59-176.71-19.08-267.87,13.84
			c-15.93,5.75-30.37,11.34-42.5,16.2c-46.38-138.18-92.17-273.85-117.03-347.42c-11.4-33.73-42.97-56.43-78.49-56.43
			c0,0-13.13,0.12-31.18,1.77c-0.01,0-0.01,0-0.02,0c-29.08,2.65-70.87,9.27-90.91,25.7c-13.59,11.15-22.92,60.07-31.03,130.07
			c-19.16,165.36-28.24,298.07-25.65,403.13c1.32,53.89,5.72,100.49,13.4,140.51c5.37,28.03,12.35,52.83,21.03,74.62
			c37.61,94.53,106.91,132.61,213.95,133.25c12.44,0.07,29.88,0.02,49.59-0.1c27.11-0.17,58.51-0.5,87.09-0.82l0.01,0.09h200.03
			C1298.4,1752.88,1407.89,1678.7,1402.06,1565.9z"/>
		<path class="st3" d="M972.77,1240.77c-30.1,11.82-63.46,24.92-90.45,35.52C855.93,1179.19,778.14,892.64,772,866.69
			c-3.29-13.94-13.47-18.99-23.72-20.27c18.04-1.65,31.18-1.77,31.18-1.77c35.52,0,67.08,22.63,78.49,56.27
			C882.41,973.1,927.14,1105.27,972.77,1240.77z"/>
		<path class="st6" d="M1034.21,1332.89c-14.11-42.27-101.99-29.06-101.99-29.06s-59.67,73.99-77.04,75.74
			c-17.35,1.77,35.81-71.33,35.81-71.33c-33.63-2.64-119.35,30.82-119.35,30.82s5.43,86.31-11.93,84.56c-17.35-1.77,0-76.63,0-76.63
			c-32.55,7.93-62.93,38.76-62.93,38.76c-37.97,50.2,43.4,87.19,43.4,87.19s1.09,29.94-21.7,64.29c0,0-28.64,35.31-19.45,80.98
			h-25.21c4.83-32.87-15.39-57.79-15.39-57.79c-17.28-26.06-16.45-48.78-16.45-48.78s61.72-28.06,32.92-66.14
			c0,0-23.05-23.39-47.74-29.4c0,0,13.17,56.78,0,58.13c-13.17,1.33-9.05-64.14-9.05-64.14s-7.05-2.76-17.44-6.39
			c1.32,53.73,5.72,100.2,13.4,140.1c7.63-3.06,13.49-7.06,16.39-12.12c0.49-0.88,0.98-1.7,1.43-2.51
			c-0.69,1.66-1.43,2.51-1.43,2.51c5.92,2.8,14.8,16.18,20.96,26.43c0.88,1.75,2.27,4.16,4.32,7.42c0.84,1.49,1.52,2.72,1.98,3.57
			c7.11,14.44,7.39,35.46,6.61,49.1h-91.52v3.96h5.32c1.95,52.63,42.61,97.34,99.65,116.04H595.5c-10.87,0-19.68,7.15-19.68,15.97
			h323.2c0-1.1-0.14-2.17-0.4-3.21c-1.83-7.27-9.76-12.76-19.27-12.76h-82.26c57.04-18.7,97.69-63.41,99.65-116.04h3.71v-3.96
			H730.57c3.93-6.99,8.72-13.83,14.34-18.82c0.65-0.54,1.52-1.26,2.57-2.12c2.78-2.09,4.72-3.66,6.04-4.83
			c8.55-6.67,20.38-15.18,26.07-16c0,0-0.28-0.85-0.23-2.33c0.07,0.75,0.16,1.52,0.23,2.33c1.95,18.56,46.34,34.79,73.65,38.13
			c27.31,3.34,18.87-5.78,9.46-19.29c-9.41-13.51-39.19-19.55-45.98-25.78c-6.79-6.23,7.25-6.24,23.71-0.14
			c16.45,6.1,18.7,22.37,45.1,32.62c26.4,10.26,66.12-25.28,66.12-25.28c-21.03-0.88-51.07-19.42-49.99-25.09
			c1.09-5.68,50.99,9.78,59.52,10.52c8.53,0.74,27.94-7.87,30.94-35.77c3.01-27.89-53.32-35.67-53.32-35.67s-12.99,7.84-27.67,15.74
			c-2.89-3.05-7.6-6.42-13.09-10.19c4.84-3.48,9.2-6.47,11.91-8.31c5.42,1.2,11.34,2.11,17.93,2.63
			c45.56,3.52,80.28-66.06,80.28-66.06c-31.46,7.93-87.88-6.16-90.05-14.97c-2.17-8.81,81.37-7.93,94.39-10.57
			C1025.54,1396.3,1048.31,1375.17,1034.21,1332.89z M755.36,1499.34c-0.11-0.14-1.04-1.25-1.89-3.3
			C754.07,1497.1,754.7,1498.18,755.36,1499.34z M747.18,1592.55c0,0-14.95,8.99-25.37,25.64h-10.78
			c-1.33-17.49-1.85-48.7,8.4-69.52c0.61-1.12,1.48-2.72,2.59-4.68c1.36-2.16,2.49-4.04,3.45-5.67c0.94-1.62,1.68-2.99,2.26-4.14
			c8.13-13.52,19.84-31.15,27.64-34.84c1.93,3.36,4.87,6.37,8.57,9.05c-14.82,22.42,13.71,49.44,13.71,49.44
			S770.18,1576.02,747.18,1592.55z M867.03,1481.66c-23.33-5.23-51.47-4.25-61.76-8.73c-14.11-6.18,6.51-12.34,34.72-10.57
			c18.98,1.19,31.58,11.93,51.67,19.91C883.84,1481.71,875.2,1481.58,867.03,1481.66z"/>
		<g>
			<g>
				<path class="st1" d="M726.7,1512.31c0,0-38.81-45.27-2.39-74.03c0,0,26.6-16.1,48.29-14.79c0,0-30.73,51.53-20.79,56.66
					c9.94,5.13,30.1-59.89,30.1-59.89s60.53-5.87,80,3.49c0,0-51.74,42.34-40.85,44.87c10.9,2.52,66.79-39.04,66.79-39.04
					s56.34,9.59,53.33,43.95c-3,34.37-22.42,44.98-30.95,44.06c-8.53-0.91-58.44-19.96-59.53-12.97
					c-1.09,6.99,28.95,29.84,49.99,30.9c0,0-39.72,43.8-66.11,31.16c-26.4-12.64-28.65-32.68-45.1-40.2
					c-16.45-7.52-30.5-7.5-23.71,0.17c6.79,7.67,36.57,15.12,45.98,31.76c9.41,16.64,17.85,27.87-9.46,23.76
					c-27.31-4.11-71.7-24.09-73.65-46.98S726.7,1512.31,726.7,1512.31z"/>
				<path class="st1" d="M913.5,1474.44c0,0-153.01-5.9-186.8,37.86c0,0-7.47,22.38-30.47,42.76c0,0-32.84,24.29-35.12,67.69
					l5.96,0.53c0,0,9.45-40.42,26.62-59.54c0.67-0.69,1.64-1.69,2.84-2.89c2.79-2.58,4.73-4.51,6.04-5.95
					c8.55-8.22,20.38-18.7,26.08-19.72C728.65,1535.19,713.81,1480.98,913.5,1474.44z"/>
			</g>
			<g>
				<path class="st2" d="M591.02,1455.37c0,0,61.73-34.57,32.92-81.49c0,0-23.05-28.81-47.74-36.22c0,0,13.17,69.96,0,71.61
					c-13.17,1.65-9.05-79.02-9.05-79.02s-65.02-31.28-90.54-28.81c0,0,40.33,68.32,27.16,66.67c-13.17-1.65-58.44-70.79-58.44-70.79
					s-66.67-12.35-77.37,27.16c-10.7,39.51,6.58,59.26,16.46,61.73c9.88,2.47,73.26,1.65,71.61,9.88
					c-1.65,8.23-44.45,21.4-68.32,13.99c0,0,26.34,65.02,60.91,61.73c34.57-3.29,45.27-24.69,66.67-26.34
					c21.4-1.65,37.04,4.12,26.34,9.88c-10.7,5.76-46.92,1.89-64.2,16.58c-17.29,14.7-31.28,23.75,0.82,30.33
					s89.72,2.47,101.24-22.22C591.02,1455.37,591.02,1455.37,591.02,1455.37z"/>
				<path class="st1" d="M607.48,1515.46c-17.29-32.1-16.46-60.09-16.46-60.09c-19.75-62.56-192.6-118.53-192.6-118.53
					c219.77,88.9,181.08,143.22,181.08,143.22c5.92,3.45,14.8,19.93,20.97,32.57c0.88,2.15,2.27,5.13,4.33,9.17l0,0
					c0.84,1.83,1.51,3.32,1.97,4.36c11.32,28.31,5.32,77.2,5.32,77.2l6.86,1.84C634.14,1555.93,607.48,1515.46,607.48,1515.46z"/>
			</g>
			<g>
				<path class="st2" d="M689.23,1407.69c0,0-81.37-45.57-43.4-107.41c0,0,30.38-37.98,62.93-47.74c0,0-17.36,92.22,0,94.4
					c17.36,2.17,11.93-104.16,11.93-104.16s85.71-41.23,119.35-37.97c0,0-53.16,90.05-35.8,87.88
					c17.36-2.17,77.03-93.31,77.03-93.31s87.88-16.28,101.99,35.8c14.1,52.08-8.68,78.12-21.7,81.37
					c-13.02,3.25-96.56,2.17-94.39,13.02c2.17,10.85,58.59,28.21,90.05,18.44c0,0-34.72,85.71-80.29,81.37
					c-45.57-4.34-59.67-32.55-87.88-34.72c-28.21-2.17-48.82,5.42-34.72,13.02c14.1,7.59,61.84,2.49,84.63,21.86
					c22.78,19.37,41.23,31.31-1.08,39.98c-42.31,8.68-118.26,3.26-133.45-29.29C689.23,1407.69,689.23,1407.69,689.23,1407.69z"/>
				<path class="st1" d="M943.12,1251.45c0,0-227.85,73.78-253.89,156.24c0,0,1.09,36.89-21.7,79.2c0,0-35.14,53.36-15.11,118.31
					l9.04-2.43c0,0-7.9-64.45,7.01-101.77c0.61-1.38,1.49-3.35,2.6-5.76c2.72-5.33,4.55-9.25,5.71-12.08
					c8.12-16.66,19.83-38.38,27.64-42.93C704.42,1440.24,653.42,1368.63,943.12,1251.45z"/>
			</g>
			<path class="st12" d="M527.09,1586.66c0,88.03,71.37,159.4,159.4,159.4c88.03,0,159.4-71.37,159.4-159.4H527.09z"/>
			<path class="st15" d="M725.71,1744.84c-6.48,0.81-13.09,1.22-19.8,1.22c-88.03,0-159.39-71.37-159.39-159.4h39.6
				C586.11,1667.99,647.02,1735.09,725.71,1744.84z"/>
			<path class="st13" d="M828.42,1734.51H544.55c-10.86,0-19.67,8.8-19.67,19.67h323.2
				C848.09,1743.31,839.28,1734.51,828.42,1734.51z"/>
			<rect x="521.85" y="1586.66" class="st13" width="327.67" height="4.89"/>
		</g>
	</g>
	<g>
		<path class="st3" d="M2608.62,1278.61v153.07c0,26.89-7.6,48.65-16.99,48.65h-299.76c-9.39,0-16.99-21.76-16.99-48.65v-153.07
			c0-26.89,26.49-51.8,104.19-50.94l212.55,2.29C2601.02,1229.96,2608.62,1251.72,2608.62,1278.61z"/>
		<path class="st5" d="M2648.33,1278.61v153.07c0,26.89-7.6,48.65-16.99,48.65h-299.76c-9.39,0-16.99-21.76-16.99-48.65v-153.07
			c0-26.89,28.22-52.67,71.39-51.8l245.36,3.15C2640.74,1229.96,2648.33,1251.72,2648.33,1278.61z"/>
		<path class="st3" d="M2574.42,1095.02c4.08-9.02-2.04-385.82,89.83-381.31c91.87,4.51,263.36,9.02,263.36,9.02
			s77.58,6.77,30.62,191.78c-46.96,185.01-36.75,478.33-36.75,478.33h-338.9L2574.42,1095.02z"/>
		<path class="st5" d="M2892.88,914.55c-5.66,22.1-10.36,45.72-14.5,70.17c-16.58,99.04-21.69,211.9-22.93,293.82
			c-0.97,67.69,0.69,114.24,0.69,114.24h-338.85l-8.15-297.82c4.01-8.98-2.07-385.82,89.79-381.26
			c46.97,2.35,114.79,4.56,169.77,6.35c6.91,0.14,13.67,0.41,20.17,0.55c42.55,1.24,73.49,2.07,73.49,2.07
			S2939.84,729.45,2892.88,914.55z"/>
		<path class="st4" d="M2680.04,1670.38v-198.75c0-8.43-7.05-15.47-15.47-15.47h-0.14c-2.76,0-5.39,0.83-7.6,2.21
			c-4.7,2.63-7.87,7.6-7.87,13.26v199.02c-0.6,0.1-1.2,0.2-1.8,0.31c-44.48,6.91-80.67,39.51-92.83,82.19h221.99
			C2763.82,1709.39,2726.19,1676.27,2680.04,1670.38z"/>
		<path class="st6" d="M2878.1,978.78c-8.29-127.09-74.73-235.8-89.24-258.18l-145.6-14.4c0,0-112.24,74.25-84.61,360.02
			c14.25,147.36,75.01,50.85,130.53-77.22l-11.39,277.51c0,0,135.51,9.26,177.64,12.02c1.24-81.92,6.35-194.77,22.93-293.82
			C2878.37,982.79,2878.23,980.72,2878.1,978.78z"/>
		<path class="st3" d="M2656.83,1458.37c-4.7,2.63-7.87,7.6-7.87,13.26v243.54c0,5.8,3.18,10.77,7.87,13.26
			c4.56-2.62,7.74-7.6,7.74-13.26v-243.54C2664.57,1465.97,2661.39,1460.99,2656.83,1458.37z"/>
		<path class="st3" d="M2647.16,1670.96c-44.48,6.91-80.67,39.51-92.83,82.19h185.66
			C2727.83,1710.47,2691.78,1677.87,2647.16,1670.96z"/>
		<path class="st3" d="M2926.34,1409.88l-7.66,43.99c0,9.39,0.06,26.46-9.33,26.46h-527.68c-9.39,0-16.99-7.6-16.99-16.99v-53.46
			c0-9.39,7.6-16.99,16.99-16.99h527.68C2918.74,1392.89,2926.34,1400.49,2926.34,1409.88z"/>
		<g>
			<path class="st16" d="M2291.6,1721.13c0.97,4.7,1.93,9.53,1.66,14.5c-0.69,2.76-2.49,4.84-5.11,6.49l-2.49,4.7
				c-2.63,1.24-8.98,2.21-17.13,3.04l-0.14-3.87c-1.11,0-2.21,0-3.32,0.14V1746c-9.67,0.14-21.69,0.97-36.33,6.77
				c-0.14,0-0.28,0.14-0.42,0.14c-2.62,0.14-5.25,0.28-7.6,0.41h-35.64c-17.13-2.49-23.9-9.39-25.14-12.85
				c0-0.97,12.85-7.32,23.48-10.36c0.14,0,0.41-0.14,0.83-0.14c1.52-0.55,4.42-1.66,5.11-1.8c1.93-0.69,4.14-1.24,6.08-1.79
				c17.82-5.25,29.84-17.13,43.93-30.25c16.16-15.06,38.13-82.19,35.23-83.43l36.33,4.69c0,0-29.15,58.3-26.8,76.39
				c0.97,8.01,3.87,14.78,5.8,21.69c0.14,0.28,0.14,0.69,0.28,0.97c0.41,0.97,0.69,1.93,0.97,2.9
				C2291.32,1720.03,2291.46,1720.58,2291.6,1721.13z"/>
			<path class="st17" d="M2748.78,1216.99l-156.25-6.39c0,0-237.64,15.34-257.79,49.88l-89.62,419.16c0,0,4.96,6.69,21.8,9.57
				c8.9,1.53,28.28-2.88,28.28-2.88s116.05-148.4,130.97-241.57c12.47-77.86,17.4-86,60.08-84.38
				c42.69,1.62,173.67,11.93,235.91-0.12C2784.4,1348.21,2748.78,1216.99,2748.78,1216.99z"/>
			<g>
				<path class="st18" d="M2293.94,1731.77c0,1.38-0.14,2.76-0.69,3.87c-0.69,2.76-2.49,4.84-5.11,6.49
					c-0.28,0.28-0.55,0.42-0.83,0.55c0,0,0,0-0.14,0c-0.14,0.14-0.28,0.14-0.41,0.28c-4.56,2.76-10.64,2.76-18.37,3.04h-3.32
					c-9.67,0.14-21.69,0.97-36.33,6.77c-0.14,0-0.28,0.14-0.42,0.14c-0.41,0.14-0.69,0.28-1.1,0.41h-60.37
					c-8.29-3.31-9.95-8.56-10.77-10.5c-0.69-1.52,1.24-3.18,4.97-4.97c0.28-0.14,0.69-0.28,0.97-0.55
					c5.25-2.35,13.12-4.83,21.55-7.6c0.14,0.14,0.41,0.14,0.69,0.28c5.66,1.93,25.42,8.15,48.62,3.73
					c19.34-3.73,38.54-12.85,53.32-17.27c1.24-0.28,2.49-0.69,3.73-0.97c0.28-0.14,0.55-0.14,0.83-0.28
					c0.28,0.55,0.41,1.24,0.55,1.8C2292.7,1721.69,2293.94,1726.66,2293.94,1731.77z"/>
				<polygon class="st18" points="2288.97,1740.61 2288.14,1742.13 2285.66,1746.83 2282.2,1753.32 2265.21,1753.32 
					2265.21,1749.87 2265.07,1746.14 2265.07,1744.48 2288,1740.75 				"/>
			</g>
			<path class="st9" d="M2344.55,1721.13c0.97,4.7,1.93,9.53,1.66,14.5c-0.69,2.76-2.49,4.84-5.11,6.49l-2.49,4.7
				c-2.62,1.24-8.98,2.21-17.13,3.04l-0.14-3.87c-1.1,0-2.21,0-3.31,0.14V1746c-9.67,0.14-21.69,0.97-36.33,6.77
				c-0.14,0-0.28,0.14-0.41,0.14c-2.63,0.14-5.25,0.28-7.6,0.41h-35.64c-17.13-2.49-23.9-9.39-25.14-12.85
				c0-0.97,12.85-7.32,23.48-10.36c0.14,0,0.41-0.14,0.83-0.14c1.52-0.55,4.42-1.66,5.11-1.8c1.93-0.69,4.15-1.24,6.08-1.79
				c17.82-5.25,29.84-17.13,43.93-30.25c16.16-15.06,38.13-82.19,35.23-83.43l36.33,4.69c0,0-29.15,58.3-26.8,76.39
				c0.97,8.01,3.87,14.78,5.8,21.69c0.14,0.28,0.14,0.69,0.28,0.97c0.41,0.97,0.69,1.93,0.97,2.9
				C2344.27,1720.03,2344.41,1720.58,2344.55,1721.13z"/>
			<path class="st19" d="M2653.99,829.3l-12.16,48.27l-63.86,252.31c-2.44,3.8-22.77,11.84-45.27,19.39
				c-26.78,8.95-56.7,17.4-62.35,16.9c-10.36-0.84-16.09-22.48-13.14-28.58c1.91-4.03,36.06-22.14,62.76-38.38
				c14.9-9.06,27.47-17.52,30.94-22.55c6.27-9.34,21.88-95.25,34.59-158.12c6.49-32.25,12.28-58.46,15.63-65.34
				c8.5-17.93,41.62-22.78,50.58-23.71C2653.15,829.31,2653.99,829.3,2653.99,829.3z"/>
			<path class="st20" d="M2790.11,1217.13l-156.25-6.39c0,0-237.64,15.34-257.8,49.89l-82.81,427.43c0,0,14.45,4.93,23.53,5.61
				c14.46,1.08,24.39-3.67,24.39-3.67s111.41-151.92,126.33-245.09c12.47-77.86,17.4-86,60.08-84.38
				c42.69,1.62,173.67,11.93,235.91-0.12C2825.73,1348.35,2790.11,1217.13,2790.11,1217.13z"/>
			<g>
				<path class="st19" d="M2346.9,1731.77c0,1.38-0.14,2.76-0.69,3.87c-0.69,2.76-2.49,4.84-5.11,6.49
					c-0.28,0.28-0.55,0.42-0.83,0.55c0,0,0,0-0.14,0c-0.14,0.14-0.28,0.14-0.41,0.28c-4.56,2.76-10.64,2.76-18.37,3.04h-3.31
					c-9.67,0.14-21.69,0.97-36.33,6.77c-0.14,0-0.28,0.14-0.41,0.14c-0.41,0.14-0.69,0.28-1.11,0.41h-60.37
					c-8.29-3.31-9.95-8.56-10.77-10.5c-0.69-1.52,1.24-3.18,4.97-4.97c0.28-0.14,0.69-0.28,0.97-0.55
					c5.25-2.35,13.12-4.83,21.55-7.6c0.14,0.14,0.42,0.14,0.69,0.28c5.66,1.93,25.42,8.15,48.62,3.73
					c19.34-3.73,38.54-12.85,53.32-17.27c1.24-0.28,2.49-0.69,3.73-0.97c0.28-0.14,0.55-0.14,0.83-0.28
					c0.28,0.55,0.41,1.24,0.55,1.8C2345.65,1721.69,2346.9,1726.66,2346.9,1731.77z"/>
				<polygon class="st19" points="2341.92,1740.61 2341.1,1742.13 2338.61,1746.83 2335.16,1753.32 2318.16,1753.32 
					2318.16,1749.87 2318.03,1746.14 2318.03,1744.48 2340.96,1740.75 				"/>
			</g>
			<path class="st21" d="M2732.15,761.46c74.93-5.69,89.59-159.49,0.44-140.76c0,0-12.49-8.17-18.67-8.25c0,0,4.77,1.74,6.86,4.73
				c-9.63-2.15-24.57-5.64-36.33,1.03C2563.89,686.61,2703.11,763.67,2732.15,761.46z"/>
			<path class="st9" d="M2647.6,843.35c-0.3,0.08,24.65,18.64,46.04,16.36c20.12-2.13,36.77-25.08,36.51-25.18
				c-7.9-2.94-8.43-14.54-0.45-62.71l-3.81,0.13l-64.03,2.23c0,0-1.75,19.75-4.69,38.15C2654.71,827.78,2651.4,842.27,2647.6,843.35
				z"/>
			<path class="st20" d="M2641.83,877.57l-63.86,252.31c-2.44,3.8-22.77,11.84-45.27,19.39c-1.91-4.65-3.7-9.98-5.41-15.85
				c-3.41-11.75-5.89-23.21-7.33-34.21c14.9-9.06,27.47-17.52,30.94-22.55c6.27-9.34,21.88-95.25,34.59-158.12
				c28.63-28.1,55.63-41.92,55.63-41.92L2641.83,877.57z"/>
			<path class="st16" d="M2661.87,774.18c0,0-1.75,19.75-4.69,38.15c34.88,4.65,58.36-24.04,68.73-40.38L2661.87,774.18z"/>
			<path class="st21" d="M2733.4,766.23c0,0,22.85-25.8,31.21-49.67c5.96-17.04,7.57-83.54-59.32-84.77c0,0-19.29-1.21-39.09,7.95
				c-15.75,7.28-39.58,24.66-25.88,85.13l2.84,20.14L2733.4,766.23z"/>
			<path class="st9" d="M2647.45,789.71c0,0,81.92,14.67,90.27-36.48c8.35-51.16,24.55-83.71-27.4-95.24
				c-51.95-11.53-65.32,6.33-72.26,22.72C2631.11,697.1,2626.35,784.58,2647.45,789.71z"/>
			<path class="st21" d="M2673.11,650.66c0,0,12.76,63.67,45.83,78.14c33.07,14.47,49.54,7.65,49.54,7.65s-23.06-25.32-22.61-62.92
				C2745.88,673.53,2694.71,624.85,2673.11,650.66z"/>
			<path class="st21" d="M2677.89,656.44c0,0-18.97,10.68-25.17,23.04c-6.21,12.37-12.4,38.89-20.07,36.71
				c0,0-10.33-43.55,12.45-63.54C2669.27,631.45,2677.89,656.44,2677.89,656.44z"/>
			<path class="st19" d="M2796.56,1294.77c-6.51,11.68-20.66,12.61-38.44,7.48c-8.57-2.37-17.88-6.26-27.64-10.78
				c-0.89-0.56-1.93-1.01-2.84-1.44c-28.79-14.04-60.9-35.2-86-51.31c-52.61-33.72-56.09-14.83-71.68-33.45
				c0,0,16.03-16.85-4.53-213.73c-5.84-56.36,88.58-162.24,88.58-162.24s0.63,34.95,76.12,5.2c2.68-0.97,23.31,43.52,41.33,97.24
				c2.95,8.59,5.73,17.3,8.36,26.12c12.56,41.64,21.88,85.13,19.36,115.37c-0.6,7.18-1.8,13.7-3.8,19.11
				c-0.22,0.52-0.45,1.05-0.67,1.57C2768.79,1156.2,2815.17,1261.12,2796.56,1294.77z"/>
			<g>
				<polygon class="st22" points="2536.84,1048.77 2397.7,1038.82 2457.28,1201.04 2587.57,1214.56 				"/>
				<polygon class="st23" points="2535.6,1050.52 2396.46,1040.58 2456.05,1202.8 2586.34,1216.31 				"/>
				<path class="st24" d="M2523.08,1047.79c0,0,3.35-21.02-8.5-21.45c-11.85-0.43-18.78,20.11-18.78,20.11L2523.08,1047.79z"/>
				<path class="st25" d="M2500.81,1066.82c3.31,14.96,22.45,39.43,21.3,51.8l-88.93-1.15c0,0,0.58-5.76-18.42-46.62
					c-7.81-16.8,1.43-47.17,9.45-47.85l90.34,3.32C2514.55,1026.31,2494.36,1037.67,2500.81,1066.82z"/>
				<polygon class="st22" points="2397.7,1038.82 2396.46,1040.58 2399.53,1040.77 2399.26,1039.69 				"/>
				<polygon class="st22" points="2586.34,1216.31 2587.57,1214.56 2585.22,1212.74 				"/>
			</g>
			<path class="st20" d="M2796.56,1294.77c-6.51,11.68-20.66,12.61-38.44,7.48c-8.57-2.37-17.88-6.26-27.64-10.78
				c-34.57-22.4-71.59-58.21-92.37-115.59c-46.69-128.9,132.87-222.24,132.87-222.24l8.83,4.23
				c12.56,41.64,21.88,85.13,19.36,115.37c-0.6,7.18-1.8,13.7-3.8,19.11c-0.22,0.52-0.45,1.05-0.67,1.57
				C2768.79,1156.2,2815.17,1261.12,2796.56,1294.77z"/>
			<g>
				<g>
					
						<rect x="2610.69" y="1074.94" transform="matrix(0.8154 0.579 -0.579 0.8154 1132.0267 -1306.3926)" class="st4" width="6.91" height="93.24"/>
				</g>
				<polygon class="st3" points="2584.34,1157.58 2583.9,1164.35 2589.97,1161.58 				"/>
			</g>
			<path class="st9" d="M2656.33,1124.81c0,0-24.35-10.12-36.71-7.27c-12.36,2.84-37.48,11.1-36.38,17.89
				c1.1,6.79,28.02,14.67,40.65,10.11c12.63-4.56,19.9,4.99,34.83,2.56C2673.66,1145.68,2656.33,1124.81,2656.33,1124.81z"/>
			<path class="st19" d="M2730.15,834.53c0,0,76.68,13.02,86.23,33.23c9.55,20.21,3.2,232-2.75,254.36
				c-5.96,22.36-129.82,32.89-166.92,31.54c0,0-5.84-25.14,1.1-39.18c6.94-14.04,98.61-29.2,106.14-39.64
				c7.52-10.44-15.05-139.17-12.13-164.36C2744.74,885.3,2730.15,834.53,2730.15,834.53z"/>
			<path class="st9" d="M2429.67,1132.9c0,0,25.32-2.45,21.89,7.92c-3.43,10.38-12.99,15.39-12.99,15.39
				S2419,1142.11,2429.67,1132.9z"/>
		</g>
		<path class="st3" d="M2886.62,1278.61v153.07c0,26.89-7.6,48.65-16.99,48.65h-299.76c-9.39,0-16.99-21.76-16.99-48.65v-153.07
			c0-26.89,23.9-53.53,105.92-48.65h210.83C2879.02,1229.96,2886.62,1251.72,2886.62,1278.61z"/>
		<path class="st7" d="M2926.34,1278.61v153.07c0,26.89-7.6,48.65-16.99,48.65h-299.76c-9.39,0-16.99-21.76-16.99-48.65v-153.07
			c0-26.89,25.63-50.94,86.06-48.65l214.11-1.42C2926.44,1228.53,2926.34,1251.72,2926.34,1278.61z"/>
	</g>
	<g>
		<path class="st13" d="M3241.65,1346.31h-389.73c-9.27,0-16.85,7.58-16.85,16.85v6.04c0,9.27,7.58,16.85,16.85,16.85h179.74
			l10.08,308.53c-49.71,1.57-90.77,26.2-101.58,58.87h213.24c-10.73-32.42-51.23-56.9-100.41-58.82l8.94-308.59h179.72
			c9.27,0,16.85-7.58,16.85-16.85v-6.04C3258.51,1353.89,3250.92,1346.31,3241.65,1346.31z"/>
		<g>
			<path class="st12" d="M3022.29,1313.89c-2.48-1.53-7.31-0.93-10.81-0.2v-5.07c0-1.12-0.08-2.22-0.22-3.31h-52.49
				c-0.14,1.08-0.22,2.19-0.22,3.31v10.3c0,14.55,11.91,26.46,26.46,26.46c7.88,0,14.98-3.5,19.84-9.01l0,0.01
				c0,0,12.49-3.07,16.41-7.73C3025.19,1323.99,3026.46,1316.46,3022.29,1313.89z M3019.52,1323.41c-1.32,3.42-7.28,5.27-10.22,5.98
				c1.18-2.7,1.91-5.64,2.11-8.71c1.81-2.48,4.67-3.93,6.77-3.55C3020.06,1317.47,3021.2,1319.08,3019.52,1323.41z"/>
			<path class="st26" d="M2962.86,1308.62v10.3c0,14.55,11.9,26.46,26.45,26.46c1.2,0,2.4-0.09,3.56-0.26
				c-12.88-1.74-22.9-12.86-22.9-26.21v-10.3c0-1.12,0.07-2.22,0.21-3.31h-7.11C2962.94,1306.39,2962.86,1307.5,2962.86,1308.62z"/>
			<rect x="2974.2" y="1343.07" class="st12" width="21.6" height="3.23"/>
		</g>
		<g>
			<path class="st12" d="M3161.29,1313.89c-2.48-1.53-7.31-0.93-10.81-0.2v-5.07c0-1.12-0.08-2.22-0.22-3.31h-52.49
				c-0.14,1.08-0.22,2.19-0.22,3.31v10.3c0,14.55,11.91,26.46,26.46,26.46c7.88,0,14.98-3.5,19.84-9.01l0,0.01
				c0,0,12.49-3.07,16.41-7.73C3164.19,1323.99,3165.46,1316.46,3161.29,1313.89z M3158.52,1323.41c-1.33,3.42-7.28,5.27-10.22,5.98
				c1.18-2.7,1.91-5.64,2.11-8.71c1.81-2.48,4.67-3.93,6.77-3.55C3159.06,1317.47,3160.2,1319.08,3158.52,1323.41z"/>
			<path class="st26" d="M3101.86,1308.62v10.3c0,14.55,11.9,26.46,26.45,26.46c1.2,0,2.4-0.09,3.56-0.26
				c-12.88-1.74-22.9-12.86-22.9-26.21v-10.3c0-1.12,0.08-2.22,0.22-3.31h-7.11C3101.94,1306.39,3101.86,1307.5,3101.86,1308.62z"/>
			<rect x="3113.2" y="1343.07" class="st12" width="21.6" height="3.23"/>
		</g>
	</g>
	<path class="st27" d="M3312.46,1760.3H204.13c-1.63,0-2.97-1.34-2.97-2.97v-1.04c0-1.63,1.34-2.97,2.97-2.97h3108.33
		c1.63,0,2.97,1.34,2.97,2.97v1.04C3315.43,1758.96,3314.09,1760.3,3312.46,1760.3z"/>
</g>
</svg>
