<svg xmlns="http://www.w3.org/2000/svg" xmlns:xlink="http://www.w3.org/1999/xlink" viewBox="0 0 1200 630"><defs><style>.cls-1,.cls-17,.cls-19,.cls-27,.cls-28{fill:none;}.cls-2{isolation:isolate;}.cls-3{fill:#f5fcff;}.cls-4{clip-path:url(#clip-path);}.cls-5{fill:#6697e3;opacity:0.56;}.cls-6{fill:#92c4ff;}.cls-7{fill:#c5ddff;}.cls-8{fill:#ffbab7;}.cls-18,.cls-9{fill:#ed8a8d;mix-blend-mode:multiply;}.cls-9{opacity:0.26;}.cls-10,.cls-12{fill:#2d122d;}.cls-10{opacity:0.06;}.cls-11{fill:#3c3050;}.cls-12{opacity:0.16;}.cls-13{fill:#fcf8fa;}.cls-14{fill:#2d698f;}.cls-15{fill:#ffc2b1;}.cls-16{fill:url(#linear-gradient);}.cls-17,.cls-19{stroke:#3c3050;stroke-width:2.5px;}.cls-17{stroke-linecap:round;stroke-linejoin:round;}.cls-18{opacity:0.38;}.cls-19,.cls-27,.cls-28{stroke-miterlimit:10;}.cls-20{fill:#488fd0;}.cls-21{fill:#fff;}.cls-22{fill:#d8e7ea;}.cls-23{fill:#307faf;}.cls-24{fill:#5597b6;}.cls-25{fill:#faf7fa;}.cls-26{fill:#c3d4e2;}.cls-27,.cls-28{stroke:#c3d4e2;}.cls-27{stroke-width:0.75px;}.cls-29{fill:#f8fbff;}.cls-30{fill:#2e64e0;}.cls-31{fill:#8ec0ff;}.cls-32{fill:#3e77dd;}</style><clipPath id="clip-path"><rect class="cls-1" x="80.05" width="1262.9" height="663.02"/></clipPath><linearGradient id="linear-gradient" x1="1141.91" y1="298.15" x2="1143.94" y2="340.17" gradientTransform="translate(497.97 -673.53) rotate(51.33)" gradientUnits="userSpaceOnUse"><stop offset="0" stop-color="#ef9593"/><stop offset="0.99" stop-color="#ef9593" stop-opacity="0"/></linearGradient></defs><g class="cls-2"><g id="BACKGROUND"><rect class="cls-3" width="1200" height="630"/></g><g id="OBJECTS"><g class="cls-4"><path class="cls-5" d="M845.64,221.47a9,9,0,0,0-4.19-6.83c-4.48-2.94-9.65-1.37-14.15.56q-5.06,2.18-9.92,4.73A149.14,149.14,0,0,0,766,264.86c2-6.32,3.87-12.68,6.36-18.79a46.57,46.57,0,0,1,11.26-16.73c5-4.72,11.45-7.6,17.63-11.06a48.41,48.41,0,0,0,9.23-6.52,60.15,60.15,0,0,0,7.61-8.93c4.75-6.5,9.24-13.21,13.84-19.82l7.11-10.2c2.39-3.44,4.76-7.16,3.9-11.55-.79-4-4.23-7.31-8.45-7-3.49.22-7.17,2.63-10.18,4.29a106.33,106.33,0,0,0-48.67,58.31c-1,3-1.88,6-2.6,9a4.77,4.77,0,0,0,0,1.88,54.32,54.32,0,0,0-4.85,7c-.08-.55-.17-1.11-.25-1.67,0-.3-.09-.6-.13-.9,0-.11-.07-.51-.09-.69a39.31,39.31,0,0,1-.2-8.74c0-.2.08-.58.09-.65.07-.39.15-.78.24-1.16.16-.64.34-1.28.55-1.91.12-.38.26-.75.4-1.12,0-.06.2-.5.27-.67.28-.65.57-1.29.87-1.93a74.08,74.08,0,0,0,3.77-9.07,50.81,50.81,0,0,0,2-9.54,48.84,48.84,0,0,0-1.42-18.56c-.88-3.2-2.4-6.5-5.59-8-3.38-1.56-6.81-1-10.1.47a28.5,28.5,0,0,0-7,5,47.77,47.77,0,0,0-6.26,6.77c-7.94,10.44-7.42,24-4.21,36.15,3.59,13.54,10.6,25.86,17.54,37.91a4,4,0,0,0,.58.77c-.73,2.3-1.44,4.6-2.18,6.88l-7.5,23.46q-1.28,4-2.57,8c-1.31-2.83-2.85-5.56-4.31-8.32-.81-1.53-1.6-3.07-2.31-4.64L740,282l-.51-1.28c-.34-.89-.65-1.79-1-2.69-1.21-3.62-2.18-7.32-3.34-10.95a66.75,66.75,0,0,0-23.91-33.55c-2.91-2.15-6.5-5-10.28-5-4.3,0-7.21,3.3-8.4,7.15-.92,3-.85,6.34-.76,9.44a75.53,75.53,0,0,0,1,10,69.9,69.9,0,0,0,15.93,34.16,59.14,59.14,0,0,0,14.41,12.15c2.78,1.67,5.72,3,8.62,4.45,1.47.72,2.94,1.46,4.36,2.28.71.4,1.4.82,2.08,1.26.29.19.58.38.86.58l.56.4.16.11a14.7,14.7,0,0,1,2,1.75A184.81,184.81,0,0,0,737,333.55c-2.54,16-1.61,31.88.64,47.82a95.26,95.26,0,0,0-9.47-9.27,77,77,0,0,1-7.32-7.24c-.28-.33-.56-.66-.83-1l-.12-.15-.17-.24c-.54-.76-1.06-1.54-1.53-2.34s-1-1.81-1.48-2.75c-.2-.41-.39-.82-.58-1.23l-.32-.72a.24.24,0,0,0,0-.07.89.89,0,0,1,0-.13c-1.63-4-3-8.17-4.77-12.16a61.83,61.83,0,0,0-5.36-9.69,69.35,69.35,0,0,0-16.25-16.93,52.06,52.06,0,0,0-9.47-5.76c-2.6-1.17-5.46-1.94-8.29-1.05a9.51,9.51,0,0,0-5.11,4c-2,3.07-2.17,7.08-1.86,10.61a73.82,73.82,0,0,0,1.87,11.43,74.72,74.72,0,0,0,23,37.86,86.11,86.11,0,0,0,21.1,13.23c8.32,3.82,16.87,7.14,25.33,10.62l4.73,2q.6,3.47,1.21,6.92c1.36,7.63,2.86,15.25,4.93,22.73,3.89,14,9.93,27.53,19.6,38.48a61.94,61.94,0,0,0,7.2,6.92,4.57,4.57,0,0,0,6.28,0c1.56-1.57,1.86-4.75,0-6.28-10.65-8.72-17.63-20.81-22-33.52-.11-.32-.21-.63-.31-1,12.94-6.51,21.79-18.5,31.82-28.56a96.47,96.47,0,0,1,8.46-7.56l.51-.39,1.25-.93c.9-.66,1.8-1.3,2.7-1.94,1.65-1.17,3.31-2.31,5-3.47,7.11-4.95,14-10.1,19.23-17.08,4.77-6.34,8.1-14.57,7.18-22.61-.29-2.59-.76-5.07-2.62-7.05s-4.7-2.44-7.33-2.41a30.86,30.86,0,0,0-12.44,3c-7.26,3.26-13.31,8.94-18.72,14.66a206.78,206.78,0,0,0-16.06,19.27,200.52,200.52,0,0,0-23,40.64c-2.49-10.59-4.13-21.41-5.86-32.1-.77-4.73-1.48-9.49-2-14.26a3.54,3.54,0,0,0,.22-.6c.35-1.54.73-3.07,1.14-4.6a38.5,38.5,0,0,0,16.68-4.76c7.16-3.8,13.15-9.44,19.21-14.73,1.49-1.3,3-2.59,4.53-3.83l1.09-.86h0l.5-.38c.87-.65,1.76-1.29,2.66-1.91,3.41-2.34,7-4.47,10.42-6.74a78.2,78.2,0,0,0,18-16c2.78-3.44,6.65-7.61,6-12.37-.67-4.94-5.33-6.94-9.74-7.39a63,63,0,0,0-22.77,2.28A70.09,70.09,0,0,0,756.72,327a96.89,96.89,0,0,0-12.42,21.55c.12-3,.35-6,.71-9,1.86-15.52,6.9-30.54,11.66-45.37C773,289,788.16,280.77,803,272.29c7.67-4.38,15.47-8.66,22.25-14.38a61.24,61.24,0,0,0,14.71-18.49,63.62,63.62,0,0,0,4.54-11.2A18.81,18.81,0,0,0,845.64,221.47Z"/><path class="cls-6" d="M837.12,597.86c10.7-26,26.45-50.38,48.61-67.62s51.23-26.67,78.85-21.65c23.54,4.28,45.27,18.56,69.18,17.73,19.55-.68,37.1-11.36,54.62-20.06s38-15.73,56.31-8.84c13.12,4.93,24.07,16.68,38.08,16.73,17.54.06,29-17.56,43-28.11a60,60,0,0,1,47.84-10.59,163.89,163.89,0,0,0-82.94,79.92c-10,21.12-15.33,44.3-26.69,64.7a125.08,125.08,0,0,1-70.27,57.61c-29.23,9.38-60.65,7.59-91.31,9.09s-63.16,7.33-85.57,28.3"/><path class="cls-7" d="M1191.3,524.44a67.84,67.84,0,0,1-26.7,16.48,66,66,0,0,1-15.49,3.17,163.78,163.78,0,0,1-18.67,0,116.29,116.29,0,0,0-18,.34,55.57,55.57,0,0,0-16.2,4.41c-9.7,4.28-18.1,11.16-25.5,18.65-8.27,8.38-15.49,17.72-23.51,26.33a119,119,0,0,1-25.55,21.05,113.57,113.57,0,0,1-29.34,12.47c-11.27,3-22.71,3.8-34.34,4-20.8.38-45.18.75-60.3,17.48a37.74,37.74,0,0,0-4.23,5.68c-1.27,2.06,2,4,3.24,1.89,11.53-18.86,36.21-20.84,56-21.21,12-.23,23.84-.46,35.57-3a116.79,116.79,0,0,0,55.87-29.89c8.48-8.17,15.74-17.47,23.62-26.2,7.23-8,15.1-15.62,24.49-21a53.75,53.75,0,0,1,14.55-5.88,75,75,0,0,1,18.5-1.47c11.73.22,23.38,1.19,34.91-1.61a72,72,0,0,0,27.94-13.81,70.43,70.43,0,0,0,5.75-5.17c1.7-1.71-1-4.37-2.65-2.65Z"/><path class="cls-7" d="M1130.92,503a157,157,0,0,1-9.33,23c-3.58,7.09-7.82,13.49-13.93,18.66-1.85,1.56.82,4.2,2.65,2.65,6.33-5.35,10.81-12.07,14.52-19.42a162.7,162.7,0,0,0,9.7-23.84c.74-2.31-2.88-3.3-3.61-1Z"/><path class="cls-7" d="M1152.69,548.66a100.76,100.76,0,0,0,31.72,7.47c2.41.17,2.4-3.58,0-3.75a98.13,98.13,0,0,1-30.73-7.33,1.87,1.87,0,0,0-2.3,1.3,1.92,1.92,0,0,0,1.31,2.31Z"/><path class="cls-6" d="M565.57,663.1c-33-20.18-54.83-57.56-56.18-96.23-.34-9.7.35-20.14-4.89-28.32-4.2-6.58-11.46-10.41-17.64-15.18a64.39,64.39,0,0,1-24-57.81c2.65-21.05,15.78-42,9-62.1-10.11-29.73-55-33-69.31-60.9-7.43-14.46-4.66-31.83-1.71-47.82,0,20.36,14.82,39.82,34.44,45.27,18.81,5.23,38.74-1.59,58.26-1.15a79.22,79.22,0,0,1,56.9,26.49c18.33,20.8,25.67,51.26,48.78,66.58,16.94,11.23,38.64,11.69,57.78,18.5A90.62,90.62,0,0,1,701,484.36c18.86,27.58,20.91,63.65,15,96.54S697.25,645,688.23,677.12c-6.55,23.31-11,47.14-15.51,70.93"/><path class="cls-7" d="M424.22,347.34c10.71,10.23,25.08,14.62,39.29,17.42,14.86,2.93,30.62,3.86,44.34,10.79a53.52,53.52,0,0,1,17.85,14.21,60.57,60.57,0,0,1,10,19.61c4.5,14.27,5.52,29.33,8.19,44,2.82,15.52,8.24,30.27,17,43.42,9,13.47,21,23.87,34.12,33.15,13.33,9.4,27.45,18.07,38.35,30.4a91.69,91.69,0,0,1,20.89,42.27c3.39,16.67,1,33.24-2.17,49.74-3.12,16.27-6.85,33-4.58,49.59a63.74,63.74,0,0,0,2.8,11.9c.77,2.28,4.39,1.3,3.61-1-5.55-16.34-3.12-33.61,0-50.18s7-33.43,5.51-50.46A95.83,95.83,0,0,0,644,568.05c-9-13.6-21.51-23.63-34.77-32.86-13.42-9.33-27.15-18.27-37.86-30.8a104.63,104.63,0,0,1-22-42.84c-6.88-28-4.2-62.36-28.91-82.28a65.61,65.61,0,0,0-20.53-11c-7.11-2.37-14.58-3.49-21.94-4.73-14.51-2.44-29.83-4.64-42.66-12.35a48.48,48.48,0,0,1-8.52-6.5c-1.74-1.67-4.4,1-2.65,2.65Z"/><path class="cls-7" d="M474.93,385.66c20.3,5.29,41,12.84,55.59,28.64a59.87,59.87,0,0,1,9.33,13.37c1.09,2.15,4.33.26,3.23-1.89-9.75-19.19-28.91-31-48.57-38.1-6.09-2.19-12.32-4-18.58-5.63-2.34-.61-3.34,3-1,3.61Z"/><path class="cls-7" d="M550.17,463.06c.58-17.47,1.25-35.44,7.52-52A68.11,68.11,0,0,1,564.31,398c1.32-2-1.92-3.91-3.24-1.9-9.93,15.27-12.82,33.65-14,51.49-.33,5.14-.52,10.29-.69,15.44-.08,2.42,3.67,2.42,3.75,0Z"/><path class="cls-7" d="M486.93,492.24c23.72-1.09,46.83,5.41,69,13.31,6.31,2.26,12.57,4.64,18.83,7,2.26.86,3.24-2.76,1-3.61-22.27-8.49-44.88-17-68.71-19.74a124.77,124.77,0,0,0-20.08-.73c-2.4.11-2.41,3.86,0,3.75Z"/><path class="cls-7" d="M592.67,524c-11-19.7-12.14-42.9-10.79-64.95.42-6.75,1-13.49,1.69-20.22.22-2.41-3.53-2.39-3.75,0-2.19,23.21-4.33,47.16,2.41,69.87a83.6,83.6,0,0,0,7.2,17.19c1.18,2.11,4.42.22,3.24-1.89Z"/><path class="cls-8" d="M880.61,480.66c-3.78-7.85-14-10.69-22.88-6.35l-35.9,16.86c.18-.76.36-1.51.53-2.28l54-22.73c12.07-5.31,18.15-18.26,13.58-28.92s-18.07-15-30.14-9.67L826.72,441.5c-.07-1.34-.16-2.68-.27-4l55-24.51c11.9-5.54,17.58-18.61,12.68-29.18s-18.52-14.64-30.42-9.09l-3.25,1.45c9.7-5.73,14.33-16.93,10.4-26.66-4.38-10.86-17.76-15.75-29.88-10.91l-64.42,24.47a92.5,92.5,0,0,0-19.12-5c-59.4-9.16-117.29,33.64-129.31,95.59-.34,1.77-.63,3.53-.89,5.29-56.33,20.14-159.4,69.1-254.74,178.79-34.12,39.25-.78,103.26,45,127.95h0c57.36,31,96.41-17.36,145.86-58.38,60.8-50.45,101.21-99.06,125.1-132.28a102.72,102.72,0,0,0,25.48,7.38c41.74,6.44,73-14.43,92-48.89l65.5-30.77C880.3,498.38,884.4,488.5,880.61,480.66Zm-65.69-84.22c-.39-.71-.81-1.41-1.22-2.11L854,379Z"/><path class="cls-8" d="M716.76,362.34l13.39-33.54c4.64-12.2-.5-25.44-11.47-29.56s-23.62,2.43-28.25,14.63l-33,82.63C585.85,471.71,663.25,524,663.25,524,757.53,533.79,721.44,380.79,716.76,362.34Z"/><path class="cls-9" d="M716.76,362.34l13.39-33.54c4.64-12.2-.5-25.44-11.47-29.56s-23.62,2.43-28.25,14.63l-33,82.63C585.85,471.71,663.25,524,663.25,524,757.53,533.79,721.44,380.79,716.76,362.34Z"/><path class="cls-10" d="M880.61,480.66c-3.78-7.85-14-10.69-22.88-6.35l-35.9,16.86c.18-.76.36-1.51.53-2.28l54-22.73c12.07-5.31,18.15-18.26,13.58-28.92s-18.07-15-30.14-9.67L826.72,441.5c-.07-1.34-.16-2.68-.27-4l55-24.51c11.9-5.54,17.58-18.61,12.68-29.18s-18.52-14.64-30.42-9.09l-3.25,1.45c9.7-5.73,14.33-16.93,10.4-26.66-3.75-9.29-14.08-14.19-24.58-12.38-90.4,63.05-184.26,157.22-115,246.37,33.11-1,58.35-20.51,74.67-50l65.5-30.77C880.3,498.38,884.4,488.5,880.61,480.66Zm-65.69-84.22c-.39-.71-.81-1.41-1.22-2.11L854,379Z"/><path class="cls-8" d="M1009.86,1005.45c40.43-139.6,25.66-252.74,12-311,1.34-1.17,2.67-2.37,4-3.62,45.52-43.7,50.07-115.55,10.15-160.48-1.31-1.48-2.63-2.88-4-4.22l-22.49-81c-3.28-12.63-15.14-20.52-26.49-17.62s-17.9,15.51-14.62,28.14l13.07,47.07c-2.17-.1-4.35-.07-6.54,0L966,445c-1.79-13-12.6-22.23-24.14-20.62s-19.43,13.48-17.64,26.49l9.85,63.42c-1.23.63-2.46,1.27-3.69,1.94L925.27,477c-1.47-13.1-12-22.59-23.51-21.18S882.12,469,883.59,482.06l1.67,12.85a14.54,14.54,0,0,0-10.08-2.57c-8.64,1.07-14.72,9.88-13.56,19.67l8.15,60.34c-25.55,38-30.06,80.88,1.37,116.25a102.39,102.39,0,0,0,20,17.4c-14.95,38.1-33.87,98.41-43.27,176.86-7.64,63.79-27,122.8,30.08,154.2h0C923.54,1062.12,995.39,1055.4,1009.86,1005.45Z"/><path class="cls-8" d="M1041.61,538.64,1051.67,504c3.85-12.48,16-19.76,27.22-16.26s17.13,16.43,13.29,28.9L1067.4,602c10.22,103.34-83,97-83,97C904.05,648.79,1026.57,550.31,1041.61,538.64Z"/><path class="cls-9" d="M1041.61,538.64,1051.67,504c3.85-12.48,16-19.76,27.22-16.26s17.13,16.43,13.29,28.9L1067.4,602c10.22,103.34-83,97-83,97C904.05,648.79,1026.57,550.31,1041.61,538.64Z"/><path class="cls-10" d="M1025.81,503.74l-16.27-58.58c-3.28-12.63-15.14-20.52-26.49-17.62s-17.9,15.51-14.62,28.14l13.07,47.07c-2.17-.1-4.35-.07-6.54,0L966,445c-1.79-13-12.6-22.23-24.14-20.62s-19.43,13.48-17.64,26.49l9.85,63.42c-1.23.63-2.46,1.27-3.69,1.94L925.27,477c-1.47-13.1-12-22.59-23.51-21.18S882.12,469,883.59,482.06l1.67,12.85a14.54,14.54,0,0,0-10.08-2.57c-8.64,1.07-14.72,9.88-13.56,19.67l8.15,60.34c-14.63,21.74-22.34,45.1-20.38,67.73C914.16,632,976.61,569.84,1025.81,503.74Z"/><path class="cls-11" d="M933.39,403.05c-10.09-17.66-20.48-38.49-13.26-58.55,3.08-8.55,9.1-15.83,12.29-24.35,6.26-16.68.58-35.13-8.48-49.45S902.59,244.53,893.77,230c-25.22-41.46-15.47-103.28,21.72-137.78C928.61,80.09,944.6,71,955.28,56.53c22.34-30.32,13.94-71.66,18.29-108.71,6.72-57.23,47.79-108.71,98.72-134.32s110-27.36,162.74-12.87,99.9,44.19,142.1,78.88C1426.4-80,1471.39-29.58,1487.52,34.24s-4,142.88-60,179.65c-10.43,6.84-21.7,12.05-32.44,18.3-45,26.23-79.92,71.67-94.09,122.55-3.73,13.39-6.1,27.15-11.1,40.16-11.83,30.82-38.94,55.6-69.8,63.82-36.91,9.83-75.65-3-112.51,7-12.74,3.48-24.81,9.6-37.55,13.08-25.38,6.93-52.86,2.61-74-11.65Z"/><path class="cls-8" d="M994.12,483.09s-1.26,30.84-18.32,53.63c-12.45,16.64-45.62,53.25-66.22,68.6a19.4,19.4,0,0,1-26.08-2.66h0a19.41,19.41,0,0,1-.44-25.32l45.8-78.23Z"/><path class="cls-12" d="M950.77,566.12c8.36-9.08,16-17.88,21.4-24.72l.35-11.3-26.19-35.27-17.47,4.28-45.8,78.23a19.41,19.41,0,0,0,.44,25.32h0a19.4,19.4,0,0,0,26.08,2.66,194.29,194.29,0,0,0,15.93-13.59c-.34-11.66-7.53-22.54-7.53-22.54l19.19-21.57Z"/><path class="cls-13" d="M977.43,441.94s17.87,23.46,20.85,50.93C1002.1,528.15,958,564.6,958,564.6l-36-47.39Z"/><path class="cls-8" d="M926.15,398.61S883.6,367.85,856.31,376c-19.1,5.67-53.19,23.44-81,43.65-8.18,5.95-16.52,19.72-7.51,33.82h0a19.55,19.55,0,0,0,23.3,10.83l82.43-23.87Z"/><path class="cls-12" d="M873.53,440.4,908,413l-41.52-38.4A35.23,35.23,0,0,0,856.31,376a165.48,165.48,0,0,0-21.62,8.55l11.41,20.63-40.45,29.9S797,421.7,785.26,412.67c-3.38,2.27-6.71,4.6-10,6.95-8.18,5.95-16.52,19.72-7.51,33.82a19.55,19.55,0,0,0,23.3,10.83Z"/><path class="cls-13" d="M941.88,396S924.39,367.46,897,364.21c-25.42-3-63.36,3-63.36,3l25.72,45.33Z"/><path class="cls-13" d="M963.91,415.49h0c-18.1-30.22-53.57-42.27-79.23-26.9l-137.26,107c1.62,55.76,91.44,153.58,98.37,142.33l97-102.12C984.64,504.33,988.11,446.18,963.91,415.49Z"/><path class="cls-12" d="M828.19,432.61l-80.77,62.93c.66,22.76,16,52.53,34.44,79a37.29,37.29,0,0,0,27.33-.79l57.28,38.13,4.87-.94,57.06-60.11C822.33,552.89,820.19,477.39,828.19,432.61Z"/><path class="cls-14" d="M859.51,471.76l-76.57,75.07L801.89,571l73.69,27.41s-46.59,80.2-74.3,76.66-66.35-67.72-64.57-71.22-33.09-34.47-32.44-51.31,120.24-94.22,120.24-94.22Z"/><path class="cls-15" d="M941.5,417.27c-2.22,6.45-3.22,14.81-.39,18.52,3.34,4.35,12.13,5,18.09,3.48l16.56-12.67-17.15-22.42Z"/><path class="cls-16" d="M941.5,417.27c-2.22,6.45-3.22,14.81-.39,18.52,3.34,4.35,12.13,5,18.09,3.48l16.56-12.67-17.15-22.42Z"/><path class="cls-12" d="M952.39,408.94c3.12,8.21,8.47,17.29,17.53,22.13l5.84-4.47-17.15-22.42Z"/><path class="cls-11" d="M1074.58,313.1l-6.88-6.56c-24.33-23.19-60.4-24.84-80.57-3.68l-6.26,6.56.11.11c-10.8,10.41-21.6,23-21.6,23L965.2,338c-17.08,20.86-14.49,53.3,6.81,74.85h0c22.44,22.71,57.22,24.79,78,4.82l3.42,3.2c4.09-1.37,28.61-27.48,28.61-27.48C1102.26,372.25,1098.9,336.29,1074.58,313.1Z"/><path class="cls-15" d="M974.49,357.28a17.6,17.6,0,1,1,.15-24.89A17.6,17.6,0,0,1,974.49,357.28Z"/><path class="cls-9" d="M950.42,335.67c-4,2.21-5,8.28-2.07,13.55s8.5,7.76,12.53,5.55,5-8.28,2.07-13.56S954.45,333.46,950.42,335.67Z"/><path class="cls-15" d="M1054.16,436.34a17.6,17.6,0,1,1,.15-24.89A17.61,17.61,0,0,1,1054.16,436.34Z"/><path class="cls-9" d="M1031.1,425c-1.85,4.22,1.12,9.59,6.63,12s11.47,1,13.32-3.26-1.13-9.58-6.63-12S1033,420.83,1031.1,425Z"/><path class="cls-17" d="M955.86,335s9.43,4.95,7.19,14.49"/><path class="cls-17" d="M1050.19,428.85s-5.5-10.67-15.06-8.55"/><path class="cls-15" d="M1057.59,338.13l-9.51-9.62a46.92,46.92,0,0,0-66.35-.4l-16.16,16a53.68,53.68,0,0,0-.45,75.91h0a53.67,53.67,0,0,0,75.91.45l16.16-16A46.9,46.9,0,0,0,1057.59,338.13Z"/><path class="cls-18" d="M978.72,382.62a14.31,14.31,0,1,1,2.39-20.09A14.31,14.31,0,0,1,978.72,382.62Z"/><path class="cls-18" d="M1027.19,426.07a14.31,14.31,0,1,1,2.39-20.09A14.31,14.31,0,0,1,1027.19,426.07Z"/><path class="cls-11" d="M1054.87,351.21c-9.51,24.06-7,41.43-3.32,51.73-5.43,7.37-17,23.25-16.08,23.48s12.8-9.44,20-15.3a25.51,25.51,0,0,0,2.06,2.94s66.33-40.76,13.53-95.69-101.86,9.8-101.86,9.8c-3.47,1.92-10.11,21.93-10.2,24.18-.07,1.76,15.74-11.39,22.79-17.33,40.62,16,77.77,5.89,77.77,5.89q-2.68,5.34-4.64,10.3"/><path class="cls-17" d="M983.23,391.13s11.56,1.19,14.53,12.58"/><path class="cls-19" d="M1027.81,392.6c-2.41,2.4-6.94,1.39-7.57-3.06a5.2,5.2,0,0,1,1.61-3.27"/><path class="cls-19" d="M998.86,365.33c-2.41,2.41-6.94,1.4-7.57-3.05A5.2,5.2,0,0,1,992.9,359"/><polyline class="cls-17" points="1010.35 373.99 1001.78 383.06 1005.82 386.88"/><path class="cls-11" d="M1005.77,353.93a13.53,13.53,0,0,0,13.15-.88s-22-9.46-22.95-8.55C995.37,345.07,999.54,351.2,1005.77,353.93Z"/><path class="cls-11" d="M1035.87,369.87s11.58,20.94,10.76,22S1029.38,383.05,1035.87,369.87Z"/><path class="cls-8" d="M890.26,515.17h0a23.67,23.67,0,0,0-33.77,1.63L741.79,636.22l-50.33-6,60.28,47.14L762,658.46,889.92,550.2A23.66,23.66,0,0,0,890.26,515.17Z"/><polygon class="cls-12" points="816 558.95 756.37 621.04 776.05 646.55 836.51 595.39 816 558.95"/><path class="cls-20" d="M752.49,657l-9.75-6.23c3.49.77,10.7-11.68,11.74-16.25,1.74-7.68-5.46-11.61-11.45-15.26-3.39-2.06-10.63,13.87-10.63,13.87s-57.08-31.49-43.41.66l53.44,45.08a8.14,8.14,0,0,0,6.44,2.36h0c6.81-.58,26.68-24,6.22-21.5Z"/><path class="cls-21" d="M715.69,650.87a33.2,33.2,0,0,0,8.33-22c-15.31-7.34-45.36-19.37-35,4.92l23.73,20A32.36,32.36,0,0,0,715.69,650.87Z"/><path class="cls-22" d="M748.87,681.18h0a10.47,10.47,0,0,0,4.63-2.25c-17.6-14.49-50-41.14-66.49-54.79-.37,2.24.17,5.35,2,9.6l53.44,45.08A8.14,8.14,0,0,0,748.87,681.18Z"/><path class="cls-23" d="M759.51,598.29l39.28,54.07s114.93-79.74,110.12-123.47C905.21,495.27,882.92,447,759.51,598.29Z"/><polygon class="cls-24" points="764.03 584.09 817.77 645.72 801.08 660.22 747.93 600.11 764.03 584.09"/><path class="cls-8" d="M849,461.09h0a23.67,23.67,0,0,1-12,31.61L687.91,564.78,678,614.5l-26.15-71.92L673,538.7l142.56-88.13A23.66,23.66,0,0,1,849,461.09Z"/><polygon class="cls-12" points="773.66 483.71 762.37 483.46 686.43 530.41 706.14 555.96 791.18 514.84 773.66 483.71"/><path class="cls-20" d="M671.51,548.18l2.9,11.2c.35-3.55,14.43-6.55,19.09-6.12,7.84.72,9.35,8.78,11,15.61.92,3.85-16.48,5.81-16.48,5.81s12.27,64-14.07,41.07L647.6,551a8.15,8.15,0,0,1-.25-6.86h0c2.66-6.29,31-17.94,22.37.74Z"/><path class="cls-21" d="M665.9,585.06a33.27,33.27,0,0,1,23.54-1.1c2.23,16.84,4.37,49.13-15.53,31.79L662.23,587A30.42,30.42,0,0,1,665.9,585.06Z"/><path class="cls-22" d="M647.35,544.12h0a10.54,10.54,0,0,1,3.57-3.7c8.33,21.22,23.65,60.24,31.51,80.19-2.25-.35-5-1.83-8.52-4.86L647.6,551A8.15,8.15,0,0,1,647.35,544.12Z"/><path class="cls-23" d="M740,568l-45.09-49.33s101.17-96.59,143-83.11C870.12,446,913,477.49,740,568Z"/><polygon class="cls-24" points="754.78 566.45 705.19 501.45 687.63 514.89 735.86 579.02 754.78 566.45"/><path class="cls-8" d="M872.73,576.85c1.21-26.19,6.36-60.86,6.36-60.86l22.14.17s16,44.52,7.82,83.16c-2,9.39-15.13,11.59-23.85,7.6h0C874.26,601.9,872.19,588.7,872.73,576.85Z"/><path class="cls-8" d="M875,524.31c-8-7.73-5.4-18.48,2.39-27.14s17.88-11.95,25.83-4.21,8.09,21,.29,29.68S882.91,532,875,524.31Z"/><path class="cls-8" d="M876.07,488l8.76,19.52,7.09-3.12-8.75-19.52a4.12,4.12,0,0,0-5.29-2.49A4.21,4.21,0,0,0,876.07,488Z"/><path class="cls-8" d="M883.1,483.76l7.14,20.06,7.37-2.5-7.14-20.06a3.92,3.92,0,1,0-7.37,2.5Z"/><path class="cls-8" d="M891.51,481.3l5,20.58,7.65-1.69-5-20.58a3.94,3.94,0,1,0-7.65,1.69Z"/><path class="cls-8" d="M868.53,492.55l7.35,19.55,7.15-2.6L875.68,490a4,4,0,0,0-5-2.75A4.11,4.11,0,0,0,868.53,492.55Z"/><path class="cls-8" d="M762.61,455.58c8.37,24.85,19.58,49.56,19.58,49.56l21.25-6.25s6.41-40-12.09-74.89c-4.5-8.48-17.73-7-25-.75h0C757.19,431.08,758.83,444.34,762.61,455.58Z"/><path class="cls-8" d="M775.93,498.28c-5.52,9.62-.12,19.26,9.76,25.44s20.47,6.57,26-3.05,2-22.44-7.88-28.62S781.45,488.66,775.93,498.28Z"/><path class="cls-8" d="M787,532.91l3-21.17,7.68,1L794.68,534a4.12,4.12,0,0,1-4.4,3.85A4.21,4.21,0,0,1,787,532.91Z"/><path class="cls-8" d="M794.91,535l1.35-21.25,7.78.38-1.35,21.25a3.92,3.92,0,1,1-7.78-.38Z"/><path class="cls-8" d="M803.68,535.08l-.87-21.16,7.81-.48.87,21.16a3.94,3.94,0,1,1-7.81.48Z"/><path class="cls-8" d="M778.49,530.58l1.68-20.82,7.59.54-1.68,20.81a4.06,4.06,0,0,1-4.07,4A4.1,4.1,0,0,1,778.49,530.58Z"/><polygon class="cls-25" points="984.55 200.32 997.47 205.24 1002.96 225 990.29 223.28 990.26 245.27 978.53 211.45 990.09 213.12 984.55 200.32"/><path class="cls-25" d="M1012.21,257.46c-4.92,6.36,2.89,15,9.8,14.3,4.4-.42,8.15-3.15,10.88-6.48a30.89,30.89,0,0,0,6.31-12.59c.87-4,.41-8.72-3.07-11.39a9.59,9.59,0,0,0-8.73-1.11,14.59,14.59,0,0,0-7.9,6c-2.13,3.31-2.19,7.39-1.06,11.08,2.71,8.87,11.69,15.47,20,18.66,4.64,1.79,10,2.41,14.59.1,3.6-1.82,6.6-5.34,6.91-9.48.56-7.64-8.2-11.58-14.68-9.91-8.32,2.15-11,12.07-9.9,19.6,1.32,8.71,7.53,16.27,15.24,20.25a27.92,27.92,0,0,0,12.39,3.17c5.26.07,10.39-1.43,15.3-3.19,5.1-1.83,10.1-4,15.4-5.2a25.84,25.84,0,0,1,12,.12,18.59,18.59,0,0,1,9.75,5.56,10.74,10.74,0,0,1,2.06,10.46c-2.66,7.57-12.71,10.62-19.75,8-8.82-3.27-14.52-12.69-17-21.34-1.82-6.35-2.25-17.32,5.63-19.82,8.34-2.65,13.32,7.65,14.08,14.31.44,3.91,0,9.17-3,12.07-4,3.9-9.45-.17-13.34-2.08a14.22,14.22,0,0,0-11.7-.86,17.19,17.19,0,0,0-8.89,7.76c-4.19,7.78-.29,16.87,6.74,21.41,7.61,4.93,17.14,3.33,23.77-2.49a23.89,23.89,0,0,0,6.84-10.36.77.77,0,0,0-.34-.85c-6.75-5.07-17-3.43-21.49,3.76a15.53,15.53,0,0,0-2,11.51,16.8,16.8,0,0,0,5.69,8.94c5.88,5,13.55,7.2,19.82,11.62,6.52,4.6,10.79,13.09,9.32,21.13a13.61,13.61,0,0,1-5.54,9,14.63,14.63,0,0,1-9.08,2.17c-6.5-.48-12.39-5.22-11.23-12.24,1.26-7.61,9.78-11.81,16.3-14,4.2-1.45,9.06-2.91,13.53-2.6a8,8,0,0,1,6.18,3.2c1.27,1.83,1.61,4.28,0,6-2.76,2.94-7.79,2-10.71-.1a14.67,14.67,0,0,1-5.35-8.87c-1.77-8.45,3.94-15.46,11.18-19.05,6.94-3.44,16.25-5.11,23.48-1.61,3.08,1.49,5.67,4.14,5.5,7.78-.15,3.32-3,5.58-6,6.43a10.27,10.27,0,0,1-9.38-1.7c-3.23-2.82-4.4-7.26-4.25-11.41.37-10,7.81-17.3,13.54-24.72,5.35-6.92,10.72-16.63,6.88-25.51-2.57-5.92-9-9.35-15.27-9.68-6.56-.34-12.91,3.05-15.19,9.41-2.18,6.09-.27,13.34,4,18.05a14.72,14.72,0,0,0,8.28,4.74c1,.17,1.23-.19,1.84-1a23.3,23.3,0,0,0,1.73-2.47,24.18,24.18,0,0,0,2.41-5.43c2.45-8,1-16.85-2.53-24.28a37.63,37.63,0,0,0-18.72-18.32c-7.55-3.21-16.35-3.17-23,2-5.55,4.29-9.41,11.54-8.18,18.67a13.4,13.4,0,0,0,6.13,9.23,8.12,8.12,0,0,0,10.37-1.37c2.58-2.85,3.51-6.84,3.9-10.56a42.39,42.39,0,0,0-.5-11.9,49.08,49.08,0,0,0-10.2-21.8c-10.19-12.64-26.71-20.28-43-16.77-7.76,1.68-15.55,6.15-19.2,13.46a21.73,21.73,0,0,0,.61,20.08c9.36,16.2,35,5.52,40-9.16,2.58-7.49-.8-15-7.27-19.19a25.74,25.74,0,0,0-22.38-2.2c-9.28,3.22-16.75,10-24,16.34l-13.09,11.51c-3.94,3.47-8,6.85-11.75,10.52-5.91,5.78-11.83,13.48-10.46,22.28,1,6.5,6.2,11.42,12.09,13.81,6,2.44,13.43,2.41,18.94-1.38,6-4.12,9-11.29,9.18-18.43a26.56,26.56,0,0,0-7.46-19.23.76.76,0,0,0-1.06,0c-9.43,9-13.61,24-7.66,36.11,5.54,11.24,19.49,18.57,31.61,13.58a24.23,24.23,0,0,0,12.89-12.7c2.36-5.51,2.52-12.34-1.25-17.28-1.7-2.23-4.23-4-7.13-3.86-3.23.12-5.87,2.33-7.76,4.78a20,20,0,0,0-3.62,15.43,33.54,33.54,0,0,0,7.35,15.77,39.67,39.67,0,0,0,15.12,11.25c6.93,3.08,14.3,4.93,21.62,6.83s14.9,3.82,21.61,7.43c10.68,5.75,21.9,18.11,19.17,31.23a13.39,13.39,0,0,1-4.29,7.85c-2,1.63-4.93,3-7.52,2.23-3.61-1.14-3.46-5.82-2.79-8.81a19.31,19.31,0,0,1,4.77-8.84c5.2-5.63,12.72-7.95,20.23-8.06a45.73,45.73,0,0,1,11.71,1.3c2.79.7,6.57,2.25,6.82,5.61.18,2.55-2.22,4.51-4.43,5.24a5.9,5.9,0,0,1-7-2.05c-1.77-2.51-1.72-5.87-.74-8.67a12.87,12.87,0,0,1,6.69-7.14,28.59,28.59,0,0,1,10.7-2.54,31.79,31.79,0,0,1,9.08.48c2.76.62,5.6,1.76,7.43,4a7.55,7.55,0,0,1,.63,8.69,10.86,10.86,0,0,1-7.94,5.26,11.83,11.83,0,0,1-8.89-3.18c-6-5.31-6.84-13.59-5.58-21.07a71.69,71.69,0,0,1,3-11.54,28.92,28.92,0,0,1,5.06-9.46c4-4.6,11.94-7.59,17.11-3,4.45,3.91,2.58,10.44-1,14.21a12.13,12.13,0,0,1-7.3,3.84,16.88,16.88,0,0,1-9.82-2.19c-6.35-3.47-10.81-9.63-13.93-16a53.71,53.71,0,0,1-5.5-23.11c-.15-15.16,7.13-31.65-2.4-45.43a29.44,29.44,0,0,0-14.64-11.1,28.57,28.57,0,0,0-33.06,12.61,19.88,19.88,0,0,0-1.56,14.8c1.28,4.41,4.52,8.15,9.31,8.56,6.42.56,11.58-5,13.59-10.6a24.33,24.33,0,0,0-1.11-18.46,23.05,23.05,0,0,0-14.19-12.16,24.45,24.45,0,0,0-18.14,1.57c-.86.44-.1,1.74.76,1.29a23,23,0,0,1,20.24-.15,22.09,22.09,0,0,1,11.87,15.9c1.26,6.67-.44,14.43-6,18.81a9.59,9.59,0,0,1-8.95,1.9,9.12,9.12,0,0,1-5.09-4.73,17.93,17.93,0,0,1,.25-15.47c3-6,9.09-10.44,15.38-12.45a26,26,0,0,1,19.86,1.56A27.56,27.56,0,0,1,1131,252.56c3,8.07,1.55,16.83.37,25.1-1.15,8-1.76,15.86-.18,23.86a52.86,52.86,0,0,0,9.15,21.2c3.93,5.3,9.47,10.16,16.18,11.28a14.18,14.18,0,0,0,14.46-6.24c2.85-4.23,3.51-10.19-.45-14-4.4-4.19-11.67-3.38-16.34-.08-5.78,4.09-8.27,11.32-10.06,17.86-2.06,7.5-3.48,15.95,0,23.26,2.59,5.41,8.22,10.33,14.59,9.57,5.75-.69,11.34-6.2,10.21-12.29-1.1-5.89-7.34-8.34-12.62-9a38.5,38.5,0,0,0-9.77.16,25.53,25.53,0,0,0-9.86,3.11c-5.05,3-8.47,9.39-6.31,15.24a7.56,7.56,0,0,0,5.38,5,9,9,0,0,0,6.92-1.63,6.32,6.32,0,0,0,2.88-5.75c-.37-2.83-2.73-4.74-5.21-5.79a34.46,34.46,0,0,0-10.55-2.09,40,40,0,0,0-11.66.69,25.63,25.63,0,0,0-16.63,11.32c-2.61,4.3-5.33,13.75,1,16.33,5.06,2.08,10.94-2.57,12.86-7,5.4-12.37-2.91-25.48-12.55-33-12-9.33-28-10.82-42.07-15.46-6.82-2.25-13.55-5.19-18.78-10.23a34.55,34.55,0,0,1-9.61-15.84c-1.48-5.62-1-11.74,2.5-16.55,2.1-2.88,5.54-5.62,9.28-4.13,3.12,1.25,5.08,4.66,5.79,7.79,1.49,6.54-1.52,13.46-6.16,18a21.07,21.07,0,0,1-18.42,5.91,26,26,0,0,1-16.54-10.86,26.64,26.64,0,0,1-4-19.91,32.58,32.58,0,0,1,9.51-17.65h-1.06a25.25,25.25,0,0,1,6.86,20.53c-.78,7.11-5,14.24-12,16.67-6.26,2.16-13.58.59-18.79-3.37a16.26,16.26,0,0,1-5.77-7.78,16.53,16.53,0,0,1,.94-11.65,36.72,36.72,0,0,1,8-10.89c3.68-3.66,7.68-7,11.57-10.42l12.9-11.35c3.77-3.32,7.52-6.69,11.55-9.69,7.12-5.29,15.82-9.84,25-8.39,7.19,1.15,14.69,5.72,16.17,13.34,1.74,8.95-5.58,16.72-12.94,20.5-4.52,2.32-10,3.85-15.07,2.92a14.12,14.12,0,0,1-9.17-6,20.06,20.06,0,0,1-1-20.22c4-7.46,12.41-11.51,20.52-12.68,16.62-2.39,32.78,7,41.77,20.62a45.75,45.75,0,0,1,7.67,22.79,29.73,29.73,0,0,1-1.48,11.89c-1.59,4.12-5.35,7.35-9.89,5.24-3.74-1.74-6-5.76-6.38-9.77a17.4,17.4,0,0,1,2.62-10.31,20.84,20.84,0,0,1,8.21-7.73,19.9,19.9,0,0,1,12.28-1.66c17.44,2.85,30.46,22.58,27.28,39.75a23,23,0,0,1-5.15,11l.73-.19c-13.4-2-17.79-23.92-3.82-28.56a17.18,17.18,0,0,1,17.38,4.37c6.39,6.79,3,16.93-1.47,23.78-5,7.68-12.5,14-15.45,22.91-2.19,6.63-1.77,16.13,5,20.12,4.78,2.84,12.49,1.7,15.42-3.33a8.21,8.21,0,0,0-.19-8.27c-1.63-2.71-4.56-4.36-7.48-5.31-7.05-2.29-15.14-.83-21.74,2.21s-12.56,8.83-13,16.42c-.39,6.25,2.82,13.42,8.9,15.84,3.13,1.25,7.2,1.12,9.79-1.25,2.78-2.56,2-6.62-.35-9.15-3.06-3.27-7.78-3.19-11.86-2.46a55.12,55.12,0,0,0-11.41,3.27c-6,2.46-12.87,6.56-14.48,13.36-1.45,6.1,1.93,11.56,7.61,13.77,5.32,2.07,12,1.35,16.36-2.52,5.38-4.83,5.91-13.08,3.67-19.53a24.71,24.71,0,0,0-5.83-9.33,36.94,36.94,0,0,0-9.06-6.12c-6.18-3.24-13.84-6-17.5-12.41-4.23-7.38-.4-17.48,8-19.67a14,14,0,0,1,11.88,2.3l-.35-.84c-2.71,8.19-10.62,14.91-19.49,14.77-8.52-.13-16.88-7.57-16.69-16.36.17-8.08,8.79-15.45,16.85-13.45,4.33,1.08,7.79,4.55,12.29,5.12,4.11.52,7.11-2.18,8.49-5.83,2.59-6.85.88-15.58-3.74-21.18a11.06,11.06,0,0,0-8-4.35,10,10,0,0,0-8.35,4.26c-4.13,5.78-2.94,14.33-.6,20.55,3,7.9,8.07,15.87,16.11,19.3a18,18,0,0,0,20-4.19,12.37,12.37,0,0,0-1-17.67c-5.28-4.77-13.32-6.24-20.18-5.11-10.06,1.66-19,7.66-29.19,8.57a27.55,27.55,0,0,1-23.26-9.81c-5.44-6.41-8.16-16.18-4.09-24a11.29,11.29,0,0,1,8.94-6.44,11.09,11.09,0,0,1,9.27,3.42c2.78,3.23,1.93,7.8-.79,10.77-3.41,3.75-8.46,4.68-13.28,3.66a34.73,34.73,0,0,1-13.41-6.6c-3.7-2.81-7.13-6.42-8.88-10.79-1.44-3.59-1.76-7.8.36-11.18a13,13,0,0,1,8-5.63c3.14-.73,6.47.11,8.2,3,2.59,4.34.65,10-1.42,14.08s-4.78,7.95-8.74,10.21c-3.76,2.15-8.07,2.16-11.41-.77-2.59-2.28-4.45-6.3-2.06-9.39.58-.75-.47-1.82-1.06-1.06Z"/><path class="cls-25" d="M993.64,285.09c3.68-4.7.76-10.6-3.46-13.84-6.28-4.82-14.53-2.62-21.78-2.32-7.66.31-15.87-2.62-19.24-10.07-2.89-6.38.43-15.25,7.57-17,3.72-.94,9.64,1,8.13,5.85-1.16,3.69-5.25,5.78-8.87,6a16.65,16.65,0,0,1-16.26-11.33,9.61,9.61,0,0,1,2.32-9.89c2.94-2.69,6.91-.58,6.53,3.32-1,10.28-15,4.92-20.5,2.44-7.41-3.33-14.45-8.29-17.77-16-3.23-7.51-1.81-16.7,5.6-21.13,6.41-3.84,14.62-.8,16.41,6.65,1.59,6.59-4.5,11-10.57,9.13a6.43,6.43,0,0,1-4.85-6c-.07-3.65,2.72-6.45,5.63-8.24A23.93,23.93,0,0,1,933,199.3c4.15-.3,6.82,1.41,8.68,5s4.15,10.3,9.66,8.15c5.7-2.23,5.51-9.65,2.4-13.85a12.41,12.41,0,0,0-15.33-4.09c-5.77,2.62-9.65,8.79-10.49,15-.74,5.4,1,12.25,6.46,14.55,5.14,2.15,10.09-1.41,12.38-5.93,2.81-5.55,1.75-11.41-2-16.19-4.25-5.36-10.59-8.5-16.54-11.57-6.31-3.25-13.31-7.17-16.41-13.91-1.92-4.17-1.57-8.8-1.64-13.27a28.48,28.48,0,0,0-2.3-11.3c-1.65-3.8-3.93-7.35-5.25-11.29a25.38,25.38,0,0,1-1.22-9.15,28.41,28.41,0,0,1,6.66-17,20.32,20.32,0,0,1,16.75-7.29c4.15.21,8.21,1.34,12.37,1.5a30.27,30.27,0,0,0,8.93-1c5.2-1.4,10.58-4.4,12.88-9.51,2.06-4.58,1.41-11.86-4.76-12.32a8,8,0,0,0-8.34,9.82c1.5,7.16,8.88,10.07,15.47,10.08,6.16,0,14.76-1.22,17.18-7.88,2-5.4-2.17-10.64-7.91-9-5.94,1.66-7.18,8.26-4.37,13.18,3.73,6.51,12,7.65,18.77,7.47,13.16-.34,28.85-6.34,34.5-19.21,2.36-5.36,2.3-12.79-3.6-15.82-4.59-2.35-10.46-.83-14.28,2.31-5.32,4.38-5.94,11.93-4.51,18.25,1.77,7.84,6.57,14.36,10.53,21.2,3.59,6.21,6.57,13,4.3,20.19-.81,2.6-2.35,5.25-4.9,6.48a7.1,7.1,0,0,1-9.08-3c-4.71-7.68,6.48-14.53,11.89-8,5.11,6.2,4.72,16.42,1.53,23.35a28.45,28.45,0,0,1-7.06,9.06c-2.62,2.41-5.41,4.71-7.4,7.7a14.8,14.8,0,0,0,0,16c2.93,4.8,8.26,7.92,14,7a16.08,16.08,0,0,0,12.83-12.31c.91-4.45-1.06-13-7.31-11.5-4.44,1.08-7.23,7.31-4.68,11.21,3,4.64,9.88,4.1,13.93,1.28,5.73-4,6.2-11.94,5-18.2-1.51-8-5.7-15.36-5.15-23.69a31.1,31.1,0,0,1,8.58-18.92,30.49,30.49,0,0,1,18.36-9.67c7.07-.84,14.89,2.51,21.31-1.75a16.73,16.73,0,0,0,7.16-13.25c.18-5.52-3-11.58-8.77-12.87-6.53-1.45-10.31,5.64-9.4,11.26s5.85,10.58,11.36,12.1c12.33,3.41,21.2-10.72,18.61-21.59-3.16-13.29-19.28-18.5-31.12-14.52a36.26,36.26,0,0,0-16.85,12.47c-4.18,5.45-6.79,12.18-2.42,18.33,3.81,5.37,10.4,8,16.73,8.75,8.57,1,17.17-.75,25.37-3.13,15.12-4.38,31.34-11.61,47.32-7.1,7.19,2,15.21,7.29,16.44,15.25,1.14,7.39-5.44,14.86-12.76,15.26-6.79.37-12.21-5.72-13.08-12.08-1.11-8.09,5.63-12.82,11.66-16.63s11.66-8.33,15.09-14.76c3-5.6,4.44-13.19.35-18.62-1.51-2-3.83-3.87-6.47-3.86a5.86,5.86,0,0,0-5.38,4.21c-1.73,5.48,2.27,11.43,6.42,14.65,9.08,7.06,22.58,6.39,32.94,2.93l-.58-1.37c-8,4.22-12.31,14.56-9,23.15s12.83,13.51,21.65,11.65l-.4-1.44c-14.75,5.9-21.57,25.39-13.56,39.17l1.18-.91c-8-9.39-22.67-14.14-34-8-9.37,5.09-12.64,17.72-8.11,27.16,2.12,4.43,6.73,8.54,11.89,8.54,6.78,0,9-9.74,9.23-15,.34-6.4-1.82-13.22-6.76-17.5a19.5,19.5,0,0,0-16.39-4.25c-12.35,2.51-14,15.83-14.35,26.26-.18,5.52,0,11.27-1.68,16.6a14.83,14.83,0,0,1-3.93,6.59c-2.76,2.56-6.39,3.35-10,4.17-3.2.74-6.43,1.67-8.86,4a13.46,13.46,0,0,0-3.76,7.41,15.51,15.51,0,0,0,6,15.15c5.35,4,12.59,4.8,18.91,3,8.06-2.34,14.85-7.8,22.63-10.87s17-4.69,24.9-1.14c6.37,2.84,12,8.82,12.2,16.1.11,4.25-1.62,8.28-3.89,11.79s-5.11,6.95-8.85,8.9c-6.43,3.33-14.85.56-18.33-5.75s-.48-14.38,5.39-17.92c6.26-3.77,14.57-.92,18.26,5.12,4.56,7.45-.18,17-3.5,24s-7,13.65-8.8,21.1c-1.58,6.72-1.42,14.37,2.61,20.24,3.41,5,9.75,7.7,15.59,5.46A9.22,9.22,0,0,0,1178,297.3c-2.31-5.66-8.87-6.09-13.15-2.29-6,5.34-4.58,14.79-4.32,21.93q.51,14.28,1.21,28.54c.38,7.75,1.36,17.06-5,22.86-4.91,4.51-12.25,5.11-18.59,4.45-14.68-1.52-29.88-11.82-44.12-2.8-10.34,6.55-14.36,19.69-16.4,31.08a100.83,100.83,0,0,0-1.94,21.28c.25,6.88,2.17,14,7.79,18.45,4.35,3.43,10.67,5.24,15.84,2.55,5.63-2.94,7.14-9.71,6.76-15.55-.53-8.42-5-16.46-3.24-25l-.92.52c8.82,2.26,8.94,13.68,6.6,20.7-3.17,9.48-11.76,17.32-20.44,21.79a44.28,44.28,0,0,1-15.36,4.69c-4.41.49-8.86.21-13.28.74-3.58.43-7.49,1.28-10.18,3.88a8.91,8.91,0,0,0-2.28,9.37c2.89,7.67,13.18,9.52,19.94,6.61,4.72-2,8.62-5.5,12.48-8.8,4.38-3.75,8.89-7.1,14.29-9.23a42.57,42.57,0,0,1,16.89-3c6.17.18,11.84,2,17.59,4.13,8.67,3.15,20.58,6.5,28-1.29,7.18-7.54,3.1-19-1-26.9-4.59-8.84-11.5-21.53-1.9-29.82a8.86,8.86,0,0,1,6.46-2.19l-.75-.75q.69,8,1.39,16c.41,4.71.51,9.58,1.3,14.24s4.64,13.05,10.56,9.73a.75.75,0,0,0,.35-.84,75.49,75.49,0,0,1,1.46-47.46l-1.25.34c5,5.39,5.32,12.7,4.9,19.67s-1.6,13.88-.73,20.8c1.59,12.84,12.09,21.79,24.36,24.4,13.86,2.95,27.45-3.05,37.83-12a76.39,76.39,0,0,0,14.74-17.08c4-6.31,7.08-13.83,6.36-21.43-1.43-15.26-17.34-22.07-29.49-27.65a384,384,0,0,0-50.32-19c-5.92-1.77-15-3.11-18.19-9.21-3.75-7.13,4.9-13.34,11.48-12,7.53,1.48,11.51,9.4,13.5,16,1.6,5.32,3.19,11.51,7.2,15.6a9.18,9.18,0,0,0,12.22,1c4-3,5.93-7.88,8.81-11.77,1.57-2.12,3.52-4.14,6.13-4.86,3.74-1,7.23,1,9.73,3.61,5,5.29,5.87,12.74,9.59,18.78,3.15,5.1,8.45,8.19,14.52,7.11s11.37-5.65,14.77-10.68c4.17-6.17,5.36-13.85,7-21a60.41,60.41,0,0,1,3.75-11.77,38.06,38.06,0,0,1,7.1-10c5.35-5.68,10.57-10.89,13.63-18.22a56.87,56.87,0,0,0,4-21.62c.08-15.2-3.53-31.75-12.31-44.37-8.1-11.64-22.1-20.19-36.67-18.24-15.3,2-25.28,14.86-37.73,22.5-6.4,3.92-14.09,7-21.72,6.26a17.58,17.58,0,0,1-15.7-13.08,16.92,16.92,0,0,1,6.56-18.48,17.94,17.94,0,0,1,19.7-.47c6.11,3.91,9.93,10.45,15.83,14.63A24.62,24.62,0,0,0,1240,237c11.31-1,22.08-8.82,23.86-20.48,1.73-11.33-4.79-23.66-15.24-28.46-15.93-7.31-32.33,5-47.44,8.73-8.2,2-17.17,1.76-23.54-4.41-5.45-5.29-7.24-13.4-1.62-19.29s15.11-8.9,23.15-9.54c8.73-.69,17.06,1.8,25.46,3.76,7.18,1.67,14.84,3,22.09.94a30.62,30.62,0,0,0,14.06-8.84c7.6-8.24,11.52-20.41,8.55-31.41-1.59-5.92-5.16-12.39-12-12.47-8.13-.1-16.19,4.16-23.61,7-8.14,3.07-17.84,5.75-26.23,2-6.07-2.72-11.17-10-9.13-16.82,2.28-7.59,11.44-9.94,18.32-11a66.08,66.08,0,0,1,61.55,24.74,67,67,0,0,1,13.5,42.81c-.34,8.24-2.11,16.93-7.17,23.64a35.86,35.86,0,0,1-19.13,12.51c-13.22,3.61-27.7.24-38.92-7.3-11.73-7.89-23.54-23.44-16.84-38a28.85,28.85,0,0,1,35.62-14.59,40.4,40.4,0,0,1,17.61,12.44c5.05,6,7.88,13,10.37,20.3,2.37,7,4.85,14.14,10.06,19.6,5.4,5.66,12.63,9.25,17.61,15.34,2.59,3.17,4.63,7.12,4.5,11.31a11,11,0,0,1-5.68,9.05,7.11,7.11,0,0,1-9.33-2.05c-1.8-2.55-2-5.95-1.86-9a53.62,53.62,0,0,1,1.92-10.35q1.69-6.8,3.07-13.67c1.73-8.72,3-17.53,4-26.37a257.62,257.62,0,0,0,1.46-27.63c0-8.34-.73-16.81-3.33-24.78-4.1-12.61-13.94-24.35-27.64-26.42-1-.14-1.35,1.3-.4,1.45,16.62,2.51,26,18.57,28.66,33.85,1.54,9,1.36,18.17,1,27.22a280.89,280.89,0,0,1-2.84,29.24q-2.08,13.86-5.54,27.47c-1.44,5.68-3.09,12.41-.62,18.06a8.77,8.77,0,0,0,13.43,3.53c5.44-3.88,6.41-10.71,3.79-16.56-3.25-7.26-10.1-11.58-16.09-16.34a36.34,36.34,0,0,1-8.64-9.2,55.78,55.78,0,0,1-5-11.07c-2.46-7.06-4.65-14.12-9-20.34a44.93,44.93,0,0,0-15.59-14.15,32.92,32.92,0,0,0-19.45-3.94,31.24,31.24,0,0,0-17.32,8.4,25.75,25.75,0,0,0-8.22,16.69c-.5,7.65,3.13,15,7.7,20.84,16.1,20.8,52.18,28.88,70.8,6.64,9.78-11.68,10.07-29.72,6.73-43.88a67.2,67.2,0,0,0-23.81-37.52,68.41,68.41,0,0,0-41.73-14.14c-10.89,0-32.06,3.09-29.28,18.64,1.12,6.28,6.14,11.44,12.09,13.43,7.86,2.63,16.46.63,24-2.11,4.25-1.55,8.39-3.36,12.66-4.83s9.27-3.26,13.71-2.44c7,1.29,9.49,11.29,9.72,17.29.46,12.34-6.76,25-17.87,30.56-15.31,7.62-31.83-2.81-47.54-3.11a44.17,44.17,0,0,0-23.38,6.18c-5.49,3.32-10,8.62-8.89,15.41,1,6.29,6,11.63,11.67,14.14,7.56,3.33,16.38,1.61,23.89-.91,15-5,33.68-16.33,47.67-3,9.42,9,11.62,24.88,1.83,34.45a26.61,26.61,0,0,1-17.17,7.34,23.65,23.65,0,0,1-17.74-6.63c-5.11-4.78-9.28-11.06-16-13.75a19.67,19.67,0,0,0-17.92,2.18c-10.73,7.24-10.27,24,.42,31.14,12.78,8.48,28.92-.41,39.33-8.51,6.24-4.86,12.26-10.19,19.39-13.74a31.76,31.76,0,0,1,22.94-2.36c16.58,4.6,26.77,19.57,31.28,35.39,4.31,15.15,5.74,33.28-1.3,47.85-3.73,7.72-10.32,12.76-15.56,19.31-4.91,6.15-6.88,13.57-8.6,21.1-1.78,7.8-3.46,15.78-9.14,21.79-4.64,4.9-12.14,8.94-18.73,5.3s-7.86-12-10.89-18.22c-2.58-5.32-7.76-11.36-14.35-10.26-5,.83-7.93,5.45-10.41,9.41-2.67,4.28-6.09,10.3-12.09,9.18s-8.5-9.35-10.09-14.4c-2-6.35-4-12.86-9.49-17.12-4.84-3.75-11.27-4.15-16.22-.35a9.17,9.17,0,0,0-1.37,13.84c4.52,4.94,12.2,6.17,18.29,8q13.47,4.05,26.63,9.09t25.71,10.94c6.87,3.23,14.1,6.56,19.45,12.08,13.2,13.62,2.62,32.2-7.84,43.77-10.09,11.17-24.53,20.61-40.23,18.61a33.07,33.07,0,0,1-18.4-8.42c-5.4-5.09-7.76-11.76-7.92-19.09-.28-12.2,5-27.33-4.32-37.46a.76.76,0,0,0-1.25.34,76.71,76.71,0,0,0-1.47,48.24l.35-.84c-3,1.69-5.37-1.21-6.66-3.68-1.61-3.11-1.85-6.38-2.15-9.81l-2.19-25.16a.77.77,0,0,0-.75-.75C1151,392,1146,402,1147,409.54c1.37,11.18,10.5,19.63,11.52,30.92.5,5.56-1.45,11.12-6.59,13.85-4.79,2.55-10.6,2.28-15.71,1-5.86-1.51-11.34-4.22-17.24-5.59a43.86,43.86,0,0,0-30.87,4.41c-4.57,2.55-8.4,6.08-12.38,9.42s-8.87,7.18-14.33,7.52c-4.34.27-9.33-1.57-11.94-5.17a7.51,7.51,0,0,1,2.46-10.87c3.73-2.27,8.52-2.46,12.76-2.62,4.6-.18,9.11-.25,13.62-1.32a46.91,46.91,0,0,0,13.48-5.57c7.74-4.7,15.15-12.11,18.16-20.83,2.22-6.45,2.53-15.81-3.22-20.61a10.79,10.79,0,0,0-4.35-2.16.75.75,0,0,0-.92.52c-1.7,8,1.88,15.37,3,23.17.88,6.41-.21,15-7.47,17.15-6.16,1.83-13.15-2.16-16.33-7.37-4.15-6.8-3.67-15.39-2.93-23,1.15-11.86,3.17-25.05,10.53-34.83a23.79,23.79,0,0,1,15.07-9.44c8.44-1.38,16.85,1.81,24.84,4.1,10.38,3,25.28,4.78,32.22-5.72,4-6,3.26-13.74,2.92-20.58q-.66-13.45-1.16-26.93c-.27-7.39-2.41-18.77,4.81-23.65,2.93-2,6.86-1.91,9,1.18a8.21,8.21,0,0,1,.44,8.34c-1.63,2.95-5.24,4.18-8.45,4a12.05,12.05,0,0,1-9.1-5.08c-4.53-6.1-4.25-14.36-2.26-21.34,2-7.15,5.77-13.67,8.87-20.39,2.88-6.25,6.41-13.91,4.19-20.89a15.89,15.89,0,0,0-11.69-10.35,14.21,14.21,0,0,0-14.35,5.55c-3.22,4.27-4.33,10.15-2.08,15.11a15.92,15.92,0,0,0,13.06,8.85c6.38.51,11.56-3.53,15.26-8.35,4.12-5.37,7.29-12.12,5.49-19-1.48-5.62-5.83-10.21-10.87-12.9-6.07-3.26-13.07-3.57-19.72-2.18-7.76,1.62-14.57,5.47-21.44,9.24s-14,6.42-21.64,3.91c-6.59-2.17-11.25-8-10.65-15.08a12.17,12.17,0,0,1,4.07-8.32c2.94-2.46,7-2.88,10.54-3.8,5.07-1.31,9.13-4.11,11.24-9,1.92-4.45,2.19-9.48,2.37-14.26.37-10-.45-24.88,11.14-29.06a17.77,17.77,0,0,1,17.78,3.77c5.16,4.94,6.68,12.72,5.26,19.53-.67,3.2-2.17,8.6-5.67,9.7-3.13,1-6.86-1.09-9.07-3.21-3.78-3.63-5.2-9.11-4.85-14.22.36-5.37,2.78-10.76,7.22-14,5.28-3.82,12.16-4.58,18.4-3.15a29.33,29.33,0,0,1,15.84,9.61c.56.66,1.6-.19,1.18-.91-7.49-12.87-1.21-31.42,12.66-37a.75.75,0,0,0-.4-1.44c-8.16,1.71-17.27-3.13-20-11.13s1.22-17.1,8.53-20.94a.75.75,0,0,0-.57-1.37c-10.71,3.58-25.94,4.31-34.11-5-2.07-2.37-3.77-5.47-3.71-8.69.07-4,3.65-6.47,7.2-4.15,6.77,4.43,4.81,14.14,1.41,20-3.91,6.76-10.06,10.73-16.41,14.9-4.9,3.2-9.71,7.36-10.18,13.59A16.16,16.16,0,0,0,1127,131.2a13.28,13.28,0,0,0,15.41.4c4.68-3,8-8.61,7.27-14.29-.8-6.55-6.12-11.68-11.73-14.56-12.71-6.55-28-3.29-41,.76-8.11,2.54-16.19,5.43-24.62,6.77-7.89,1.25-16.75,1.2-23.75-3.13a15.2,15.2,0,0,1-6.62-7.58c-1.36-3.9,0-7.79,2.17-11.11a35.3,35.3,0,0,1,17.23-14.21,24.46,24.46,0,0,1,20.29,1.4c5.84,3.25,10.14,9.12,10,16-.12,6.09-3.47,12.46-9.17,15-6.35,2.86-13.81-.66-17-6.56a10.48,10.48,0,0,1-.41-9.76c2.27-4.51,7.26-4.47,10.71-1.31,4.58,4.2,4.4,11.39,1.47,16.47a13.41,13.41,0,0,1-6.6,5.88c-3.85,1.47-8.12.66-12.09.32a30,30,0,0,0-18,4.06c-10.4,6.13-17.75,18.25-16.5,30.51.8,7.91,5,15,5.56,23,.46,7-2.89,15.46-11.18,15.12-3.13-.13-6.4-2.17-6.23-5.63.13-2.69,2.34-6.19,5.33-6.19,4.09,0,5.19,5.62,4.84,8.75a14.26,14.26,0,0,1-5,9,12.34,12.34,0,0,1-17.85-1.21,13.68,13.68,0,0,1,0-18.19c2.28-2.69,5.12-4.84,7.62-7.32a26.29,26.29,0,0,0,5.72-8.21,26.66,26.66,0,0,0,.85-19.25c-1.91-5.44-6.27-10.1-12.45-8.05a8.32,8.32,0,0,0-4.92,12,8.6,8.6,0,0,0,12.46,3.34c4.07-2.83,5.52-8.45,5.4-13.17-.17-6.73-4-12.89-7.45-18.46-4.14-6.77-8.64-13.86-8.88-22-.21-7.06,3.56-13.46,10.8-14.83a9.43,9.43,0,0,1,8.06,1.84c3,2.63,3.2,6.87,2.19,10.45-2,7.06-8.18,12.49-14.46,15.79a45,45,0,0,1-20.73,4.89c-7.06,0-18-2.51-17.59-11.69a6.53,6.53,0,0,1,6.41-6.28c4.09-.11,5.75,4,4.45,7.44-1.49,4-5.77,5.56-9.62,6.24-4.07.73-8.55.93-12.52-.41a11.15,11.15,0,0,1-7.61-8A6.35,6.35,0,0,1,952,87.42c4.09-1,6.76,1.88,6.59,5.91a11.62,11.62,0,0,1-3.52,7.72c-4.3,4.31-10.94,6-16.87,6-7,0-13.89-2.83-20.88-.7a23.36,23.36,0,0,0-12.09,9.18,30.23,30.23,0,0,0-5.3,15.29c-.41,6.39,1.72,11.79,4.56,17.39,1.94,3.82,3.71,7.63,4.06,12,.32,3.92-.12,7.88.46,11.78,1,6.7,5.5,11.6,10.93,15.26,5.63,3.8,12,6.22,17.63,10.08s10.71,9.71,9.06,16.85c-1.35,5.81-7.76,12.13-13.6,7.22-5.32-4.45-4.3-13.21-1.24-18.6,3.42-6,10.9-10.54,17.48-6.41a10.79,10.79,0,0,1,5.26,8.16c.18,3.32-2.82,8.28-6.71,6.37-2.22-1.09-3.19-4.09-4.19-6.16s-2.22-4.41-4.3-5.71c-5-3.12-12.95-.48-17.54,2.33-4.2,2.57-8.07,7.55-5.67,12.67,1.82,3.88,6.72,5.31,10.69,4.57a8.78,8.78,0,0,0,7.22-9.88,12.65,12.65,0,0,0-10-10.8c-5.88-1-11.59,2.66-14.57,7.55-3.46,5.69-2.8,12.78.06,18.57,3.19,6.48,9.06,11.08,15.4,14.28,5.73,2.89,13.85,6.88,20.3,4.25,3.95-1.62,6.65-7.44,3.68-11.11-3.63-4.5-8.95-.15-10.46,3.83-4.29,11.35,10.25,22.47,20.7,19.33,4.57-1.38,10-7.07,6.24-11.85s-10.79-2.83-14.42.69a14.25,14.25,0,0,0-3.39,15.45c2.25,5.54,7.58,9.47,13.29,10.89,7.72,1.91,15.62-1.34,23.35.25,5.43,1.12,12.83,8.25,8.36,14-.58.76.47,1.82,1.07,1.06Z"/><path class="cls-25" d="M1270.1,89.29c-11.47-3-23.33,1-33,7.23-10.66,6.89-19.16,16.5-29,24.39-9.1,7.28-19.5,12.84-28.17,20.68a56.2,56.2,0,0,0-10.58,12.87c-3,5.08-5.47,10.5-8.32,15.68-2.71,4.92-5.83,9.88-10.34,13.34a26.2,26.2,0,0,1-13.77,5.5c-4.78.35-9.57-1.08-12.63-4.92-3.69-4.62-3.76-10.88-3.42-16.51.38-6.38,1-12.66.56-19.07a95.91,95.91,0,0,0-3.21-19.32c-1.44-5.21-3.27-10.64-7-14.68-3.22-3.46-8.08-5.53-12.82-4.64a9.63,9.63,0,0,0-7.83,8.4c-.49,4.32,1.48,8.7,4.14,12s6.74,6.13,11.2,6.21c3.75.06,7.39-3,5.88-7a7.42,7.42,0,0,0-9.61-4.09c-4.35,1.89-6.4,6.86-7,11.28-1.59,12.67,5.87,23.81,10.06,35.2,3.73,10.13,5.7,23.75-4,31.31-7.87,6.17-19.29,4.64-28,1.21-9.61-3.79-18.52-14-29.71-11.54-5.16,1.16-9.38,4.86-12.76,8.76s-7.19,8.6-6.89,13.92c.23,4.09,3.15,8.34,7.62,8.14,4.63-.22,7.94-4.63,8.44-8.93.52-4.49-1.63-8.89-4.59-12.14-3.62-4-8.47-6-13.71-6.84-11.32-1.84-23.62,1.33-34.12-4.5a15.84,15.84,0,0,1-8.5-13.93c-.13-5.56,1.2-12.62,5.55-16.5,3.5-3.13,10.17-3.32,12.3,1.52l.12-.91c-5.28,4.23-12.39-1.58-14.8-6.38a26,26,0,0,1-.3-21.76c5.21-11.64,18.3-17.92,21.4-30.8,2.71-11.24-2-24.65-12.64-30.1-5-2.56-11.32-3-15.75.89-3.63,3.2-5.44,9-2.34,13.15,2.72,3.67,7.95,4.34,12.06,2.95,5.24-1.78,8.09-6.78,8.8-12.06C995.36,63,982.24,51.11,985,36.79c2.55-13,18.84-14.36,27.69-6.82,5.11,4.36,7.95,10.76,9.42,17.19,1.61,7.05,1.07,14.21,2.08,21.32.82,5.82,3.5,12,9.13,14.57,5.1,2.35,10.58.24,13.91-4,4.17-5.29,4.14-12.12,2.59-18.39a49.06,49.06,0,0,0-3.42-10.1c-1.19-2.36-3.27-4.17-6-4.16-6.15,0-10.46,6.71-13.18,11.38a54.14,54.14,0,0,0-6.82,19.57c-.77,5.43-1.72,13.24,2.92,17.32,4.32,3.8,11,3.46,15.95,1.27,13-5.78,15.76-20.75,16-33.53.16-7.79-.32-15.67,1.22-23.36a34.74,34.74,0,0,1,9.74-18.26c4.79-4.66,11.56-8.69,18.47-8.26,7.76.49,10.62,7.49,13.26,13.7,4.76,11.18,14.14,22.81,27.71,21.05a14.74,14.74,0,0,0,12.14-9c1.83-4.57,1.46-10.3-2.17-13.9-3.94-3.94-10.16-4.06-15.06-2-5.74,2.38-9.45,7.65-11.89,13.16a69.66,69.66,0,0,0-5.81,20.66c-.67,6.48.43,13.15,4.44,18.44,3.46,4.56,8.74,7.42,14.56,6.81,6.5-.67,12.07-4.94,16.45-9.52,8.7-9.08,15.48-22.4,28.12-26.56,5.08-1.67,11-2,16,.28,6,2.77,8.13,8.8,8,15.08-.1,6.57-1.91,13.33,0,19.8a20.08,20.08,0,0,0,10.69,12.24c12.61,5.92,24.66-3.66,32.65-12.65,4.87-5.47,9.43-11.38,15.55-15.53a39.35,39.35,0,0,1,20.58-6.74c6.62-.24,13.79,1.34,18.82,5.9A15.51,15.51,0,0,1,1293.25,80c-2,6-8.12,8.56-14,6.94a20.64,20.64,0,0,1-13-11.55c-3.08-7-3.24-14.89-4-22.42-.56-6-1.19-13-5.57-17.51S1245.6,31,1239.86,32.1a34.68,34.68,0,0,0-15.7,7.1c-4,3.39-7.15,8.51-6.56,13.92a15.3,15.3,0,0,0,7.93,11.77A9.7,9.7,0,0,0,1237.74,62c3-4,3.22-9.42,2.49-14.14-1.74-11.41-9.13-22.68-18.11-29.74s-20.7-10.35-31.81-6.75c-10,3.24-19.22,11.47-21.1,22.19-2.07,11.82,5.33,22.9,15,29.05,12.21,7.78,27.62,7.87,41.55,6.66,13-1.13,26.48-3.78,37.66-10.92A57,57,0,0,0,1277,45.77c3.81-4.73,7.26-9.76,11.4-14.22s9.15-8.36,15.18-9.86a26.27,26.27,0,0,1,18.54,2.43c11.7,6.31,16.25,21.74,10.16,33.54-4.84,9.4-18.81,15.6-27.85,8.17l-.15,1.17c5.25-3.51,12-2.55,17.11.78,6,3.92,8.75,10.91,9.08,17.87.65,13.55-6.28,26.37-13,37.63-6.45,10.74-13.8,21.15-18.25,32.94a51.32,51.32,0,0,0-3.54,17.51c-.07,5.38.75,11.5,4.67,15.55,4.61,4.76,10.91,2.84,15.55-.75,4.92-3.81,11-9.06,12.38-15.44,1-5-.91-11-6.33-12.28-5.73-1.37-11.36,3.14-14.54,7.44-7.73,10.42-9.65,24.85-5.4,37.05,4.77,13.72,18.1,22.24,22.08,36.38,2.09,7.41,2,15.26,1.18,22.85s-2.18,15.26-5,22.32a39.69,39.69,0,0,1-13.89,17.38c-6.35,4.64-13.34,8.45-20.07,12.51L1264,330.09c-3.58,2.15-7.13,4.34-10.73,6.45a38.3,38.3,0,0,1-11,4.78c-8.43,1.85-16.8-1.86-24.36-5.17a133.6,133.6,0,0,1-17.13-8.68c-5.33-3.33-10.37-7.38-14-12.59-4.36-6.33-5.77-13.73-5.49-21.33.55-15.06,5.11-30.22,12.11-43.5a106,106,0,0,1,5.77-9.68,48.29,48.29,0,0,1,7-9c2.55-2.34,6.81-4.35,9.55-1.11,1.88,2.22,1.89,5.7,1,8.33-3.82,11.52-19.87,12.58-29.05,7.67-12.46-6.68-17.34-21.33-21.56-33.84-2.13-6.32-4.89-12.84-10.73-16.58-4.46-2.85-10.49-3.56-14.76,0-3.51,2.94-5,7.91-4.52,12.36a12.85,12.85,0,0,0,8.13,10.68,18.17,18.17,0,0,0,15.48-1.39c4.88-2.8,7.42-7.77,10.05-12.52,2.49-4.5,5.35-9.57,10.9-10.42,1-.15.55-1.6-.4-1.45-11.37,1.76-12,17.45-20.9,22.85-5.08,3.11-12.14,3.68-17.16.14-4.49-3.17-5.66-9.13-3.91-14.15a10,10,0,0,1,13.59-6.23c7.55,2.91,10.72,10.86,13.07,17.95,4.06,12.22,8.93,25.43,20.2,32.82,8.36,5.48,21.17,5.88,28.81-1.15,3.66-3.37,6-8.78,4.21-13.7a6.72,6.72,0,0,0-4.6-4.4c-2.77-.71-5.49.59-7.61,2.3-2.64,2.14-4.64,5-6.59,7.78a108.25,108.25,0,0,0-6,9.53,109.42,109.42,0,0,0-8.69,20,107.75,107.75,0,0,0-4.5,21c-.84,7.58-.78,15.43,2.34,22.53,5,11.35,16.21,18.32,26.94,23.54,6.35,3.08,13,6.27,19.79,8.14a29.2,29.2,0,0,0,11.23,1,30.21,30.21,0,0,0,10.33-3.56c7.43-3.92,14.53-8.61,21.72-12.94l21.88-13.17c6.2-3.73,12.61-7.37,17.88-12.4A41,41,0,0,0,1323,283.31a99.8,99.8,0,0,0,3.94-21.62c.61-7.42.32-15.07-2-22.18-4.57-13.75-17.87-22.25-22.05-36.18a39.85,39.85,0,0,1-.62-20.31c1.5-6.54,4.71-13.57,10.07-17.84,2.61-2.08,6.22-3.86,9.62-2.79s5,4.34,5,7.64c.18,7.16-6.57,12.92-11.68,17-3,2.39-6.86,4.62-10.77,3.27-3.11-1.07-5-4-6.11-7-2.07-5.73-1.59-12.46-.34-18.32,2.66-12.46,9.77-23.43,16.39-34.1s13.8-22,16.49-34.62c2.56-12,.17-26.57-12.44-31.64-4.92-2-10.56-1.92-15,1.08a.76.76,0,0,0-.15,1.18c7.85,6.45,19.4,3.66,26.19-3,8-7.83,8.79-21,3.74-30.58-5.22-9.95-16.88-15.17-27.84-13.5-11.51,1.76-19,11.21-25.61,19.89-3.63,4.74-7.28,9.54-11.83,13.46a53.67,53.67,0,0,1-16.92,9.56c-12.57,4.52-26.7,6-40,5.61-13.52-.43-27.68-4.55-35.8-16.13a25.09,25.09,0,0,1-4.8-16.53,24.58,24.58,0,0,1,7-14.56,31.21,31.21,0,0,1,31-8.45c11.51,3.38,20.57,12.55,25.93,23,2.59,5.06,4.65,10.66,4.67,16.41,0,5.09-2,11.29-7.73,12.32-5.52,1-10.28-4.21-11.75-9-1.78-5.8,1.22-11.39,5.62-15.12s10.39-6,16.14-6.91a20.25,20.25,0,0,1,10.11.48,12,12,0,0,1,6.88,7c2.68,6.33,2.49,13.7,3.17,20.43.64,6.23,1.65,12.95,5.24,18.25,5.13,7.59,17.32,13.74,25,5.9,3.39-3.49,4.32-8.71,3.4-13.36a18.14,18.14,0,0,0-9.4-12.19c-10.93-6-25.33-3.76-35.62,2.52-11.64,7.11-17.68,20.43-29.45,27.34-5.69,3.35-12.58,4.72-18.76,1.83a18.48,18.48,0,0,1-10.54-13.93c-1.55-10.68,4.94-24.91-6.33-32.19-8.41-5.44-20.09-2.56-27.5,3.2-10.28,8-15.92,20.81-26.86,28-5.6,3.66-12.58,5-18.35.95-5.51-3.89-8-10.7-8.11-17.24-.1-7.29,2.19-14.68,4.77-21.43,2.31-6.06,5.85-12.38,12.11-15,5.41-2.27,12.73-1.52,15.4,4.41,2.25,5,.34,11.56-4,14.82-5.41,4.09-13.19,3.52-18.92.41s-9.69-8.51-12.55-14.17c-2.6-5.15-4.06-11.53-8.69-15.35s-11.14-3.42-16.48-1.28c-11.75,4.71-19.34,16-21.2,28.26-2.12,14,1.6,29.35-4.82,42.54-2.73,5.61-7.71,10.41-13.83,12.07a14.27,14.27,0,0,1-9.28-.48c-3.52-1.51-5-4.74-5.3-8.4-.55-6.81,1-14,3.37-20.34a51.77,51.77,0,0,1,4.66-9.33c1.81-2.87,3.84-5.78,6.76-7.63,3.38-2.14,7-1.82,8.91,2a46.73,46.73,0,0,1,3.43,10.39c1.55,6.74,1,14.68-5.16,19-5.7,4-12.21.73-15.32-4.8-3.63-6.42-2.61-14.35-3.28-21.42-1-10.9-5-23.65-15.76-28.61-8.67-4-20.52-2.35-24.5,7.32-5.43,13.18,5.84,25.31,7.41,38,.71,5.78-.48,13.09-6.13,16.09-4.38,2.33-11.35,1.71-13-3.72-2-6.28,4.55-11.75,10.32-11.66,6.65.1,12.48,4.92,15.74,10.41a27.09,27.09,0,0,1,3.55,17c-.79,6.45-4.23,11.73-8.48,16.48-4,4.49-8.55,8.61-11.7,13.8a27.75,27.75,0,0,0-3.74,18.11c.74,5.42,2.95,10.63,7.4,14,3.63,2.74,8.42,3.88,12.21.85a.77.77,0,0,0,.12-.91c-1.57-3.57-5.65-5-9.32-4.4-4.37.66-7.43,4.16-9.09,8.06a28.19,28.19,0,0,0-1.91,15.42,16.77,16.77,0,0,0,7.46,11c8.86,5.88,19.75,4.59,29.81,5,5.79.22,12,1.05,16.68,4.71,3.7,2.87,6.81,7.4,6.71,12.25a9.24,9.24,0,0,1-3.24,7c-2.36,1.92-5.65,2.19-7.85-.11-4.42-4.6-.84-11.13,2.32-15.24,3.3-4.3,7.35-8.71,12.62-10.5,5.83-2,11.5.34,16.52,3.32,4.33,2.56,8.38,5.46,13,7.41a43.18,43.18,0,0,0,13.08,3.26c8.56.7,17.43-2.11,21.93-9.89,5.17-8.92,2.59-20.23-1-29.22-4.31-10.77-11.73-22.51-9-34.62,1-4.61,5.34-11.08,10.81-7.86,2.06,1.21,3.74,3.85,2.16,6.1s-4.6,1.91-6.81,1.25c-7.69-2.28-16.69-16.29-7.41-22.06,4.81-3,11.1-.53,14.57,3.32,3.82,4.24,5.51,10.06,6.9,15.47a93.83,93.83,0,0,1,2.84,19.65c.22,6-.46,11.87-.74,17.83-.22,4.81,0,9.92,2.4,14.22a14.71,14.71,0,0,0,9.48,7.15c8.23,1.94,17.41-2,23.18-7.82,7.74-7.82,11.17-18.85,16.88-28,6-9.68,15.12-16.28,24.39-22.58,4.5-3,9-6.08,13.27-9.46,4.7-3.73,9.08-7.85,13.52-11.89,8.93-8.12,18.48-16.11,30.39-19.27a33.16,33.16,0,0,1,16.9-.27.75.75,0,0,0,.4-1.45Z"/><path class="cls-25" d="M1138.72,421.66c2.87-4.39,1.6-7.77-.34-10l-7.59-2.3-3.54,3.84-5.22-3.64-2.06,2.56-6.06-3.43,5.84,1.68,1.84-3.41,5.38,3.37,3.17-3.52,5.09.5c4.66-4.62,6.14-16.85-6.33-17.07-11-.21-21.51,21-21.51,21S1128.93,436.67,1138.72,421.66Z"/><polygon class="cls-25" points="1214.82 284.22 1221.64 291.48 1212.38 292.19 1214.66 297.92 1194.41 299.84 1210.08 294.03 1203.25 288.13 1214.82 284.22"/><path class="cls-25" d="M934,167.75S911,164.24,909.28,151c-1.51-11.69,3.56-34.31,39.06-24.2,38.52,11,30.44,38.93,18.82,44.62a23.09,23.09,0,0,1-20.08.45s.27,11.56-1.88,10.73S934,167.75,934,167.75Z"/><path class="cls-26" d="M933.87,145.3a3.67,3.67,0,1,1-2.39-4.6A3.66,3.66,0,0,1,933.87,145.3Z"/><path class="cls-26" d="M948.5,149.93a3.67,3.67,0,1,1-2.39-4.61A3.67,3.67,0,0,1,948.5,149.93Z"/><path class="cls-26" d="M963.14,154.56a3.67,3.67,0,1,1-2.4-4.61A3.68,3.68,0,0,1,963.14,154.56Z"/><path class="cls-25" d="M1079.38,137.73c34.67,8.38,22.06,58.68-5.05,55.21C1025.12,186.64,1044.31,129.27,1079.38,137.73Z"/><path class="cls-27" d="M1064.6,171.54s7.66-3.54,13.74,2.47"/><path class="cls-26" d="M1068,161.8a3.31,3.31,0,1,1-2.16-4.16A3.31,3.31,0,0,1,1068,161.8Z"/><path class="cls-26" d="M1086.55,165.6a3.31,3.31,0,1,1-2.16-4.16A3.32,3.32,0,0,1,1086.55,165.6Z"/><line class="cls-28" x1="1078.57" y1="163.13" x2="1088.96" y2="160.28"/><line class="cls-28" x1="1070.38" y1="161.3" x2="1062.37" y2="154.09"/><path class="cls-25" d="M1212.32,383.27c18.81,15.46-3.9,42.62-19.53,32.43C1164.42,397.18,1193.28,367.63,1212.32,383.27Z"/><path class="cls-27" d="M1193.92,399s7.33-2,7.5,5.88"/><path class="cls-26" d="M1198.57,394a2.26,2.26,0,1,1-.09-3.2A2.26,2.26,0,0,1,1198.57,394Z"/><path class="cls-27" d="M1200,391.14s-3.46,0-4.66-1.71"/><path class="cls-7" d="M700.48,830.43c4.82-33.1,8.66-70.27-11.65-96.84-20-26.11-58-34.05-76.23-61.4C596.93,648.71,600,617,587.17,591.88c-15.7-30.72-52.11-45.4-86.5-48.26-29.37-2.44-62.51.65-84.5-19-8.48-7.57-14.21-17.81-22.62-25.46-20.38-18.53-51.07-18.05-78.61-17.3s-41.45-12.56-76.82-21.71c23.47,10.26,33,38.4,36.2,63.81s3.26,52.68,17.4,74c22.37,33.81,72.16,40.86,94.33,74.81,11.31,17.31,13.6,39.13,23.78,57.12,12.95,22.87,37.45,37.17,62.69,44.49s51.76,8.66,77.83,11.92c15.44,1.92,31.16,4.66,44.74,12.25,11.81,6.6,21.45,16.58,33.21,23.27,22.51,12.82,49.92,12.28,75.81,11.38"/><path class="cls-29" d="M307,505.31c14,8,23.7,21.1,33.42,33.56a189.72,189.72,0,0,0,15.42,18.07,100.06,100.06,0,0,0,19.54,15c14.44,8.62,30.4,14.22,45.93,20.5,15.83,6.42,31,13.94,44.23,24.83,26.1,21.4,44.42,50.28,65.75,76.05,11.49,13.87,24,27.45,39.75,36.54,16,9.21,33.94,14.17,50.16,22.88a196.22,196.22,0,0,1,72.63,67.52c2.22,3.5,4.31,7.07,6.3,10.7,1.16,2.12,4.4.23,3.24-1.89a200.17,200.17,0,0,0-67.95-72.36,193,193,0,0,0-22.32-12.2c-8.48-3.94-17.27-7.14-25.84-10.84a114.36,114.36,0,0,1-25.12-14.31,153.23,153.23,0,0,1-19.91-19C519.63,675.1,501.74,645.76,477,622.4a151.26,151.26,0,0,0-41.46-27.9c-15.47-7.07-31.71-12.35-47-19.76a120.28,120.28,0,0,1-21.83-13.21,111.27,111.27,0,0,1-16.9-16.92c-10.13-12.22-18.95-25.85-31.36-36a70.37,70.37,0,0,0-9.5-6.56c-2.1-1.19-4,2.05-1.9,3.24Z"/><path class="cls-29" d="M307.62,577.5a162.63,162.63,0,0,1,55.9-5.1,158.75,158.75,0,0,1,15.81,2.12c2.36.44,3.37-3.18,1-3.62a167.24,167.24,0,0,0-57.63-.53c-5.41.9-10.78,2.08-16.07,3.51-2.33.63-1.34,4.25,1,3.62Z"/><path class="cls-29" d="M377.18,509.27c-1,18.69,3,37.23,8.69,54.94,1.65,5.09,3.44,10.13,5.31,15.14.84,2.24,4.46,1.27,3.62-1-6.43-17.21-12.06-35-13.61-53.41a117.08,117.08,0,0,1-.26-15.67c.12-2.41-3.63-2.41-3.75,0Z"/><path class="cls-29" d="M360.56,620.32A232.35,232.35,0,0,1,400.49,613a283.65,283.65,0,0,1,40.38-1.41,77.31,77.31,0,0,1,21.87,3.75c2.29.79,3.27-2.83,1-3.62-12.89-4.43-26.84-4.26-40.29-3.89a298.33,298.33,0,0,0-41,3.81,220.5,220.5,0,0,0-22.86,5.09c-2.32.65-1.34,4.27,1,3.62Z"/><path class="cls-29" d="M494.06,558.06c1.53,26.41-1.66,53.1,3.28,79.26a106,106,0,0,0,6,20.45,1.94,1.94,0,0,0,2.31,1.31,1.89,1.89,0,0,0,1.31-2.3c-9.86-24-8.79-50.43-8.65-75.9,0-7.61,0-15.22-.45-22.82-.14-2.4-3.89-2.42-3.75,0Z"/><path class="cls-7" d="M683.81,808.36c-5.06-32.29,17.94-62.63,44.37-81.87a201.46,201.46,0,0,1,73.4-33.4c32.24-7.37,67.68-7.31,94.91-26.1,15.82-10.92,27.1-27.15,41.16-40.25A133.64,133.64,0,0,1,1027,591.25c19-.12,38.17,3.86,57,1,30.69-4.71,58.36-27.34,89.21-23.83a215,215,0,0,0-81.64,117c-7.59,27.69-10,57.87-26.5,81.37-18.48,26.33-50.85,38.75-81.94,47s-63.84,14.2-90.18,32.65c-15.39,10.77-28.37,25.66-46,32-27,9.77-56.64-3-81.86-16.84s-52.28-29.46-80.74-25.42"/><path class="cls-29" d="M687.32,829.14a100.29,100.29,0,0,1,77-52.81c33.67-3.9,71.45,5.69,101.86-13.49,25-15.79,37.83-45.94,64.6-59.32,15.82-7.91,34.07-6.91,51.11-9.68,8.32-1.35,16.53-3.7,23.79-8.08a73.24,73.24,0,0,0,17.09-15C1033,659,1041,645.24,1053,635c7.19-6.19,15.53-10.87,23.9-15.25,9.1-4.77,18.26-9.41,27.4-14.11l13.6-7c2.15-1.11.25-4.34-1.89-3.24l-28,14.38c-8.69,4.46-17.52,8.74-25.82,13.92a91.56,91.56,0,0,0-19.88,16.56c-5.22,5.83-9.83,12.16-14.58,18.36s-9.64,12.31-15.45,17.53A54.21,54.21,0,0,1,990.93,688c-17.11,4.93-35.39,3.19-52.45,8.41-29.62,9.06-43.86,38.8-66.42,57.48a69.61,69.61,0,0,1-20.7,12A97.39,97.39,0,0,1,825.84,771c-17.86,1.39-35.78-.22-53.65.91-16.62,1-32.62,5.05-47.19,13.27a104.66,104.66,0,0,0-34.93,32,98,98,0,0,0-6,10.06c-1.11,2.14,2.12,4,3.24,1.89Z"/><path class="cls-29" d="M1022.62,606.6a175.11,175.11,0,0,1-10.13,58.28q-2.84,8-6.44,15.61c-1,2.18,2.21,4.08,3.24,1.9a179.47,179.47,0,0,0,16.2-58.43q.87-8.65.88-17.36c0-2.41-3.74-2.42-3.75,0Z"/><polygon class="cls-30" points="629.06 264.1 621.32 264.1 621.32 256.36 614.5 256.36 614.5 264.1 606.76 264.1 606.76 270.91 614.5 270.91 614.5 278.65 621.32 278.65 621.32 270.91 629.06 270.91 629.06 264.1"/><polygon class="cls-31" points="875.91 300.05 869.24 300.05 869.24 293.38 863.36 293.38 863.36 300.05 856.69 300.05 856.69 305.93 863.36 305.93 863.36 312.6 869.24 312.6 869.24 305.93 875.91 305.93 875.91 300.05"/><polygon class="cls-31" points="412.65 432.49 406.04 431.56 406.97 424.95 401.15 424.13 400.22 430.74 393.61 429.81 392.8 435.63 399.41 436.56 398.48 443.17 404.3 443.99 405.22 437.38 411.83 438.3 412.65 432.49"/><path class="cls-32" d="M619.46,711.13c-1.53-33.5-10.51-66-20-97.94-4.66-15.62-9-31.5-16.91-45.89-7.23-13.23-16.84-25-26.71-36.34-4.9-5.62-9.9-11.15-14.79-16.77-2.42-2.78-4.81-5.57-7.14-8.42-1.15-1.41-2.3-2.84-3.42-4.27l-.44-.57-.61-.79-1.79-2.4a155,155,0,0,1-11.83-18.45c-.85-1.59-1.68-3.2-2.46-4.83-.35-.74-.7-1.48-1-2.23l-.59-1.35a3.38,3.38,0,0,1-.26-.6,91.08,91.08,0,0,1-3.52-10.12,76.14,76.14,0,0,1-2.21-10.45c.15,1.07-.05-.53-.06-.6-.06-.49-.11-1-.15-1.46-.08-.81-.14-1.63-.18-2.44-.09-1.59-.14-3.18-.08-4.76q0-1.17.15-2.34c0-.26.06-.52.08-.79.14-1.33-.2,1.09,0-.23s.52-2.85.91-4.26c.21-.75.44-1.5.7-2.24.12-.35.87-2.12.35-1A28.53,28.53,0,0,1,509.4,426c.2-.31.42-.61.63-.91.69-1-.71.76.11-.14.4-.45.79-.91,1.22-1.33a16.49,16.49,0,0,1,1.33-1.18c-1,.83-.08.09.14-.06s.6-.38.91-.55.63-.33,1-.49c1.07-.56-1,.29.14-.05.6-.17,1.17-.38,1.78-.51.21-.05,1.49-.2.37-.1.29,0,.59-.05.88-.06s.88,0,1.32,0,1.32.16.42,0a17.65,17.65,0,0,1,2.58.63l.83.29c1.33.48-.78-.48.45.21.66.37,1.33.7,2,1.11.38.24.75.5,1.13.76.92.64-.34-.36.42.34s1.36,1.22,2,1.89l.61.68c.06.07,1,1.24.35.4a29.16,29.16,0,0,1,2.78,4.6,28.4,28.4,0,0,1,1.71,4.35c.57,1.75,1,3.53,1.45,5.33.85,3.67,1.48,7.39,2.16,11.1,1.43,7.86,2.83,15.73,4.11,23.62q1,6,1.85,12.06c.58,4,1,7.05,1.48,11.34.94,8,1.67,16,2.06,24q.29,5.86.3,11.74a5,5,0,0,0,10,0c0-16.85-1.87-33.65-4.28-50.32-1.19-8.19-2.54-16.36-4-24.51-1.36-7.72-2.5-15.58-4.42-23.19s-5.11-15.11-11.11-20.19-13.91-7.88-21.53-5.37c-13.1,4.31-17.73,19.76-17.28,32.24,1.13,31.32,21,57.44,40.87,80,5.09,5.79,10.25,11.52,15.27,17.37s9.37,11.16,13.65,17.21a133.26,133.26,0,0,1,11.61,19.42,168.62,168.62,0,0,1,8.46,22.59c5,16.24,9.9,32.58,14.14,49,2.14,8.3,4.08,16.66,5.71,25.07s2.8,16.06,3.62,24.31q.6,6.18.89,12.38c.12,2.61,2.21,5.12,5,5,2.61-.12,5.13-2.2,5-5Z"/><path class="cls-32" d="M585.72,570.71c-4.13-13.22-8.23-26.48-11.15-40q-1.1-5.05-1.94-10.15c-.13-.81-.26-1.62-.38-2.43l-.21-1.45c-.14-1,0-.35,0-.13-.23-1.78-.44-3.56-.61-5.35a128.48,128.48,0,0,1-.43-20.48c.1-1.63.24-3.26.41-4.89.09-.81.19-1.62.29-2.43-.14,1.07.08-.52.09-.6.07-.48.14-1,.22-1.44.53-3.37,1.2-6.72,1.91-10.06,1.44-6.68,3.12-13.31,4.46-20A127.43,127.43,0,0,0,581,430.56a105.87,105.87,0,0,0-1.32-19.88,103.29,103.29,0,0,0-13.33-36.55c-3.37-5.69-7.13-11.15-10.26-17-.74-1.37-1.44-2.76-2.08-4.18-.13-.28-.25-.55-.37-.83-.61-1.35.33.92-.2-.47-.32-.85-.65-1.69-.94-2.55-.49-1.43-.91-2.89-1.26-4.36-.17-.73-.32-1.47-.45-2.21,0-.29-.1-.59-.14-.88.19,1.16-.07-.69-.09-.9a31.35,31.35,0,0,1-.09-4.44c0-.3,0-.59,0-.89s.2-1.62,0-.43c.13-.88.3-1.76.51-2.62.17-.67.37-1.34.59-2,.09-.23.18-.46.26-.69.42-1.19-.48.95.08-.18a32.32,32.32,0,0,1,2.1-3.54c.15-.22.42-.78-.1.12a5.38,5.38,0,0,1,.72-.86q.62-.71,1.29-1.35a8.06,8.06,0,0,1,1.4-1.22c-.89.48-.37.27-.13.11.41-.28.81-.56,1.23-.82s1-.61,1.59-.88a5.19,5.19,0,0,0,.66-.31l-.52.22.67-.25a18,18,0,0,1,1.73-.51l.7-.14c.56-.1.47-.09-.26,0l.72-.07a15.61,15.61,0,0,1,1.81,0,5,5,0,0,0,.73.05l-.6-.09.76.14a14.67,14.67,0,0,1,1.84.49,2.91,2.91,0,0,1,.71.26c-.6-.27-.65-.29-.14-.06l.68.33c.57.3,1.12.62,1.65,1l.63.43c1.06.72-.75-.7.2.16a35.74,35.74,0,0,1,3,3c.15.18.55.75-.06-.09.23.31.46.63.68.95.36.53.71,1.08,1,1.64s.67,1.22,1,1.84l.39.83,0,.07.33.85a52.81,52.81,0,0,1,2.36,9.09c.28,1.59.52,3.18.75,4.78,0,.3.08.61.13.91s.21,1.62.05.42c.11.8.21,1.61.32,2.41.38,3.08.72,6.18,1,9.27a181.94,181.94,0,0,1,.82,18.67c0,3.09-.15,6.18-.4,9.26-.11,1.46-.25,2.92-.42,4.37,0,.37-.09.73-.13,1.09-.16,1.41.1-.67,0,.19s-.23,1.59-.36,2.38a90,90,0,0,1-4.65,17.61c-.26.68-.53,1.35-.8,2,.43-1.06-.13.28-.18.41l-.45,1c-.64,1.4-1.32,2.77-2,4.13-1.22,2.31-.66,5.54,1.79,6.84a5.09,5.09,0,0,0,6.85-1.8c12.42-23.47,12.16-50.86,8.85-76.54-.88-6.81-1.65-13.81-4.25-20.23-2.5-6.19-6.46-11.84-12.36-15.22a20.75,20.75,0,0,0-18.07-1.38,26.46,26.46,0,0,0-13.71,12.65c-6.44,13.07-1.77,28,5,39.92,3.37,6,7.3,11.6,10.66,17.57,1.64,2.91,3.1,5.91,4.46,9,.07.16.37.89,0,.06l.52,1.26c.28.71.55,1.41.82,2.12q.87,2.34,1.63,4.72,1.5,4.77,2.53,9.66c.33,1.56.62,3.12.87,4.69.06.37.12.75.17,1.12,0,.14.22,1.63.07.47.12.9.22,1.81.31,2.71a97.3,97.3,0,0,1,0,19.53c-.08.81-.18,1.61-.27,2.42a3.09,3.09,0,0,1-.08.6c-.07.48-.14,1-.22,1.44-.27,1.77-.58,3.53-.91,5.28-.67,3.52-1.44,7-2.24,10.5-1.55,6.81-3.21,13.62-4.35,20.52a138,138,0,0,0,.26,44c2.2,14.18,6.07,28,10.25,41.75q1.51,4.95,3.07,9.9a5,5,0,1,0,9.64-2.66Z"/><path class="cls-32" d="M572.77,461c9.36-17.31,19.45-34.72,34.26-47.7,7-6.17,15.39-11.35,24.69-12.48,5.59-.68,11.89.45,15.47,4.81a17.26,17.26,0,0,1,3.35,9.11c2,18.22-11.42,35.2-27.65,43.71A72.81,72.81,0,0,1,592,466.67c-7.07.27-15.06-.17-20.13,4.76"/><path class="cls-32" d="M595.8,596.26c.33-4.79-.27-9.7-.69-14.47-.53-6-1.17-12-1.59-18.08-.17-2.34-.31-4.69-.28-7,0-3.42.44-6.88.77-10.28.11-1,.22-2.09.34-3.12.07-.52.13-1,.2-1.56-.14,1,.1-.62.14-.88.31-2.06.69-4.11,1.16-6.13a59.64,59.64,0,0,1,1.75-6.18c.33-1,.7-1.95,1.09-2.91l-.07.18L599,525c.22-.47.44-.93.68-1.39a38,38,0,0,1,2.77-4.63c.25-.36.5-.71.76-1.06.57-.77-.47.57.14-.17s1.2-1.42,1.84-2.1,1.22-1.24,1.86-1.82c.32-.29.64-.58,1-.86l.57-.47c.47-.39.1-.14-.14.1a17.55,17.55,0,0,1,4.48-2.79c.18-.09,1.1-.4,1.15-.54s-.9.35-.37.15l.68-.26a22.72,22.72,0,0,1,2.58-.81l1-.24.77-.16c-.75.16.56-.05.78-.07.5,0,1-.06,1.49-.06s.92,0,1.38,0c.27,0,.53.05.79.06.6,0-.31-.06-.34-.05a9.07,9.07,0,0,1,2.87.7,1.73,1.73,0,0,1,.55.2c-.23-.32-.67-.33-.12,0s.8.42,1.19.66,1.15,1,.4.25c.36.36.75.68,1.09,1.05.13.14.24.29.37.43.46.51-.45-.73-.12-.13.21.38.47.72.68,1.1a9.52,9.52,0,0,1,.51,1s-.34-.92-.08-.16c.08.23.17.47.25.71a19,19,0,0,1,.65,2.57c0,.09.11.75.12.75s-.1-1-.06-.38.09,1,.11,1.52c.05.91,0,1.83,0,2.74,0,.48-.06,1-.1,1.43,0,.2,0,.41-.06.61-.06.58,0,.76,0,.09a21.88,21.88,0,0,1-1.27,5.73c-.25.84-.53,1.68-.83,2.5l-.51,1.33c-.06.15-.4,1-.14.35s-.11.24-.16.34a59.17,59.17,0,0,1-2.72,5.32c-1,1.74-2.09,3.45-3.23,5.11-.56.81-1.13,1.6-1.71,2.39-.29.4-.58.79-.88,1.18l-.38.51c-.47.62.72-.91-.12.15-9.92,12.53-22.55,23.49-28.94,38.46a56.59,56.59,0,0,0-2.36,6.41,5,5,0,1,0,9.64,2.66c.29-1,.61-2,1-2.93.16-.45.34-.89.51-1.34.07-.2.37-.89,0,.06l.33-.75a57,57,0,0,1,2.8-5.44c1-1.77,2.16-3.5,3.34-5.18.59-.84,1.2-1.68,1.82-2.5.2-.27,1-1.24.35-.47l1-1.31c5.22-6.51,11.07-12.48,16.32-19,5.63-6.93,10.65-14.3,13.73-22.73,3-8.13,4-17.78.25-25.82-4.16-9-14.61-11.41-23.58-9.58-7.76,1.59-14.71,6.66-19.55,12.81-5.56,7.06-8.7,15.49-10.3,24.29-.86,4.69-1.38,9.45-1.78,14.21a81.48,81.48,0,0,0-.46,8.83c.3,11.66,2.44,23.21,2.61,34.87,0,.95,0,1.89-.06,2.82a5,5,0,0,0,5,5,5.1,5.1,0,0,0,5-5Z"/><path class="cls-32" d="M597.46,611.72A164.6,164.6,0,0,0,553.56,566a157.86,157.86,0,0,0-26.73-15.21c-10-4.46-20.72-8.72-31.75-9.57-10.71-.82-21.85,3.45-26.79,13.5-4.36,8.87-3.87,19.2.09,28.1,4.14,9.31,13.08,16.09,22.19,20.07,9.94,4.34,20.47,6.22,31.17,7.51,10.87,1.31,21.8,1.94,32.7,2.87,5.43.46,10.85,1,16.26,1.69,1.33.17-.73-.11.09,0l1,.14,2,.3c1.32.2,2.65.42,4,.65,2.52.44,5,.94,7.51,1.52s4.77,1.2,7.11,1.93a5,5,0,0,0,6.15-3.49,5.11,5.11,0,0,0-3.49-6.16c-9.91-3.07-20.28-4.53-30.57-5.63-10.61-1.15-21.26-1.78-31.88-2.72-2.58-.23-5.15-.47-7.72-.75l-3.56-.41-1.76-.22c-.3,0-1.23-.14,0,0l-1.15-.17a115.38,115.38,0,0,1-14.27-2.82,72.08,72.08,0,0,1-7-2.29l-1.44-.57c-1.17-.47.67.31-.05,0l-.88-.4q-1.67-.75-3.27-1.62c-1.06-.57-2.1-1.18-3.12-1.84l-1.26-.84-.77-.54c-.12-.09-1.13-.85-.56-.41s-.35-.28-.38-.31l-.58-.48q-.72-.62-1.41-1.26A35.78,35.78,0,0,1,480.9,584a7.28,7.28,0,0,1-1.1-1.32c.44.84.26.34.09.1l-.46-.65a26.19,26.19,0,0,1-1.65-2.74q-.33-.63-.63-1.29a4.11,4.11,0,0,0-.26-.59c.29.08.39,1,.08.15s-.72-2-1-3.06-.43-1.89-.61-2.84c-.11-.63.21-.66,0,.21a3.3,3.3,0,0,0-.07-.64c-.05-.53-.09-1.06-.12-1.6-.05-1,0-2,0-3,0-.48.08-1,.12-1.42.08-.88,0,.3-.06.39a4.11,4.11,0,0,0,.16-.93,23.54,23.54,0,0,1,.7-2.87c.14-.44.28-.88.45-1.31a3.54,3.54,0,0,0,.22-.57c-.31.72-.36.84-.14.35l.13-.28a20.73,20.73,0,0,1,1.33-2.39l.43-.63c.32-.5.59-.33-.15.16a7.88,7.88,0,0,0,1-1.15c.35-.38.71-.74,1.09-1.08.22-.2.85-.54.94-.8-.17.52-.79.55-.13.13l.65-.44q.85-.54,1.74-1l.9-.43c.7-.33-1.12.37.08,0,.5-.16,1-.34,1.49-.49s1.26-.34,1.9-.46c.26-.06.52-.1.78-.15,1.3-.24-1.09.09.23,0a38.35,38.35,0,0,1,7.65.1c1,.11.07,0-.1,0,.34,0,.68.11,1,.16.61.1,1.22.22,1.83.34,1.35.27,2.69.59,4,1a126.25,126.25,0,0,1,14.26,4.9l1.63.67c.26.11,1.12.43.07,0,.24.09.48.2.72.31,1.2.51,2.4,1,3.58,1.6q3.39,1.56,6.69,3.29,6.62,3.45,12.88,7.51,3.13,2,6.16,4.19c1,.69,1.91,1.38,2.85,2.09l1.25,1c1,.77-.55-.44.08.06l.93.72q5.85,4.64,11.25,9.79c3.59,3.43,7,7,10.28,10.79,1.59,1.82,3.13,3.69,4.63,5.59l.72.93-.06-.08c.36.46.71.93,1.06,1.4.75,1,1.48,2,2.2,3,1.44,2,2.82,4.09,4.16,6.18s4.51,3.3,6.84,1.8a5.09,5.09,0,0,0,1.8-6.84Z"/><path class="cls-32" d="M592.28,611.75s-41.29.73-70-5.9-59.35-12.17-52.35-40.92,22.86-24,46.45-12.16S588.22,601.06,592.28,611.75Z"/><path class="cls-32" d="M589,566.41s4.42-75.57,36.12-63.78-.52,43.22-11.69,58.84-19.27,25.21-19.27,25.21Z"/><path class="cls-32" d="M502.7,460.24c.37-28.75-3.73-44.8,17.33-42.39C545.83,420.8,559.1,520.7,551,527S502.33,489,502.7,460.24Z"/><path class="cls-32" d="M576.8,418.59s2.21-9.95-4.43-25.44-25.43-33.17-26.17-49,9.95-34.65,24.7-27.65,23.22,32.44,18.8,56A313.9,313.9,0,0,1,576.8,418.59Z"/><path class="cls-32" d="M834.8,700.53c40.54,29.58,94.34,23.16,141.21,18.83,24.36-2.25,49-5.27,72.19-13.3,22.68-7.83,43.45-20,63.69-32.74q32.53-20.42,64.92-41.06c9.8-6.25,19.62-12.89,27.43-21.59A80.73,80.73,0,0,0,1221,581.46c3.45-10.77,4.41-22.49,9.53-32.69,5.26-10.5,13.74-19.16,21.31-28l25-29.21a51.12,51.12,0,0,1,5.44-5.95,8.44,8.44,0,0,1,2.28-1.46,2.89,2.89,0,0,1,1.86-.13c.53.14.87.12,1.07.63-.34-.84-.21.35-.24.59-.39,2.49-.94,5-1.51,7.43a154.79,154.79,0,0,1-65.16,93.74q-6,3.95-12.41,7.32c-5.69,3-.64,11.64,5,8.63,36.22-19.17,64.21-52.57,77.62-91.21,1.64-4.75,3.06-9.59,4.23-14.48,1.22-5.1,3.57-11.73,1.12-16.71s-8.62-6.95-13.74-5.61c-5.78,1.51-9.57,6.51-13.26,10.82l-25.59,29.89c-7.9,9.22-16.75,18.35-22.07,29.38-5.2,10.78-6.5,22.68-10.07,34a69.17,69.17,0,0,1-16.42,27.41c-8.24,8.45-18.34,14.65-28.25,20.92l-33.36,21.11c-21,13.28-41.76,27.26-64,38.38s-45.72,17.31-70.21,20.58c-12.22,1.64-24.52,2.68-36.8,3.74-13.16,1.13-26.33,2.26-39.54,2.5-23.23.42-47.29-2-68.43-12.34a97.44,97.44,0,0,1-14.62-8.83c-2.19-1.59-5.58-.37-6.85,1.79-1.48,2.54-.39,5.25,1.8,6.85Z"/><path class="cls-32" d="M1182.28,630.5a57.89,57.89,0,0,1,6.22-1.6c1-.21,2-.39,3.07-.56l1.65-.25c.09,0,.79-.11.16,0l.58-.08c4.3-.54,8.62-.88,12.92-1.38,9.07-1.06,18.22-2.77,26-7.9,4.08-2.69,7.7-6,11.51-9.06l.7-.55c-.15.11-.73.55,0,0,.4-.3.79-.59,1.2-.88.92-.67,1.85-1.31,2.8-1.92,1.85-1.2,3.74-2.31,5.69-3.33q1.41-.74,2.85-1.41c.45-.22.9-.42,1.36-.62l.78-.34c-.65.28-.24.1.18-.07q3-1.24,6.21-2.2t6.38-1.63c1-.21,2.08-.4,3.13-.57l.84-.13c.09,0,.8-.12.18,0l.39-.05,1.06-.12q3.27-.35,6.57-.39c1,0,2.11,0,3.16,0,.49,0,1,.08,1.46.1.74,0-.82-.19-.1,0,.33.09.67.13,1,.22s.52.18.78.24c-.07,0-.74-.4-.26-.11l.72.39.17.11c.35.25.35.24,0,0-.31,0-.34-.33,0,0a5.66,5.66,0,0,0,.42.43c.48.45-.26.12-.22-.31,0,.13.33.51.39.62s.14.27.21.4c.42.74-.19-.3-.16-.38a6.49,6.49,0,0,0,.34,1.16,3.58,3.58,0,0,0,.09.45c.21.61-.06-1.06,0-.41,0,.48.06,1,0,1.44s0,.76,0,1.14c-.06,1.27.18-.93,0,.34a24.72,24.72,0,0,1-.61,2.68c-.24.82-.52,1.64-.82,2.44l-.19.48c-.24.63.41-.88.12-.27s-.46,1-.7,1.51a81.31,81.31,0,0,1-6.44,11.34c-.28.4-.56.8-.85,1.19s-1,1.23-.36.49c-.75.92-1.5,1.84-2.3,2.71a49.06,49.06,0,0,1-4.71,4.41c.73-.61-.16.12-.45.33l-1.17.82c-.9.6-1.82,1.17-2.76,1.7s-1.91,1-2.89,1.51l-1.29.59-.56.25c1.1-.48-.18.05-.32.11a63,63,0,0,1-12.29,3.35l-1.43.23-.51.09c-1.08.19-2.2.26-3.29.36-2.41.22-4.84.35-7.26.41a129.07,129.07,0,0,1-14.85-.53c-1.12-.11-2.23-.22-3.34-.35l-1.91-.22-1-.13c.53.07.28,0-.1,0-2.47-.35-4.92-.74-7.37-1.18-9.84-1.77-19.55-4.23-29.2-6.83l-7.22-2a5,5,0,0,0-2.66,9.64c20.29,5.57,40.91,11.11,62.08,11.58,18.83.42,39.59-3.19,52.49-18.18a68,68,0,0,0,8.06-11.78,54.36,54.36,0,0,0,5.26-12.1c1.14-4.39,1.3-9-.64-13.19-2.26-4.9-7.42-6.89-12.48-7.25a68.29,68.29,0,0,0-14.63.83,72.65,72.65,0,0,0-13.4,3.29,81.21,81.21,0,0,0-25.27,14.53l-2.75,2.29-1.21,1-.69.56c-1.15.92.78-.57-.4.31a42.5,42.5,0,0,1-5.88,3.76q-.72.38-1.47.72l-.74.33c.16-.07.94-.37.06,0s-2,.76-3.06,1.08a57.49,57.49,0,0,1-6.34,1.56c-1.08.21-2.16.39-3.25.55l-.73.11c-.61.09-1.24.15-1.85.23-2.22.26-4.44.47-6.67.7-4.81.48-9.63,1-14.38,1.92a57,57,0,0,0-6.42,1.65c-2.49.79-4.35,3.51-3.49,6.15a5.08,5.08,0,0,0,6.15,3.49Z"/><path class="cls-32" d="M1128.57,658.72a228.7,228.7,0,0,1,4.91-39.12c2.65-13.16,6-26.14,9.56-39.09,1.71-6.32,3.38-12.66,5.26-18.93.94-3.14,2-6.27,3.06-9.35.53-1.46,1.08-2.92,1.67-4.37,0-.07.62-1.5.21-.53.12-.29.25-.57.37-.86.37-.86.76-1.71,1.16-2.55a89,89,0,0,1,8.49-14.4c.39-.54.79-1.06,1.18-1.59.76-1-.44.54.06-.09.2-.26.4-.52.61-.77q1.35-1.71,2.79-3.34c1.83-2.08,3.74-4.07,5.75-6s4.09-3.72,6.26-5.44l.62-.49c-1,.75.09-.06.25-.18l1.59-1.17c1.12-.8,2.27-1.58,3.43-2.33,2.37-1.54,4.88-2.8,7.29-4.24.67-.4-1,.28.21-.1.33-.1.72-.17,1-.3.6-.25-1-.09.16,0h.35c.45,0,.46,0,0,0l-.32,0a5.33,5.33,0,0,1,.66.17c1,.25-.62-.4-.08,0,.13.09.71.3.74.45-.54-.44-.6-.49-.18-.14l.26.24c.17.16.67.55.73.78-.13-.54-.4-.61-.13-.15s.36.63.55.93c.61.95-.21-.72,0-.06s.37,1.38.56,2.06,0-1.12,0,.26c0,.45.06.91.06,1.37,0,.77,0,1.54-.09,2.31,0,.46-.09.93-.14,1.39-.12,1,0,.26,0,.05-.21,1.49-.45,3-.7,4.46q-1.39,8.26-3.42,16.41a226.3,226.3,0,0,1-10.49,31.8c-.11.25-.21.49-.31.74-.52,1.24.42-1-.12.27-.26.61-.52,1.23-.79,1.84-.56,1.28-1.13,2.55-1.71,3.82q-1.71,3.72-3.55,7.37-3.77,7.5-8.08,14.69t-9.12,14.06c-1.61,2.29-3.26,4.54-5,6.77l-.6.79c-.16.22-.73.94-.07.1l-1.23,1.57q-1.37,1.72-2.75,3.42a222.6,222.6,0,0,1-23,24.07c-2,1.82-4.09,3.61-6.18,5.36s-1.87,5.35,0,7.07a5.14,5.14,0,0,0,7.07,0,229,229,0,0,0,46-52.56,232.48,232.48,0,0,0,28.25-63.7q2.28-8.37,3.91-16.91c.52-2.76,1-5.54,1.41-8.32.58-4,1-7.88.07-11.83-1.7-7.08-8.74-12.6-16.12-10.34a39,39,0,0,0-8.8,4.53q-3.69,2.29-7.15,4.94a98.05,98.05,0,0,0-24,26.23c-7,11.33-11.11,24.09-14.64,36.86-7.44,26.94-14.94,54.12-17.3,82.07q-.42,5-.6,10.07a5,5,0,0,0,5,5,5.09,5.09,0,0,0,5-5Z"/><path class="cls-32" d="M1007.09,709.63l-.37-.74c-.36-.71.17.36.18.44a11.19,11.19,0,0,0-.48-1.45c-.12-.44-.23-.9-.31-1.35,0-.23-.06-.47-.12-.7.35,1.46.09.61,0,.19a22.76,22.76,0,0,1,0-3.09c0-.51.11-1,.13-1.53,0-.72-.21,1.32,0,.25,0-.32.09-.63.15-.95a48.44,48.44,0,0,1,1.78-6.79c.38-1.17.81-2.33,1.25-3.48.21-.56.43-1.11.66-1.66.11-.28.22-.56.34-.84.38-.95-.39.91.13-.3,1.94-4.54,4.13-9,6.19-13.46,1-2.28,2.06-4.57,3-6.91.49-1.24.94-2.5,1.43-3.75.28-.7.56-1.41.86-2.11l0-.07c.21-.48.42-1,.64-1.46,5.35-12.06,12.1-23.44,16.67-35.86,2.29-6.23,4.14-12.61,6.27-18.89,1-3.09,2.16-6.16,3.42-9.17-.07.18-.37.87,0,0l.53-1.2c.29-.66.6-1.32.9-2q1-2.16,2.13-4.28a112.23,112.23,0,0,1,9.77-15.44l.53-.69c-.68.88.21-.26.29-.36.45-.57.9-1.14,1.37-1.7a44.21,44.21,0,0,1,3-3.42l.57-.54c.85-.9-.83.46.2-.19.21-.13.44-.25.64-.39l.34-.18c-.64.25-.69.28-.17.1l.36-.09-.59.08.38,0c.56,0,.43,0-.38-.08-.09-.16,1.09.72.28,0s.33.42.49.32c-.22.13-.79-.73-.28-.2l.67.69c.67.69-.2-.24-.17-.24s.5.74.56.85c.3.49.54,1,.81,1.51.52,1-.28-.77,0-.08.14.37.28.73.41,1.11a87.34,87.34,0,0,1,2.49,8.85c.33,1.44.63,2.89.9,4.34.13.73.26,1.46.38,2.19.06.36.11.73.17,1.1s.25,1.81.1.64c.39,3.08.65,6.18.77,9.28s.09,6.22-.08,9.32c-.08,1.48-.19,3-.33,4.42-.07.74-.15,1.47-.24,2.21,0,.15-.21,1.62,0,.43-.06.44-.12.88-.19,1.32A100.34,100.34,0,0,1,1071,631.7c-.49,1.39-1,2.78-1.56,4.15-.15.38-.29.76-.46,1.13.07-.15.42-1,0-.12s-.62,1.42-1,2.12c-1.12,2.46-2.34,4.88-3.65,7.24a113.53,113.53,0,0,1-8.84,13.5c-.13.17-.88,1.23-.16.21-.15.21-.32.41-.48.61-.39.5-.8,1-1.2,1.5-.9,1.1-1.81,2.18-2.74,3.25q-2.67,3.06-5.52,6a153.91,153.91,0,0,1-12.1,11c-1,.82-2,1.64-3.05,2.44-.16.12-1.21.93-.23.18l-.62.48-1.88,1.41q-3.31,2.44-6.74,4.76-6.83,4.61-14,8.66-3.57,2-7.2,3.91a5,5,0,0,0-1.79,6.84,5.11,5.11,0,0,0,6.84,1.79c20.45-10.68,40-24.38,54.88-42.13a116.23,116.23,0,0,0,18.22-29.05,106.63,106.63,0,0,0,8.58-39.4,109,109,0,0,0-1.51-20.33c-1-6.18-2.42-12.65-5.09-18.35a14,14,0,0,0-6-6.66,10.57,10.57,0,0,0-11,.92,35.67,35.67,0,0,0-6.85,7.19c-2.16,2.72-4.23,5.51-6.16,8.4a111.42,111.42,0,0,0-9.2,16.77,200.44,200.44,0,0,0-7.29,20c-1,3.24-2.07,6.47-3.21,9.67-.56,1.56-1.14,3.12-1.75,4.66l-.51,1.27c-.37.9-.11.26,0,.07-.38.91-.78,1.81-1.18,2.72-2.72,6-5.81,11.91-8.75,17.85s-5.57,12.14-8,18.38c-.18.45-.41.91-.56,1.37.48-1.53-.18.41-.35.8-.49,1.1-1,2.19-1.49,3.27-1.08,2.33-2.19,4.64-3.27,7-4.29,9.25-9.42,19.9-8,30.39a21,21,0,0,0,2.24,7.14,5,5,0,0,0,6.84,1.79,5.1,5.1,0,0,0,1.79-6.84Z"/><path class="cls-32" d="M913.34,715.89a72.4,72.4,0,0,1,2-8.31c.4-1.32.85-2.63,1.32-3.94.23-.61.46-1.23.7-1.84l.29-.74c.09-.21.74-1.83.25-.63a114.17,114.17,0,0,1,7.63-14.89c5.78-9.85,12.36-19.2,18.13-29a141.68,141.68,0,0,0,8.08-15.81c2.64-6.12,4.93-12.36,7.23-18.62,1.11-3,2.22-6,3.39-8.94.28-.71.56-1.41.85-2.11l.52-1.26c-.34.82,0,.09,0-.07.66-1.53,1.33-3,2-4.56,1.29-2.72,2.67-5.4,4.22-8a48.07,48.07,0,0,1,4.58-6.79l-.08.1.72-.89c.4-.49.81-1,1.23-1.46.91-1.05,1.86-2.08,2.84-3.07s1.8-1.75,2.75-2.59c.47-.41.95-.81,1.43-1.21.29-.24.57-.49.88-.7-.68.47-.24.19.18-.12a43.38,43.38,0,0,1,6.62-4c.19-.1,1.58-.55,1.66-.77l-.52.22.68-.28.69-.26a36.6,36.6,0,0,1,3.86-1.18l1.8-.39,1.1-.19c1.21-.21-.82.08,0,0s1.3-.13,1.95-.14c.23,0,.82-.11,1,0-.67-.12-.72-.12-.16,0l.38.09c1.06.18-.64-.52.22.13-1.31-1,.45.38-.3-.28-.54-.46.15.3.23.42.67.94-.17-.65.05,0a35.44,35.44,0,0,1,1.19,4.41c.07.35.13.7.19,1.05,0,.19.19,1.6.06.37.08.7.15,1.41.19,2.11a38.3,38.3,0,0,1,0,4.67c0,.71-.09,1.42-.17,2.12l-.09.85c.14-1.23,0,.19-.06.37q-.37,2.34-1,4.65a68.88,68.88,0,0,1-2.88,8.75s-.54,1.31-.26.64-.29.67-.27.63c-.3.68-.61,1.35-.92,2q-1.05,2.22-2.19,4.4c-2.85,5.45-6.11,10.67-9.46,15.82s-6.69,9.94-10.25,14.75c-.83,1.14-1.68,2.27-2.53,3.39l-1.29,1.68c.62-.8,0,0-.12.16l-.91,1.16q-2.75,3.5-5.59,6.9A312.08,312.08,0,0,1,943,680.87q-6.44,6.12-13.21,11.86-3.39,2.87-6.86,5.64c-1.1.88-2.21,1.75-3.32,2.61s.79-.6-.33.25l-.67.52-2,1.53q-3.54,2.67-7.18,5.22c-2.13,1.51-3.34,4.44-1.79,6.84,1.36,2.12,4.56,3.41,6.84,1.8a314.77,314.77,0,0,0,78.8-80c7.25-10.62,14.28-21.67,18.69-33.83a56.6,56.6,0,0,0,3.63-19.47,42.31,42.31,0,0,0-1.3-10.2c-.91-3.61-2.49-7.27-6-9s-7.42-1.26-11.12-.6a37.48,37.48,0,0,0-7.74,2.32,51.54,51.54,0,0,0-15,9.68c-9.22,8.4-15.26,19.31-20,30.68-2.58,6.16-4.81,12.46-7.14,18.73q-1.74,4.7-3.63,9.34c-.07.15-.37.88,0,.06-.17.42-.35.84-.53,1.26-.31.69-.61,1.38-.93,2.08q-1,2.25-2.13,4.45c-10.66,21.18-27.12,39.37-34.18,62.33a74.18,74.18,0,0,0-2,8.32c-.46,2.56.7,5.51,3.5,6.15,2.45.55,5.64-.74,6.15-3.5Z"/><path class="cls-32" d="M987,594c-12.4,14.25-18.8,32.38-29.12,48-9.69,14.69-21.59,27.79-31,42.65a100.64,100.64,0,0,0-12.29,26.5c-.87,3.1,4,4.43,4.82,1.33,4.67-16.61,15-30.74,25.34-44.25,5.28-6.9,10.66-13.73,15.58-20.89a227.8,227.8,0,0,0,13.67-23.47c4.81-9.19,9.72-18.48,16.57-26.35a2.55,2.55,0,0,0,0-3.53,2.53,2.53,0,0,0-3.54,0Z"/><path class="cls-32" d="M1063.07,594.42c-2.53,16.11-10.55,30.4-19.62,43.7-9.33,13.7-19.86,26.62-28.05,41.08a102.68,102.68,0,0,0-10.64,25.68c-.77,3.12,4,4.45,4.83,1.33,4-15.93,12.85-29.92,22.22-43.18,9.5-13.44,19.86-26.47,27.31-41.22a88.5,88.5,0,0,0,8.77-26.06,2.57,2.57,0,0,0-1.74-3.07,2.52,2.52,0,0,0-3.08,1.74Z"/><path class="cls-32" d="M1172.59,531.77c-4.28,16.38-10.8,32-17.83,47.41s-14.62,30.76-21,46.56a236.43,236.43,0,0,0-9.24,27.19c-.84,3.11,4,4.44,4.82,1.33,4.38-16.37,11-32,18-47.37s14.62-30.75,20.93-46.57a230.54,230.54,0,0,0,9.1-27.22c.81-3.12-4-4.45-4.82-1.33Z"/><path class="cls-32" d="M1182.24,633.5c15.47-4.23,31.63-2.87,47.47-2.71,7.73.07,15.89.2,23.24-2.55,6.19-2.31,11.41-6.32,16.53-10.39,5.37-4.27,10.85-8.8,17.48-10.92,3-1,1.75-5.8-1.33-4.82-12.38,3.95-20.41,14.88-31.9,20.41-6.73,3.23-14.36,3.29-21.67,3.28-8.1,0-16.2-.41-24.31-.32-9,.09-18.1.81-26.84,3.2-3.1.84-1.78,5.67,1.33,4.82Z"/></g></g></g></svg>