<?xml version="1.0" encoding="utf-8"?>
<!-- Generator: Adobe Illustrator 24.1.2, SVG Export Plug-In . SVG Version: 6.00 Build 0)  -->
<svg version="1.1" xmlns="http://www.w3.org/2000/svg" xmlns:xlink="http://www.w3.org/1999/xlink" x="0px" y="0px"
	 viewBox="0 0 750 476" style="enable-background:new 0 0 750 476;" xml:space="preserve">
<style type="text/css">
	.st0{fill:#E7F5FE;}
	.st1{fill:none;stroke:#D2E8F9;stroke-miterlimit:10;}
	.st2{fill:none;stroke:#D2E8F9;stroke-miterlimit:10;stroke-dasharray:4.0056,4.0056;}
	.st3{fill:#F0FAFF;}
	.st4{fill:#B5DDF7;}
	.st5{fill:none;stroke:#D2E8F9;stroke-linecap:round;stroke-linejoin:round;stroke-miterlimit:10;}
	.st6{fill:#26387A;}
	.st7{fill:#FFB288;}
	.st8{fill:none;stroke:#0061A6;stroke-width:0.5;stroke-miterlimit:10;}
	.st9{fill:#D9F0FF;}
	.st10{fill:none;stroke:#94C1F2;stroke-width:0.5;stroke-miterlimit:10;}
	.st11{fill:none;stroke:#B4E8FD;stroke-width:5;stroke-linecap:round;stroke-linejoin:round;stroke-miterlimit:10;}
	.st12{fill:#FDAE2B;}
	.st13{fill:#EF8417;}
	.st14{opacity:0.5;fill:#FDAE2B;}
	.st15{fill:#FFC840;}
	.st16{fill:#0061A6;}
	.st17{fill:#EF9467;}
	.st18{fill:#E2E8ED;}
	.st19{fill:#B6E9FE;}
	.st20{fill:#2858AD;}
	.st21{fill:none;stroke:#6CB1EF;stroke-width:0.5;stroke-miterlimit:10;}
	.st22{fill:#94C1F2;}
	.st23{font-family:'OpenSans-Semibold';}
	.st24{font-size:27.8706px;}
</style>
<g id="BACKGROUND">
</g>
<g id="OBJECTS">
	<g>
		<g>
			<path class="st0" d="M704.89,398.35c-4.48-8.54-22.67-15.4-30.81-16.96c-43.46-8.29-88.97-7.14-132.99-7
				c-47.94,0.15-93.68,7.82-141.23,11.38c-24.72,1.84-50.85-1.48-75.64-2.33c-40.81-1.41-81.61-3.07-122.4-4.98
				c-35.17-1.64-71.67,2.04-102.7,21.43c-3.52,2.2-7.09,4.87-8.69,8.82c-10.08,24.84,115.52,21.72,131.88,22.15
				c82.54,2.15,165.14,3.26,247.69,1.02c61.38-1.66,125.35-1.56,186.22-10.22c13.46-1.92,31.78-2.6,43.41-10.52
				C706.07,406.75,707,402.37,704.89,398.35z"/>
		</g>
		<g>
			<g>
				<g>
					<path class="st1" d="M651.46,59.27c0.65,0,1.32,0.01,2,0.02"/>
					<path class="st2" d="M657.46,59.47c21.98,1.41,51.69,10.38,48.44,30.06c-4.87,29.51-136.05,18.63-167.38,18.94
						c-63.01,0.62-126.68,0.85-188.46,14.63c-15.02,3.35-36.54,10.74-34.9,29.91c0.57,6.69,4.52,12.75,9.54,17.29
						c18.04,16.29,43.18,17.85,66.51,20.71c35.29,4.33,203.18-1.44,258.06,16.55c10.81,3.54,24.31,8.11,24.76,23.55
						c1.14,39.26-96.35,37.32-125.59,38.07c-78.05,1.99-156.19,1.2-234.25-0.34c-63.08-1.24-126.36-2.35-189.33-6.42
						c-23.48-1.52-61.87-1.97-79.77-19.6c-10.01-9.85-11.32-27.77,4.5-36.92c11.16-6.45,43.88-3.63,56.48-4.71
						c39.15-3.37,25.89-27.69-6.93-29.54"/>
					<path class="st1" d="M97.14,171.57c-0.66-0.02-1.33-0.03-2-0.03"/>
				</g>
			</g>
			<g>
				<path class="st3" d="M653.7,87.98l-10.05-53.13c-0.6-3.18-4.41-4.51-6.86-2.4L595.8,67.72c-2.45,2.11-1.7,6.08,1.35,7.14
					l51.03,17.86C651.24,93.79,654.3,91.15,653.7,87.98z"/>
				<g>
					<path class="st4" d="M645.95,87.17c-0.29,0-0.58-0.05-0.86-0.15l-41.98-14.69c-0.88-0.31-1.53-1.06-1.7-1.98
						c-0.17-0.91,0.16-1.86,0.86-2.46l33.71-29.01c0.7-0.61,1.68-0.79,2.56-0.49c0.88,0.31,1.53,1.06,1.7,1.98l8.27,43.7
						c0.17,0.91-0.16,1.86-0.86,2.46C647.18,86.95,646.57,87.17,645.95,87.17z M605.37,69.61l39.66,13.88l-7.81-41.29L605.37,69.61z
						"/>
				</g>
				<path class="st4" d="M627.73,69.33L627.73,69.33c-0.79-0.28-1.23-1.13-0.99-1.94l4.16-14.6c0.4-1.35,1.85-2.09,3.18-1.62l0,0
					c1.33,0.46,2,1.94,1.48,3.25l-5.85,14.01C629.4,69.21,628.52,69.61,627.73,69.33z"/>
				<path class="st4" d="M628.04,73.31c-0.29,0.84-1.21,1.28-2.04,0.98c-0.84-0.29-1.28-1.21-0.98-2.04
					c0.29-0.84,1.21-1.28,2.04-0.98C627.89,71.56,628.33,72.48,628.04,73.31z"/>
			</g>
			<g>
				<path class="st3" d="M91.95,153.67l-33.04-16.45c-1.97-0.98-4.27,0.54-4.14,2.74l2.28,36.84c0.14,2.2,2.6,3.43,4.44,2.21
					l30.77-20.39C94.1,157.4,93.93,154.65,91.95,153.67z"/>
				<g>
					<path class="st4" d="M88.32,157.55c-0.12,0.16-0.26,0.29-0.43,0.41l-25.31,16.77c-0.53,0.35-1.21,0.39-1.78,0.11
						c-0.57-0.28-0.94-0.85-0.98-1.48l-1.87-30.3c-0.04-0.63,0.26-1.24,0.79-1.59c0.53-0.35,1.21-0.39,1.78-0.11l27.18,13.53
						c0.57,0.28,0.94,0.85,0.98,1.48C88.71,156.79,88.57,157.21,88.32,157.55z M62.03,172.38l23.91-15.85l-25.68-12.78L62.03,172.38
						z"/>
				</g>
				<path class="st4" d="M71.1,160.1L71.1,160.1c-0.48,0.32-1.12,0.2-1.46-0.26l-6.23-8.29c-0.57-0.78-0.37-1.87,0.43-2.4l0,0
					c0.8-0.53,1.88-0.29,2.38,0.54l5.21,8.96C71.72,159.15,71.58,159.79,71.1,160.1z"/>
				<path class="st4" d="M73.39,161.58c0.33,0.5,0.2,1.18-0.31,1.52c-0.5,0.33-1.18,0.2-1.52-0.31c-0.33-0.5-0.2-1.18,0.31-1.52
					C72.38,160.94,73.06,161.08,73.39,161.58z"/>
			</g>
			<g>
				<circle class="st1" cx="114.84" cy="225.21" r="2.75"/>
				<circle class="st1" cx="523.3" cy="174.29" r="2.75"/>
				<circle class="st1" cx="306.59" cy="97.18" r="2.75"/>
				<circle class="st1" cx="303.28" cy="306.45" r="2.75"/>
				<g>
					<line class="st5" x1="367.41" y1="144.42" x2="367.41" y2="150.65"/>
					<line class="st5" x1="370.53" y1="147.53" x2="364.3" y2="147.53"/>
				</g>
				<g>
					<line class="st5" x1="479.15" y1="64.88" x2="479.15" y2="71.11"/>
					<line class="st5" x1="482.26" y1="67.99" x2="476.04" y2="67.99"/>
				</g>
				<g>
					<line class="st5" x1="652.01" y1="232.81" x2="652.01" y2="239.04"/>
					<line class="st5" x1="655.13" y1="235.92" x2="648.9" y2="235.92"/>
				</g>
			</g>
		</g>
		<g>
			<g>
				<g>
					<path class="st6" d="M423.3,410.78c0,0-11.59,4.94-11.58,7.42c0.01,1.42,15.93-0.61,16.89-1.57c1.54-1.54-0.62-5.63-0.62-5.63
						L423.3,410.78z"/>
					<path class="st7" d="M422.56,403.87l0.74,7.12c0,0,0.38,1.15,2.01,1.28c1.62,0.13,2.69-1.28,2.69-1.28l-0.57-8.92"/>
					<g>
						<path class="st6" d="M442.79,240.47c4.21,16.98,2.65,25.61-3.52,38.42c-3.74,43.07-6.35,85.98-11.39,127.98l-5.32,0.3
							c-12.09-40.89-23.22-102.02-21.8-157.9"/>
					</g>
					<g>
						<path class="st8" d="M440.17,246.31c1.54,3.95,1.93,8.38,1.79,12.58c-0.21,6.44-2.82,12.28-4.52,18.39
							c-2.26,8.15-2.44,16.27-3.05,24.62c-0.97,13.07-1.96,26.14-2.96,39.21c-1.62,21.32-3.26,42.63-4.92,63.95
							c-0.05,0.63-0.1,1.27-0.15,1.9"/>
					</g>
				</g>
				<g>
					<path class="st6" d="M469.51,412.44c0,0-11.59,4.94-11.58,7.42c0.01,1.42,15.93-0.61,16.89-1.57c1.54-1.54-0.62-5.63-0.62-5.63
						L469.51,412.44z"/>
					<path class="st7" d="M468.76,405.52l0.74,7.12c0,0,0.38,1.15,2.01,1.28c1.62,0.13,2.69-1.28,2.69-1.28l-0.57-8.92"/>
					<g>
						<path class="st6" d="M481.33,239.04c5.33,16.67,4.34,25.38-0.97,38.57c-0.88,43.23-3.86,88.37-6.1,130.61h-5.47
							c-14.77-40-30.6-101.76-32.88-157.61"/>
					</g>
					<g>
						<path class="st8" d="M478.69,245.94c0,0,6.18,14.46-4.27,34.76c-1.21,19.16-1.83,127.51-1.83,127.51"/>
						<path class="st8" d="M463.4,250.52c1.06,1.64,2.73,2.8,4.53,3.52c1.8,0.72,3.73,1.04,5.65,1.28c2.28,0.28,4.59,0.47,6.89,0.35
							"/>
						<path class="st8" d="M464.16,253.23c1.98,1.79,4.49,2.89,7.08,3.49c2.59,0.6,5.26,0.72,7.91,0.75"/>
					</g>
				</g>
			</g>
			<g>
				<g>
					<path class="st7" d="M418.08,158.49c-18.43,32.07-38.27,61.11-50.03,96.18l-3.5-1.86c0.9-32.56,11.45-79.9,25.3-109.37"/>
				</g>
				<g>
					<path class="st9" d="M409.07,125c0,0-5.71,1.6-12.41,6.06c-6.31,4.2-11.08,10.44-14.33,17.29c-3.24,6.85-5.03,14.3-6.17,21.79
						c0,0,7.71,3.86,16.56,4.96c8.84,1.11,18.25,0,18.25,0"/>
				</g>
			</g>
			<g>
				<g>
					<path class="st9" d="M395.33,143.95c-1.96,34.68-0.47,70.36,0.41,104.1c0,0,12.09,3.22,41.48,3.22
						c29.27,0,48.44-8.92,48.44-8.92c-5.67-34.67-10.18-77.21-24.07-105.76c0,0-15.67-16.91-31.14-17.6c-3.11-0.14-6.21,1-9.18,2.38
						c-2.18,1.01-12.21,3.46-12.21,3.46L395.33,143.95z"/>
				</g>
				<path class="st10" d="M395.17,147.04c-0.77,6.67-0.77,27.25-0.77,27.25"/>
			</g>
			<g>
				<path class="st11" d="M424.39,258.96c49.09-5.44,69.68,56.77,80.86,80.91c26.42,57.05,126.11,50.69,171.54,50.69
					c59.5,0,85.61,20.05,57.84,30.57"/>
				<path class="st12" d="M441.31,261.77c0,25.25-19.11,40.49-35.45,40.49h-26.79v-80.99h26.79
					C422.2,221.28,441.31,236.52,441.31,261.77z"/>
				<path class="st13" d="M427.5,261.77c0,24.68-14.61,44.68-32.64,44.68H365.3v-89.36h29.56
					C412.89,217.09,427.5,237.1,427.5,261.77z"/>
				<path class="st14" d="M434.05,237.36c-6.39,8.71-12.64,17.53-18.68,26.5c0.86-0.17,1.66-0.59,2.28-1.2
					c0,0.67-1.07,1.83-0.12,2.27c0.95,0.43,1.95-0.68,2.93-0.37c0.93-0.22,1.79-1.38,2.47-2.05c-0.3,0.69-0.37,1.19-0.41,1.56
					c6.52-2.54,12.36-8.62,17.43-13.51C438.71,245.58,436.65,241.16,434.05,237.36z"/>
				<ellipse class="st15" cx="367.41" cy="261.77" rx="32.64" ry="44.68"/>
				<g>
					<g>
						<path class="st13" d="M370.14,277.61c0,3.67-2.5,6.64-5.59,6.64s-5.59-2.97-5.59-6.64c0-3.67,2.5-6.64,5.59-6.64
							S370.14,273.94,370.14,277.61z"/>
					</g>
					<g>
						<path class="st13" d="M370.14,245.94c0,3.67-2.5,6.64-5.59,6.64s-5.59-2.97-5.59-6.64c0-3.67,2.5-6.64,5.59-6.64
							S370.14,242.27,370.14,245.94z"/>
					</g>
				</g>
			</g>
			<g>
				<g>
					<path class="st7" d="M470.52,169.55c0,0,2.07,21.1-7.36,38.65c-8.07,15.01-24.1,34.43-37.05,45.14l-3.11-0.76
						c4.51-17.3,18.74-48.01,19.62-59.53c0.89-11.52,0.67-24.86,0.89-31.27"/>
				</g>
				<path class="st9" d="M430.46,118.99c0,0,17.37,1.19,27.45,9.7c14.39,12.16,16.52,35.95,16.52,41.47
					c-4.35,4.7-13.85,4.94-20.78,4.94c-6.93,0-11.99-3.32-11.99-3.32l-1.41-26.24"/>
				<g>
					<path class="st7" d="M424.26,250.01c-1.97,0.2-3.89,1.16-5.55,2.45c-1.52,1.19-3.39,3.18-3.2,4.09c0.21,0.96,2.7-0.88,3-0.51
						c0.3,0.37-4.27,7.28-3.41,7.79c0.86,0.52,4.75-5.74,4.75-5.74s-3.78,6.68-2.32,6.83c1.22,0.12,4.57-6.2,4.57-6.2
						s-2.83,5.66-1.86,5.87c0.97,0.21,3.6-5.42,3.6-5.42s-2.14,4.81-1.32,4.9c0.41,0.04,2.53-2.35,3.41-5.25
						c0.87-2.85,1.88-5.33,1.1-7.56"/>
				</g>
				<line class="st10" x1="442.38" y1="148.3" x2="442.38" y2="172.21"/>
			</g>
			<g>
				<g>
					<path class="st6" d="M394.46,96.93c-0.09,1.04-0.13,2.08-0.12,3.12c0.02,2.25,0.31,4.62,1.61,6.46
						c0.89,1.27,2.23,2.21,3.73,2.62c1.06,0.29,2.44,0.17,2.9-0.83c0.16-0.35,0.17-0.75,0.17-1.14c-0.01-3.85-0.76-7.71-2.2-11.28"
						/>
				</g>
				<g>
					<path class="st7" d="M420.67,99.1c-1.49-5.81-6.18-13.94-13.8-12.31c-4.79,1.03-9.2,4.29-10.61,8.86
						c-1.68,5.45,1.05,11.8,4.31,16.25c1.21,1.64,2.63,3.21,4.5,4.17c4.41,2.28,10.37,0.41,13.37-3.39
						C421.44,108.88,421.85,103.7,420.67,99.1z"/>
				</g>
				<path class="st7" d="M409.98,114.29l2.49,9.11l-3.39,1.6c0,0,2.59,3.44,7.7,2.7c10.41-1.5,13.68-8.71,13.68-8.71l-5.87-0.61
					l-6.5-11.09"/>
				<g>
					<path class="st6" d="M425.75,92.77c-0.73-3.99-3.57-7.38-7.04-9.49c-6.16-3.74-14.93-4.04-20.41,1.11
						c-3.12,2.93-8.74,13.34-2.03,15.4c2.1,0.64,4.26-0.63,6.08-1.85c1.86-1.24,3.71-2.48,5.57-3.72c0.67-0.45,1.38-0.91,2.18-0.94
						c1.31-0.05,2.4,1.09,2.87,2.31c0.47,1.23,0.5,2.57,0.81,3.85c0.22,0.9,0.61,1.83,1.39,2.33c0.78,0.5,2.02,0.35,2.41-0.49
						c0.27-0.58,0.08-1.27,0.07-1.91c-0.01-0.64,0.35-1.43,0.99-1.41c0.23,0.01,0.44,0.13,0.62,0.27c1.62,1.26,1.09,3.79,1.63,5.77
						c0.07,0.26-0.47,4.27-0.29,4.47C425.78,107.29,426.27,95.63,425.75,92.77z"/>
				</g>
				<g>
					<path class="st7" d="M418.09,98.48c-0.12-0.73,0.58-1.41,1.32-1.49c0.74-0.08,1.46,0.3,2.03,0.77c0.97,0.81,1.67,2,1.69,3.27
						c0.02,0.99-0.38,1.95-0.92,2.78c-0.37,0.57-0.85,1.11-1.49,1.31c-0.82,0.26-1.75-0.12-2.34-0.74"/>
				</g>
			</g>
		</g>
		<g>
			<g>
				<g>
					<path class="st6" d="M233.52,410.53c0,0,11.18,1.86,11.49,4.32c0.18,1.41-15.67,3.08-16.74,2.26
						c-1.72-1.33,0.39-6.29,0.39-6.29L233.52,410.53z"/>
					<path class="st7" d="M232.63,403.67l0.92,7.07c0,0-0.23,1.19-1.82,1.53c-1.59,0.34-2.83-0.92-2.83-0.92l-1.31-8.82"/>
					<g>
						<path class="st6" d="M190.84,242.66c-2,17.38-2.11,25.74,5.66,37.65c3.68,16.82,9.33,34.04,13.61,51.26
							c-1.84,20.56,11.05,53.32,17.99,76.72l5.01-0.86c6.74-42.11,9.23-106.68,3.18-163.2"/>
					</g>
					<path class="st8" d="M194.1,266.21c0,0,19.23,61.05,19.23,64.37s0.53,14.71,1.38,22.1c1.56,13.54,13.83,53.44,13.83,53.44"/>
					<polygon class="st16" points="227.94,409.22 227.17,406.17 233.63,405.93 233.72,408.74 					"/>
				</g>
				<g>
					<path class="st6" d="M146.59,410.87c0,0,8.75,6.32,7.97,8.54c-0.44,1.27-14.67-4-15.24-5.16c-0.91-1.86,2.99-5.2,2.99-5.2
						L146.59,410.87z"/>
					<path class="st7" d="M148.73,404.65l-2.21,6.41c0,0-0.7,0.92-2.2,0.53s-2.02-1.99-2.02-1.99l2.61-8.08"/>
					<g>
						<path class="st6" d="M153.28,239.04c-5.33,16.67-4.34,25.38,0.97,38.57c0.32,15.79,0.48,31.77,0.66,47.75
							c-11.25,28.16-13.03,53.42-11.61,80.23l5.42,2.01c0,0,32.3-56.3,38.24-78.56c6.81-25.53,10.68-52.83,11.73-78.44"/>
					</g>
					<path class="st8" d="M154.61,242.66c0,0-5.88,17.2,1.83,33.77c0,4.63,2.65,43.09,1.6,49.04c-0.5,2.85-5.78,16.45-9.31,29.69
						c-3.9,14.64-4.73,49.17-4.73,49.17"/>
					<polygon class="st16" points="142.3,405.58 143.16,401.96 150.1,405.19 148.73,408.29 					"/>
				</g>
			</g>
			<g>
				<path class="st17" d="M243.62,110.32l-4.35-3.71c0,0,0-6.5,0-7.7c0-1.19-1.62-8.36-3.08-8.36c-1.46,0-1.79-1.79-2.52-1.06
					c-0.73,0.73,0.6,8.82,0,9.42c-0.6,0.6-1.37-3.84-1.92-3.29c-0.55,0.55-0.6,3.81-0.6,5.47c0,1.67,1.33,4.74,2.65,6.06
					c1.32,1.32,7.16,7.64,7.16,7.64L243.62,110.32z"/>
				<g>
					<path class="st9" d="M241.44,107.85l-3.64,4.14c0,0,14.37,19.02,18.92,25.39c-4.15-1.45-10.11-5.1-13.56-7.36
						c-6.76-4.43-13.54-6.78-18.22-6.78c-9.95,0-4.74,32.81,6.8,37.61c21.9,3.29,46.46,1.21,50.22-6.49
						C287.54,142.95,255.43,116.07,241.44,107.85z"/>
				</g>
				<path class="st10" d="M256.73,137.38c0,0,2.74,7.65,7.61,10.15"/>
			</g>
			<g>
				<g>
					<path class="st9" d="M174.65,131.93c-26.11,29.33-25.72,79.75-25.72,114.02c0,0,19.17,13.09,48.44,13.09
						c29.38,0,41.48-7.21,41.48-7.21c0.88-34.72-5.31-49.7,0.41-107.14c0,0-9.34-21.44-14.32-21.44c-4.98,0-24.47-1.92-24.47-1.92
						L174.65,131.93z"/>
				</g>
				<path class="st10" d="M237.83,161.62c0,0,0.59-10.03,3.03-12.47"/>
			</g>
			<g>
				<path class="st7" d="M209.11,99.33c0.97-5.92,5.19-14.37,12.93-13.41c4.86,0.6,8.63,3.96,11.35,7.89
					c2.33,3.37,1.45,6.6-1.87,15.13c-1.06,1.74-3.34,4.86-5.11,5.99c-4.2,2.66-10.3,1.32-13.62-2.2
					C209.47,109.2,208.34,104.02,209.11,99.33z"/>
			</g>
			<g>
				<path class="st6" d="M210.15,98.61c1.11-0.17,0.01-0.89,0.5,0.12c0.32,0.65,0.41,0.84,1.04,1.05c0.62,0.21,0.63,0.77,1.15,1.16
					c0.81,0.6,1.49-0.22,1.83-0.91c0.63-1.28,0.61-2.83,0.46-4.21c-0.12-1.09-0.48-2.82,0.59-3.57c0.87-0.62,2.81,0.28,3.7,0.54
					c1.39,0.4,2.76,0.85,4.15,1.27c3.33,1.01,6.86,1.91,10.36,1.43c3.07-0.41,6.23-2.01,7.7-4.85c1.76-3.41-1.76-7.86-5.34-7.86
					c-0.94,0-1.83,0.38-2.75,0.57c-0.34,0.07-0.7,0.11-1.03,0.02c-0.78-0.23-1.13-1.11-1.57-1.8c-1.33-2.07-3.6-2.7-5.94-2.44
					c-2.66,0.29-4.92,1.57-7.45,2.26c-1.34,0.37-2.5,0.02-3.84,0.06c-1.38,0.04-2.8,0.95-3.41,2.22c-1.08-1.13-3.5,1.65-4.1,2.38
					c-2.65,3.22-3.48,7.86-3.56,11.93c-0.06,3.56,0.53,8.74,4.43,10.17c1.65,0.61,2.69,0.93,2.76-0.58
					c-0.72-1.57-0.89-4.68-1.04-5.99c-0.15-1.31,0.24-2.87,1.45-3.38"/>
			</g>
			<path class="st7" d="M222.86,113.47l-0.85,8.94l2.94,0.83c0,0-1.55,4.01-6.68,4.7c-10.42,1.39-17.79-6.62-17.79-6.62l3.48-0.67
				l5.27-16.6"/>
			<g>
				<path class="st7" d="M211.89,98.55c0.05-0.74-0.7-1.36-1.45-1.37c-0.74-0.01-1.43,0.42-1.95,0.95c-2.91,2.9,0.75,9.98,3.62,6.32
					"/>
			</g>
			<g>
				<path class="st6" d="M231.53,108.79c-0.47,1.1-2.31,1.53-3.33,1.65c-4.9,0.54-8.97-2.63-13.66-3.21
					c-0.93-0.11-1.99-0.19-2.68,0.44c-0.66,0.6-0.72,1.59-0.74,2.48c-0.02,1.1-0.04,2.2,0.06,3.29c0.08,0.94,0.27,1.9,0.76,2.72
					c2.12,3.53,9.19,4.12,12.78,3.91c1.45-0.09,2.95-0.37,4.09-1.22c1.61-1.22,1.96-3.34,2.57-5.22
					C232.11,111.31,231.53,108.79,231.53,108.79z"/>
			</g>
			<g>
				<path class="st7" d="M228.05,112.64c-0.15-0.1-0.33-0.19-0.52-0.19c-2.29,0-3.56-0.55-5.35-0.69c-0.3-0.02-0.62-0.04-0.91,0.04
					c-0.64,0.19-1,0.85-1.13,1.49c-0.13,0.64,0.19,1.14,0.78,1.43c1.06,0.53,2.26,0.72,3.43,0.75c1.03,0.03,2.37,0.12,3.22-0.58
					C228.06,114.5,228.77,113.16,228.05,112.64z"/>
			</g>
			<g>
				<path class="st11" d="M206.5,242.07c-57.04-2.98-90.25,26.46-113.84,80.07C62.05,391.73,19.27,397.29,0,396.91"/>
				<path class="st12" d="M184.61,246.72c2.1,25.17,22.41,38.76,38.69,37.41l26.7-2.23l-6.73-80.71l-26.7,2.23
					C200.29,204.78,182.51,221.55,184.61,246.72z"/>
				<path class="st13" d="M198.37,245.57c2.05,24.59,18.27,43.31,36.24,41.81l29.46-2.46l-7.43-89.05l-29.46,2.46
					C209.22,199.83,196.32,220.98,198.37,245.57z"/>
				
					<ellipse transform="matrix(0.9965 -0.0831 0.0831 0.9965 -19.1046 22.3003)" class="st15" cx="258.25" cy="240.58" rx="32.63" ry="44.68"/>
				<g>
					<g>
						<path class="st12" d="M256.85,256.58c0.3,3.65,3.05,6.41,6.13,6.15c3.08-0.26,5.33-3.43,5.02-7.08
							c-0.3-3.65-3.05-6.41-6.13-6.15C258.79,249.76,256.54,252.93,256.85,256.58z"/>
					</g>
					<g>
						<path class="st12" d="M254.22,225.02c0.3,3.65,3.05,6.41,6.13,6.15c3.08-0.26,5.33-3.43,5.02-7.08
							c-0.3-3.65-3.05-6.41-6.13-6.15C256.16,218.2,253.91,221.37,254.22,225.02z"/>
					</g>
				</g>
				<g>
					<path class="st18" d="M260.72,229.16c3.35-0.28,41.64-3.47,41.64-3.47c2.54-0.21,4.42-2.46,4.21-5.03l0,0
						c-0.21-2.57-2.45-4.47-4.99-4.26c0,0-38.46,3.21-41.64,3.47C256.75,220.13,257.36,229.44,260.72,229.16z"/>
					<path class="st18" d="M263.35,260.72c3.35-0.28,41.64-3.47,41.64-3.47c2.54-0.21,4.42-2.46,4.21-5.03l0,0
						c-0.21-2.57-2.45-4.47-4.99-4.26c0,0-38.46,3.21-41.64,3.47C259.39,251.69,259.99,261,263.35,260.72z"/>
				</g>
			</g>
			<g>
				<g>
					<path class="st7" d="M160.74,169.55c0,0-2.07,21.1,7.36,38.65c8.07,15.01,24.1,34.43,37.05,45.14l3.11-0.76
						c-4.51-17.3-18.74-48.01-19.62-59.53c-0.89-11.52-0.67-24.86-0.89-31.27"/>
				</g>
				<path class="st9" d="M200.48,121.32c0,0-18.3,1.05-28.83,9.01c-18.2,13.75-14.63,50.66-9.33,68.71
					c5.3,18.05,30.78,45.13,39.01,50.97c1.35,0,5.31-0.34,5.17-3.44c-4.55-14.07-17.53-51.09-17.53-51.09l2.05-49.94"/>
				<g>
					<path class="st7" d="M207.01,250.01c1.97,0.2,3.89,1.16,5.55,2.45c1.52,1.19,3.39,3.18,3.2,4.09c-0.21,0.96-2.7-0.88-3-0.51
						c-0.3,0.37,4.27,7.28,3.41,7.79c-0.86,0.52-4.75-5.74-4.75-5.74s3.78,6.68,2.32,6.83c-1.22,0.12-4.57-6.2-4.57-6.2
						s2.83,5.66,1.86,5.87c-0.97,0.21-3.6-5.42-3.6-5.42s2.14,4.81,1.32,4.9c-0.41,0.04-2.53-2.35-3.41-5.25
						c-0.87-2.85-1.88-5.33-1.1-7.56"/>
				</g>
				<path class="st10" d="M194.11,210.19c-2.92-8.4-5.13-14.71-5.13-14.71l3.84-41.91"/>
				<path class="st10" d="M158.15,163.75c-0.11,11.37,1.26,25.37,4.18,35.3c2.55,8.69,9.78,19.47,17.51,28.96"/>
			</g>
		</g>
		<g>
			<path class="st7" d="M549.58,102.01l2.94-2.01c0,0,1.36-6.4,2.12-7.55c0.8-1.22,2.31-3.73,4.03-4.89
				c0.72-0.48,3.99-2.34,4.82-1.51c0.41,0.41-0.97,4.11-1.61,4.75c-0.63,0.63-2.5,3.47-2.21,4.36c0.29,0.89,1.84-1.06,2.21-1.42
				c0.37-0.37,0.86-0.82,1.03-0.35c0.29,0.79-1.37,5.25-2.66,6.55c-1.29,1.29-3.39,2.52-4.85,2.52l-4.57,4.04"/>
			<g>
				<path class="st6" d="M585.03,80.93c4.87,2.87,7.88,8.27,9.04,13.68c0.21,0.97,0.39,2.01,1.06,2.75c0.53,0.58,1.3,0.88,2.02,1.21
					c4.03,1.87,7.12,5.53,8.54,9.71c0.61,1.79,0.13,4.32,0.84,5.84c0.86,1.87,4.04,2.3,5.75,2.86c5.11,1.69,8.87,6.85,8.93,12.23
					c0.06,5.39-3.6,10.61-8.68,12.41c1.37,1.91,1.56,4.49,0.93,6.76c-0.63,2.26-2.01,4.25-3.57,6.02
					c-6.44,7.28-16.37,11.18-26.08,10.76c-2.8-0.12-5.61-0.58-8.2-1.64c-2.94-1.2-5.52-3.13-7.99-5.11
					c-2.99-2.39-5.97-5.01-7.58-8.48c-1.61-3.47-1.5-8.01,1.22-10.7c-3.15,0.66-6.51-1.05-8.29-3.74c-1.77-2.69-2.09-6.15-1.38-9.29
					s2.37-5.99,4.29-8.57c1.35-1.81,2.91-3.64,3.2-5.88c0.48-3.74-1.61-7.08-2.15-10.8c-0.85-5.79-0.58-10.77,4.38-13.84
					c1.59-4.12,3.51-7.3,8.08-8.52C574.8,77.14,580.18,78.08,585.03,80.93z"/>
			</g>
			<path class="st19" d="M573.1,124.93c-16.53-4.33-35.46,2.51-39.68,2.49c5.78-5.78,16.38-18.64,20.04-23.08
				c0-3.05-1.85-3.9-1.85-3.9s-45.35,23.45-40.79,38.76c4.76,15.99,49.19,8.14,52.74,12.73"/>
			<g>
				<path class="st7" d="M576.34,273.76c-0.05,1.35-5.97,30.47-6.41,33.59c-1.27,9.1,3.54,18.23,3.07,32.33
					c-0.57,17.15-7.86,63.24-8.79,65.29c-0.93,2.04-5.37,0.17-5.37,0.17s-12.82-61.83-13.54-87.13c-0.6-20.84,2.43-65.94,2.43-65.94
					"/>
				<path class="st6" d="M564.67,405.76c0,0,0.74,1.57,0.71,2.27c-0.1,1.92-0.16,3.23-0.16,3.23l-0.83,0.06l-0.29-1.57
					c0,0-2.22,0.39-4.47,1.87c-1.09,0.72-6.59,0.65-7.44,0.21c-0.95-0.5-0.68-1.4-0.36-1.77c0.32-0.37,6.26-2.96,6.26-2.96"/>
				<path class="st7" d="M558.85,405.14c-0.48,1.16-5.18,3.72-4.75,4.06c0.43,0.34,3.16,0.36,6.19-0.65
					c2.76-0.92,4.32-1.95,4.41-2.67l-0.53-1.94"/>
			</g>
			<g>
				<path class="st7" d="M617.49,274.97c-0.01,1.35-5.04,30.64-5.38,33.77c-0.99,9.13,4.09,18.11,4.06,32.22
					c-0.05,17.16-5.93,63.45-6.79,65.52c-0.86,2.07-5.37,0.33-5.37,0.33s-14.7-61.41-16.19-86.68c-1.23-20.81,0.42-65.99,0.42-65.99
					"/>
				<path class="st6" d="M609.85,407.27c0,0,0.79,1.54,0.78,2.25c-0.04,1.92-0.06,3.24-0.06,3.24l-0.83,0.08l-0.34-1.56
					c0,0-2.21,0.46-4.42,2.01c-1.07,0.75-6.57,0.86-7.43,0.43c-0.96-0.47-0.72-1.38-0.41-1.76c0.31-0.38,6.17-3.15,6.17-3.15"/>
				<path class="st7" d="M604.01,406.83c-0.45,1.18-5.06,3.88-4.62,4.21c0.44,0.33,3.17,0.26,6.17-0.84c2.73-1,4.26-2.08,4.33-2.8
					l-0.59-1.93"/>
			</g>
			<path class="st20" d="M602.54,200.09c0,0,13.14,8.61,18.15,29.25c6.75,27.84-3.19,82.36-3.19,82.36s-20.58,6.02-42.96,5.83
				c-22.38-0.19-35.64-7.75-35.69-9.11c-0.04-1.35-3.34-42.63,1.21-70.63c5.11-31.43,18.11-39.9,18.11-39.9"/>
			<g>
				<g>
					<path class="st19" d="M584.73,124.4c2.04-0.76,7.32,1.09,17.21,4.89c4.35,4.7,6.25,15.01,7.19,24.13
						c-2.57,22.2-5.43,34.32-4.05,41.82c0.33,1.77,1.95,3.12,1.69,5.59c-0.54,5.12-8.92,5.9-24.83,7.7
						c-15.91,1.81-30.24-5.42-29.38-7.68c0.86-2.26,3.57-4.24,4-5.73c0.43-1.5,1.73-20.52,0.01-22.77
						c-1.72-2.26-6.16-8.75-6.16-15.08c0-8.9,4.9-12.9,8.11-17.79c5.35-8.15,9.41-13.27,14.58-14.55
						C581.39,122.88,584.73,124.4,584.73,124.4z"/>
				</g>
				<path class="st21" d="M557.94,135.65c0,0,0.58,3.82-1.37,7.01c-0.6,0.98-4.21,4.66-4.92,7.01"/>
			</g>
			<g>
				<path class="st7" d="M580.92,113.56c4.34-4.31,5.03-12.5,3.06-18.04c-2.22-6.23-11.1-10.9-17.21-6.99
					C554.77,96.19,566.94,127.44,580.92,113.56z"/>
			</g>
			<path class="st7" d="M572.65,112.8l0.23,13.32c0,0-0.5,2.96,4.71,3.15c7.14,0.25,7.14-4.87,7.14-4.87l-4.13-13.73"/>
			<g>
				<path class="st6" d="M578.05,82.65c-1.47-0.97-3.04-1.01-4.56-0.11c-0.93,0.55-1.58,1.46-2.57,1.9
					c-0.7,0.31-1.53,0.36-2.27,0.56c-3.46,0.94-6.74,3.58-8.2,6.88c-1.47,3.32-1,8.72,1.75,11.09c-0.12-2.57,0.65-6.26,2.02-8.43
					c0.72-1.14,1.85-2.26,3.19-2.11c1.5,0.17,2.32,1.78,3.4,2.83c1.64,1.6,4,1.92,6.17,2.25c2.46,0.37,4.35,0.8,5.56,3.21
					c0.53,1.05,0.81,2.2,1.09,3.34c0.33,1.35,0.67,2.71,0.75,4.1c0.05,0.87,0,1.75,0.27,2.58c0.54,1.64,2.21,2.64,3.85,3.19
					c1.26,0.42,3.38,0.82,4.17-0.61c0.66-1.19,1.23-2.87,1.46-4.21c0.75-4.48-0.66-9.11-3.08-12.95c-2.65-4.22-6.42-7.04-9.82-10.55
					C580.19,84.52,579.16,83.39,578.05,82.65z"/>
			</g>
			<g>
				<path class="st7" d="M581.4,103.16c0.26-1.02,1.01-2.05,2.06-2.21c3.39-0.51,2.88,4.55,1.57,6.33
					c-0.76,1.04-2.74,2.39-3.63-0.49"/>
			</g>
			<g>
				<path class="st7" d="M617.39,206.89l-1.6,3.41c0,0-6.02,1.43-6.66,2.49c-1.01,1.68-2.52,3.99-2.52,5.31
					c0,1.32,0.13,7.1,1.78,7.1c1.04,0,3.46-4.72,3.96-5.38c1.18-1.56,5.94-2.69,5.94-6.79l2.92-6.15"/>
				<path class="st19" d="M584.73,124.22c0,0,14.05-3.58,25.04,3.35c8.53,5.39,30.49,32.18,30.5,47.53
					c0,10.35-20.54,35.97-20.54,35.97l-3.41-2.44c0,0,1.99-20.14,7.96-31.24c-4.4-4.4-21.57-18.08-25.88-22.39"/>
				<path class="st21" d="M596.15,153.59c3.07,2.73,11.16,9.24,11.16,9.24"/>
			</g>
		</g>
		<g>
			<g>
				<path class="st0" d="M181.78,100.49L164.8,86.81c0,0,7.63-28.2-2.47-38.05c-5.38-5.24-12.18-8.82-19.2-11.48
					c-15.62-5.93-34.29-7.28-48.21,1.96C84.64,46.06,78.4,57.74,75.6,69.75c-2.46,10.57-2.26,22.59,4.35,31.2
					c2.97,3.87,7.03,6.78,11.35,9.04c13.44,7.04,48.97,9.7,64.39-0.64c4.27-2.86,3.89-6.73,5.68-12.77L181.78,100.49z"/>
			</g>
			<text transform="matrix(1 0 0 1 88.2256 84.4819)" class="st22 st23 st24">Oops!</text>
		</g>
	</g>
</g>
<g id="DESIGNED_BY_FREEPIK">
</g>
</svg>
